<mxfile host="Electron" agent="Mozilla/5.0 (Windows NT 10.0; Win64; x64) AppleWebKit/537.36 (KHTML, like Gecko) draw.io/28.1.2 Chrome/138.0.7204.243 Electron/37.4.0 Safari/537.36" version="28.1.2">
  <diagram name="Page-1" id="VdlAHIHQqhv94lCO-iJQ">
    <mxGraphModel dx="1123" dy="700" grid="1" gridSize="10" guides="1" tooltips="1" connect="1" arrows="1" fold="1" page="1" pageScale="1" pageWidth="850" pageHeight="1100" math="0" shadow="0">
      <root>
        <mxCell id="0" />
        <mxCell id="1" parent="0" />
        <mxCell id="ZhbTsyseVTY1eLGrA-w9-1" value="High Level Architecture" style="text;html=1;align=center;verticalAlign=middle;resizable=0;points=[];autosize=1;strokeColor=none;fillColor=none;fontStyle=1;fontSize=24;" vertex="1" parent="1">
          <mxGeometry x="20" y="10" width="270" height="40" as="geometry" />
        </mxCell>
        <mxCell id="ZhbTsyseVTY1eLGrA-w9-4" value="" style="rounded=0;whiteSpace=wrap;html=1;fillColor=none;dashed=1;strokeColor=light-dark(#580404, #ededed);" vertex="1" parent="1">
          <mxGeometry x="70" y="140" width="180" height="510" as="geometry" />
        </mxCell>
        <mxCell id="ZhbTsyseVTY1eLGrA-w9-5" value="Sources" style="rounded=0;whiteSpace=wrap;html=1;fontSize=19;strokeColor=none;" vertex="1" parent="1">
          <mxGeometry x="125" y="120" width="80" height="40" as="geometry" />
        </mxCell>
        <mxCell id="ZhbTsyseVTY1eLGrA-w9-7" value="" style="rounded=0;whiteSpace=wrap;html=1;fillColor=none;dashed=1;strokeColor=light-dark(#580404, #ededed);" vertex="1" parent="1">
          <mxGeometry x="310" y="140" width="600" height="510" as="geometry" />
        </mxCell>
        <mxCell id="ZhbTsyseVTY1eLGrA-w9-8" value="Data Warehouse" style="rounded=0;whiteSpace=wrap;html=1;fontSize=19;strokeColor=none;" vertex="1" parent="1">
          <mxGeometry x="520" y="120" width="172.5" height="40" as="geometry" />
        </mxCell>
        <mxCell id="2QCwJeMMzPczJVexIRF--1" value="" style="rounded=0;whiteSpace=wrap;html=1;fillColor=none;dashed=1;strokeColor=light-dark(#580404, #ededed);" vertex="1" parent="1">
          <mxGeometry x="950" y="140" width="170" height="520" as="geometry" />
        </mxCell>
        <mxCell id="2QCwJeMMzPczJVexIRF--2" value="Consume" style="rounded=0;whiteSpace=wrap;html=1;fontSize=19;strokeColor=none;" vertex="1" parent="1">
          <mxGeometry x="995" y="120" width="80" height="40" as="geometry" />
        </mxCell>
        <mxCell id="2QCwJeMMzPczJVexIRF--3" value="Bronze Layer" style="rounded=0;whiteSpace=wrap;html=1;fillColor=#ffe6cc;strokeColor=#d79b00;fontSize=20;fontStyle=1" vertex="1" parent="1">
          <mxGeometry x="340" y="160" width="150" height="40" as="geometry" />
        </mxCell>
        <mxCell id="2QCwJeMMzPczJVexIRF--5" value="" style="rounded=0;whiteSpace=wrap;html=1;fillColor=none;strokeColor=#d79b00;fontSize=20;" vertex="1" parent="1">
          <mxGeometry x="340" y="210" width="150" height="420" as="geometry" />
        </mxCell>
        <mxCell id="2QCwJeMMzPczJVexIRF--6" value="Silver Layer" style="rounded=0;whiteSpace=wrap;html=1;fillColor=#f5f5f5;strokeColor=#666666;fontSize=20;fontStyle=1;fontColor=#333333;" vertex="1" parent="1">
          <mxGeometry x="530" y="160" width="152.5" height="40" as="geometry" />
        </mxCell>
        <mxCell id="2QCwJeMMzPczJVexIRF--7" value="" style="rounded=0;whiteSpace=wrap;html=1;fillColor=none;strokeColor=#666666;fontSize=20;fontColor=#333333;" vertex="1" parent="1">
          <mxGeometry x="530" y="210.62" width="152.5" height="420" as="geometry" />
        </mxCell>
        <mxCell id="2QCwJeMMzPczJVexIRF--8" value="Gold Layer" style="rounded=0;whiteSpace=wrap;html=1;fillColor=#fff2cc;strokeColor=#d6b656;fontSize=20;fontStyle=1;" vertex="1" parent="1">
          <mxGeometry x="730" y="160" width="140" height="40" as="geometry" />
        </mxCell>
        <mxCell id="2QCwJeMMzPczJVexIRF--9" value="" style="rounded=0;whiteSpace=wrap;html=1;fillColor=none;strokeColor=#d6b656;fontSize=20;" vertex="1" parent="1">
          <mxGeometry x="730" y="210.62" width="140" height="420" as="geometry" />
        </mxCell>
        <mxCell id="2QCwJeMMzPczJVexIRF--10" value="&lt;b&gt;CRP&lt;/b&gt;" style="image;aspect=fixed;html=1;points=[];align=center;fontSize=12;image=img/lib/azure2/general/Folder_Blank.svg;" vertex="1" parent="1">
          <mxGeometry x="137.75" y="200" width="61.61" height="50" as="geometry" />
        </mxCell>
        <mxCell id="2QCwJeMMzPczJVexIRF--11" value="" style="image;aspect=fixed;html=1;points=[];align=center;fontSize=12;image=img/lib/azure2/general/Media_File.svg;" vertex="1" parent="1">
          <mxGeometry x="167.36" y="210.62" width="32" height="39.38" as="geometry" />
        </mxCell>
        <mxCell id="2QCwJeMMzPczJVexIRF--12" value="&lt;b&gt;ERP&lt;/b&gt;" style="image;aspect=fixed;html=1;points=[];align=center;fontSize=12;image=img/lib/azure2/general/Folder_Blank.svg;" vertex="1" parent="1">
          <mxGeometry x="136.78" y="290" width="56.44" height="45.8" as="geometry" />
        </mxCell>
        <mxCell id="2QCwJeMMzPczJVexIRF--13" value="" style="image;aspect=fixed;html=1;points=[];align=center;fontSize=12;image=img/lib/azure2/general/Media_File.svg;" vertex="1" parent="1">
          <mxGeometry x="167.76" y="297.42" width="31.19" height="38.38" as="geometry" />
        </mxCell>
        <mxCell id="2QCwJeMMzPczJVexIRF--17" value="" style="endArrow=none;html=1;rounded=0;" edge="1" parent="1">
          <mxGeometry width="50" height="50" relative="1" as="geometry">
            <mxPoint x="106.61000000000003" y="410" as="sourcePoint" />
            <mxPoint x="223.39" y="410" as="targetPoint" />
            <Array as="points">
              <mxPoint x="133.39" y="410" />
              <mxPoint x="176.61" y="410" />
            </Array>
          </mxGeometry>
        </mxCell>
        <mxCell id="2QCwJeMMzPczJVexIRF--19" value="&lt;b&gt;Object Type&lt;/b&gt;: CSV Files" style="text;html=1;align=center;verticalAlign=middle;whiteSpace=wrap;rounded=0;" vertex="1" parent="1">
          <mxGeometry x="100" y="430" width="130" height="30" as="geometry" />
        </mxCell>
        <mxCell id="2QCwJeMMzPczJVexIRF--20" value="&lt;b&gt;Interface&lt;/b&gt;: Files in Folders" style="text;html=1;align=center;verticalAlign=middle;whiteSpace=wrap;rounded=0;" vertex="1" parent="1">
          <mxGeometry x="90" y="460" width="145" height="30" as="geometry" />
        </mxCell>
        <mxCell id="2QCwJeMMzPczJVexIRF--23" value="" style="html=1;verticalLabelPosition=bottom;align=center;labelBackgroundColor=#ffffff;verticalAlign=top;strokeWidth=2;strokeColor=#d79b00;shadow=0;dashed=0;shape=mxgraph.ios7.icons.data;fillColor=#ffe6cc;" vertex="1" parent="1">
          <mxGeometry x="385.75" y="245.1" width="58.5" height="74.9" as="geometry" />
        </mxCell>
        <mxCell id="2QCwJeMMzPczJVexIRF--24" value="" style="html=1;verticalLabelPosition=bottom;align=center;labelBackgroundColor=#ffffff;verticalAlign=top;strokeWidth=2;strokeColor=#666666;shadow=0;dashed=0;shape=mxgraph.ios7.icons.data;fillColor=#f5f5f5;fontColor=#333333;" vertex="1" parent="1">
          <mxGeometry x="570" y="250" width="58.5" height="74.9" as="geometry" />
        </mxCell>
        <mxCell id="2QCwJeMMzPczJVexIRF--25" value="" style="html=1;verticalLabelPosition=bottom;align=center;labelBackgroundColor=#ffffff;verticalAlign=top;strokeWidth=2;strokeColor=#d6b656;shadow=0;dashed=0;shape=mxgraph.ios7.icons.data;fillColor=#fff2cc;" vertex="1" parent="1">
          <mxGeometry x="770.75" y="245.1" width="58.5" height="74.9" as="geometry" />
        </mxCell>
        <mxCell id="2QCwJeMMzPczJVexIRF--26" value="" style="shape=singleArrow;whiteSpace=wrap;html=1;fillColor=#dae8fc;strokeColor=#6c8ebf;" vertex="1" parent="1">
          <mxGeometry x="250" y="327.45" width="70" height="40" as="geometry" />
        </mxCell>
        <mxCell id="2QCwJeMMzPczJVexIRF--29" value="" style="shape=singleArrow;whiteSpace=wrap;html=1;fillColor=#dae8fc;strokeColor=#6c8ebf;" vertex="1" parent="1">
          <mxGeometry x="470" y="337.45" width="70" height="40" as="geometry" />
        </mxCell>
        <mxCell id="2QCwJeMMzPczJVexIRF--30" value="" style="shape=singleArrow;whiteSpace=wrap;html=1;fillColor=#dae8fc;strokeColor=#6c8ebf;" vertex="1" parent="1">
          <mxGeometry x="670" y="337.45" width="70" height="40" as="geometry" />
        </mxCell>
        <mxCell id="2QCwJeMMzPczJVexIRF--31" value="" style="shape=singleArrow;whiteSpace=wrap;html=1;fillColor=#dae8fc;strokeColor=#6c8ebf;" vertex="1" parent="1">
          <mxGeometry x="870" y="337.45" width="100" height="40" as="geometry" />
        </mxCell>
        <mxCell id="2QCwJeMMzPczJVexIRF--32" value="Raw Data" style="text;html=1;align=center;verticalAlign=middle;whiteSpace=wrap;rounded=0;fontSize=17;" vertex="1" parent="1">
          <mxGeometry x="368.56" y="320" width="92.87" height="50" as="geometry" />
        </mxCell>
        <mxCell id="2QCwJeMMzPczJVexIRF--33" value="Cleaned, Standardized Data" style="text;html=1;align=center;verticalAlign=middle;whiteSpace=wrap;rounded=0;fontSize=17;" vertex="1" parent="1">
          <mxGeometry x="545.34" y="324.9" width="114.66" height="70" as="geometry" />
        </mxCell>
        <mxCell id="2QCwJeMMzPczJVexIRF--34" value="Business-Ready Data" style="text;html=1;align=center;verticalAlign=middle;whiteSpace=wrap;rounded=0;fontSize=17;" vertex="1" parent="1">
          <mxGeometry x="746.47" y="317.45" width="107.06" height="80" as="geometry" />
        </mxCell>
        <mxCell id="2QCwJeMMzPczJVexIRF--51" value="" style="endArrow=none;html=1;rounded=0;" edge="1" parent="1">
          <mxGeometry width="50" height="50" relative="1" as="geometry">
            <mxPoint x="470" y="370" as="sourcePoint" />
            <mxPoint x="360" y="370" as="targetPoint" />
          </mxGeometry>
        </mxCell>
        <mxCell id="2QCwJeMMzPczJVexIRF--52" value="&lt;b&gt;Object Type&lt;/b&gt;: Tables" style="text;html=1;align=center;verticalAlign=middle;whiteSpace=wrap;rounded=0;" vertex="1" parent="1">
          <mxGeometry x="350" y="380" width="120" height="30" as="geometry" />
        </mxCell>
        <mxCell id="2QCwJeMMzPczJVexIRF--53" value="Load:" style="text;html=1;align=center;verticalAlign=middle;whiteSpace=wrap;rounded=0;fontStyle=1" vertex="1" parent="1">
          <mxGeometry x="340" y="410" width="68.76" height="34.38" as="geometry" />
        </mxCell>
        <mxCell id="2QCwJeMMzPczJVexIRF--54" value="&lt;div&gt;&lt;ul&gt;&lt;li&gt;Batch Processing&lt;/li&gt;&lt;li&gt;Full Load&lt;/li&gt;&lt;li&gt;Truncate &amp;amp; Insert&lt;/li&gt;&lt;/ul&gt;&lt;/div&gt;" style="text;html=1;align=left;verticalAlign=middle;whiteSpace=wrap;rounded=0;" vertex="1" parent="1">
          <mxGeometry x="335" y="440" width="150" height="50" as="geometry" />
        </mxCell>
        <mxCell id="2QCwJeMMzPczJVexIRF--55" value="No &lt;b&gt;Transformations&lt;/b&gt;" style="text;html=1;align=center;verticalAlign=middle;whiteSpace=wrap;rounded=0;" vertex="1" parent="1">
          <mxGeometry x="350" y="530" width="120" height="30" as="geometry" />
        </mxCell>
        <mxCell id="2QCwJeMMzPczJVexIRF--56" value="&lt;b&gt;Data Model&lt;/b&gt;: None as-is" style="text;html=1;align=center;verticalAlign=middle;whiteSpace=wrap;rounded=0;" vertex="1" parent="1">
          <mxGeometry x="345" y="550" width="140" height="30" as="geometry" />
        </mxCell>
        <mxCell id="2QCwJeMMzPczJVexIRF--62" value="" style="endArrow=none;html=1;rounded=0;" edge="1" parent="1">
          <mxGeometry width="50" height="50" relative="1" as="geometry">
            <mxPoint x="662.67" y="397.45" as="sourcePoint" />
            <mxPoint x="552.67" y="397.45" as="targetPoint" />
          </mxGeometry>
        </mxCell>
        <mxCell id="2QCwJeMMzPczJVexIRF--63" value="&lt;b&gt;Object Type&lt;/b&gt;: Table" style="text;html=1;align=center;verticalAlign=middle;whiteSpace=wrap;rounded=0;" vertex="1" parent="1">
          <mxGeometry x="547.67" y="403.07" width="110" height="30" as="geometry" />
        </mxCell>
        <mxCell id="2QCwJeMMzPczJVexIRF--64" value="Load:" style="text;html=1;align=center;verticalAlign=middle;whiteSpace=wrap;rounded=0;fontStyle=1" vertex="1" parent="1">
          <mxGeometry x="520" y="420" width="68.76" height="34.38" as="geometry" />
        </mxCell>
        <mxCell id="2QCwJeMMzPczJVexIRF--65" value="&lt;div&gt;&lt;ul&gt;&lt;li&gt;Batch Processing&lt;/li&gt;&lt;li&gt;Full Load&lt;/li&gt;&lt;li&gt;Truncate &amp;amp; Insert&lt;/li&gt;&lt;/ul&gt;&lt;/div&gt;" style="text;html=1;align=left;verticalAlign=middle;whiteSpace=wrap;rounded=0;" vertex="1" parent="1">
          <mxGeometry x="515" y="444.38" width="150" height="50" as="geometry" />
        </mxCell>
        <mxCell id="2QCwJeMMzPczJVexIRF--67" value="&lt;b&gt;Data Model&lt;/b&gt;: None as-is" style="text;html=1;align=center;verticalAlign=middle;whiteSpace=wrap;rounded=0;" vertex="1" parent="1">
          <mxGeometry x="536.25" y="600" width="140" height="30" as="geometry" />
        </mxCell>
        <mxCell id="2QCwJeMMzPczJVexIRF--68" value="&lt;b&gt;Transformations:&lt;/b&gt;" style="text;html=1;align=center;verticalAlign=middle;whiteSpace=wrap;rounded=0;" vertex="1" parent="1">
          <mxGeometry x="530" y="490" width="120" height="30" as="geometry" />
        </mxCell>
        <mxCell id="2QCwJeMMzPczJVexIRF--70" value="&lt;ul&gt;&lt;li&gt;&lt;font&gt;Data Cleaning&lt;/font&gt;&lt;/li&gt;&lt;li&gt;&lt;font&gt;Data Standardization&lt;/font&gt;&lt;/li&gt;&lt;li&gt;&lt;span&gt;Data Normalization&lt;/span&gt;&lt;/li&gt;&lt;li&gt;&lt;span&gt;Dervied Columns&lt;/span&gt;&lt;/li&gt;&lt;li&gt;&lt;span&gt;Data Enrichment&lt;/span&gt;&lt;/li&gt;&lt;/ul&gt;" style="text;html=1;align=left;verticalAlign=middle;whiteSpace=wrap;rounded=0;fontSize=11;" vertex="1" parent="1">
          <mxGeometry x="523.92" y="510" width="146.08" height="90" as="geometry" />
        </mxCell>
        <mxCell id="2QCwJeMMzPczJVexIRF--71" value="" style="endArrow=none;html=1;rounded=0;" edge="1" parent="1">
          <mxGeometry width="50" height="50" relative="1" as="geometry">
            <mxPoint x="856.4200000000001" y="394.9" as="sourcePoint" />
            <mxPoint x="746.4200000000001" y="394.9" as="targetPoint" />
          </mxGeometry>
        </mxCell>
        <mxCell id="2QCwJeMMzPczJVexIRF--72" value="&lt;b&gt;Object Type&lt;/b&gt;: Table" style="text;html=1;align=center;verticalAlign=middle;whiteSpace=wrap;rounded=0;" vertex="1" parent="1">
          <mxGeometry x="741.4200000000001" y="400.52" width="110" height="30" as="geometry" />
        </mxCell>
        <mxCell id="2QCwJeMMzPczJVexIRF--73" value="No Load" style="text;html=1;align=center;verticalAlign=middle;whiteSpace=wrap;rounded=0;fontStyle=1" vertex="1" parent="1">
          <mxGeometry x="730" y="419.99999999999994" width="68.76" height="34.38" as="geometry" />
        </mxCell>
        <mxCell id="2QCwJeMMzPczJVexIRF--75" value="&lt;b&gt;Data Model&lt;/b&gt;:&amp;nbsp;" style="text;html=1;align=center;verticalAlign=middle;whiteSpace=wrap;rounded=0;" vertex="1" parent="1">
          <mxGeometry x="713.53" y="519.9999999999999" width="140" height="30" as="geometry" />
        </mxCell>
        <mxCell id="2QCwJeMMzPczJVexIRF--76" value="&lt;b&gt;Transformations:&lt;/b&gt;" style="text;html=1;align=center;verticalAlign=middle;whiteSpace=wrap;rounded=0;" vertex="1" parent="1">
          <mxGeometry x="723.75" y="439.99999999999994" width="120" height="30" as="geometry" />
        </mxCell>
        <mxCell id="2QCwJeMMzPczJVexIRF--77" value="&lt;ul&gt;&lt;li&gt;Data Integration&lt;/li&gt;&lt;li&gt;Aggregations&lt;/li&gt;&lt;li&gt;Business Logics&lt;/li&gt;&lt;/ul&gt;" style="text;html=1;align=left;verticalAlign=middle;whiteSpace=wrap;rounded=0;fontSize=12;" vertex="1" parent="1">
          <mxGeometry x="713.5300000000001" y="439.99999999999994" width="146.08" height="90" as="geometry" />
        </mxCell>
        <mxCell id="2QCwJeMMzPczJVexIRF--78" value="&lt;ul&gt;&lt;li&gt;Star Schema&lt;/li&gt;&lt;li&gt;Flat Table&lt;/li&gt;&lt;li&gt;Aggregated Table&lt;/li&gt;&lt;/ul&gt;" style="text;html=1;align=left;verticalAlign=middle;whiteSpace=wrap;rounded=0;" vertex="1" parent="1">
          <mxGeometry x="722.43" y="530" width="137.18" height="70" as="geometry" />
        </mxCell>
        <mxCell id="2QCwJeMMzPczJVexIRF--79" value="" style="shape=image;imageAspect=0;aspect=fixed;verticalLabelPosition=bottom;verticalAlign=top;image=data:image/png,iVBORw0KGgoAAAANSUhEUgAAAgAAAAIACAYAAAD0eNT6AAAABHNCSVQICAgIfAhkiAAAAAlwSFlzAAAN1wAADdcBQiibeAAAABl0RVh0U29mdHdhcmUAd3d3Lmlua3NjYXBlLm9yZ5vuPBoAAAxkSURBVHic7d0/b1RnGsbhewZYj4jRZovV4hXlNi5SRnQocpnG6Sn8GdIjF1G25jNQ0JsmJdJOh1KmSBMpDVpHSrEFBIGy5GxxbAVYEtBumNfxfV3SNJ6x9BQjvb/znj+zmKYpAPyKO4utJHtJ9pPsJtk5eW2PHIt6j5Mcn7y+TnIvyf0cTM/e5p8XAgDgF9xZ7CQ5THIzyZXB08DbeJTkbpLPcjAd/9oHBQDAq+4sVkluJfk0yeXB08D/4kmS20k+z8H09HUfEAAAL7qzuJrkKMn10aPAb+BBkk9yMH336hsCAODUncUHSb5Icm30KPAbepjk4xxMX734RwEAkJwe+X8Ziz/n08MkH764E7AcOAzA2TCf8z+KxZ/z61qSo5PvehIBAJDMF/w55895dz3zdz2JUwBAu/lWv2/ian86PEnytxxMx3YAgHaHsfjT43Lm77wdAKDY/IS/7+MhP3R5lOTPdgCAZnux+NPnSpI9AQA02x89AAyyLwCAZrujB4BBdgUA0Gxn9AAwyI4AAJoJAFoJAKDa9ugBYJBtAQAAhQQAABQSAABQSAAAQCEBAACFBAAAFBIAAFBIAABAIQEAAIUEAAAUEgAAUEgAAEAhAQAAhQQAABQSAABQSAAAQCEBAACFBAAAFBIAAFBIAABAIQEAAIUEAAAUEgAAUEgAAEAhAQAAhQQAABQSAABQSAAAQCEBAACFBAAAFBIAAFBIAABAIQEAAIUEAAAUEgAAUEgAAEAhAQAAhQQAABQSAABQSAAAQCEBAACFBAAAFBIAAFBIAABAIQEAAIUEAAAUEgAAUEgAAEAhAQAAhQQAABQSAABQSAAAQCEBAACFBAAAFBIAAFBIAABAIQEAAIUEAAAUEgAAUEgAAEAhAQAAhQQAABQSAABQSAAAQCEBAACFBAAAFBIAAFBIAABAIQEAAIUEAAAUEgAAUEgAAEAhAQAAhQQAABQSAABQSAAAQCEBAACFBAAAFBIAAFBIAABAIQEAAIUEAAAUEgAAUEgAAEAhAQAAhQQAABQSAABQSAAAQCEBAACFBAAAFBIAAFBIAABAIQEAAIUEAAAUEgAAUEgAAEAhAQAAhQQAABQSAABQSAAAQCEBAACFBAAAFBIAAFBIAABAIQEAAIUEAAAUEgAAUEgAAEAhAQAAhQQAABQSAABQSAAAQCEBAACFBAAAFBIAAFBIAABAIQEAAIUEAAAUEgAAUEgAAEAhAQAAhQQAABQSAABQSAAAQCEBAACFBAAAFBIAAFBIAABAIQEAAIUEAAAUEgAAUEgAAEAhAQAAhQQAABQSAABQSAAAQCEBAACFBAAAFBIAAFBIAABAIQEAAIUEAAAUEgAAUOji6AHgraxXW0n2kuwn2U2yc/LaHjkWwO+VAOBsW692khwmuZnkyuBpAM4NAcDZtF6tktxK8mmSy4OnATh3BABnz3p1NclRkuujRwE4rwQAZ8t69UGSL5JcGz0KwHnmLgDOjvnI3+IPsAECgLNhPud/FIs/wEYIAM6KW3HOH2BjFtM0jZ6BdvOtft/E1f5s2rfPRk8Aw9gB4Cw4jMUfYKPsADDW/IS/7+MhP4xgB4BidgAYbS8Wf4CNEwCMtj96AIBGAoDRdkcPANBIADDazugBABoJAEYTAAADCABG2x49AEAjAQAAhQQAABQSAABQSAAAQCEBAACFBAAAFBIAAFBIAABAIQEAAIUEAAAUEgAAUEgAAEAhAQAAhQQAABQSAABQSAAAQCEBAACFBAAAFBIAAFBIAABAIQEAAIUEAAAUEgAAUEgAAEAhAQAAhQQAABQSAABQSAAAQCEBAACFBAAAFBIAAFBIAABAIQEAAIUEAAAUEgAAUEgAAEAhAQAAhQQAABQSAABQSAAAQCEBAACFBAAAFBIAAFBIAABAIQEAAIUEAAAUEgAAUEgAAEAhAQAAhQQAABQSAABQSAAAQCEBAACFBAAAFBIAAFBIAABAIQEAAIUEAAAUEgAAUEgAAEAhAQAAhQQAABQSAABQSAAAQCEBAACFBAAAFBIAAFBIAABAIQEAAIUEAAAUEgAAUEgAAEAhAQAAhQQAABQSAABQSAAAQCEBAACFBAAAFBIAAFBIAABAIQEAAIUEAAAUEgAAUEgAAEAhAQAAhQQAABQSAABQSAAAQCEBAACFBAAAFBIAAFBIAABAIQEAAIUEAAAUEgAAUEgAAEAhAQAAhQQAABQSAABQSAAAQCEBAACFBAAAFBIAAFBIAABAIQEAAIUEAAAUEgAAUEgAAEAhAQAAhQQAABQSAABQSAAAQCEBAACFBAAAFBIAAFBIAABAIQEAAIUEAAAUEgAAUEgAAEAhAQAAhQQAABQSAABQSAAAQCEBAACFBAAAFBIAAFBIAABAIQEAAIUEAAAUEgAAUEgAAEAhAQAAhQQAABQSAABQSAAAQCEBAACFBAAAFBIAAFBIAABAIQEAAIUEAAAUEgAAUOjiW39yvdpKspdkP8lukp2T1/Y7mQwAeGfeHADr1U6SwyQ3k1x51wMBAO/eLwfAerVKcivJp0kub2ogAODde30ArFdXkxwlub7RaQCAjfjvAFivPkjyRZJrG58GANiIl+8CmI/8Lf4AcM79HADzOf+jWPwB4Nx7cQfgVpzzB4AKi2maTm/1+yau9geafPts9AQwzOkOwGEs/gBQYzH9Y2sryffxkB+gjR0Aii0zP97X4g8ARZaZn+0PABRZZv5hHwCgyDLzL/oBAEUEAAAUWibZHj0EALBZyzd/BAA4bwQAABQSAABQSAAAQCEBAACFBAAAFBIAAFBIAABAIQEAAIUEAAAUEgAAUEgAAEAhAQAAhQQAABQSAABQSAAAQCEBAACFBAAAFBIAAFBIAABAIQEAAIUEAAAUEgAAUEgAAEAhAQAAhQQAABQSAABQSAAAQCEBAACFBAAAFBIAAFBIAABAIQEAAIUEAAAUEgAAUEgAAEAhAQAAhQQAABQSAABQSAAAQCEBAACFBAAAFBIAAFBIAABAIQEAAIUEAAAUEgAAUEgAAEAhAQAAhQQAABQSAABQSAAAQCEBAACFBAAAFBIAAFBIAABAIQEAAIUEAAAUEgAAUEgAAEAhAQAAhQQAABQSAABQSAAAQCEBAACFBAAAFBIAAFBIAABAIQEAAIUEAAAUEgAAUEgAAEAhAQAAhQQAABQSAABQSAAAQCEBAACFBAAAFBIAAFBIAABAIQEAAIUEAAAUEgAAUEgAAEAhAQAAhQQAABQSAABQSAAAQCEBAACFBAAAFBIAAFBIAABAIQEAAIUEAAAUEgAAUEgAAEAhAQAAhQQAABQSAABQSAAAQCEBAACFBAAAFBIAAFBIAABAIQEAAIUEAAAUEgAAUEgAAEAhAQAAhQQAABQSAABQSAAAQCEBAACFBAAAFBIAAFBIAABAIQEAAIUEAAAUEgAAUEgAAEAhAQAAhQQAABQSAABQSAAAQCEBAACFBAAAFBIAAFBIAABAIQEAAIUEAAAUEgAAUEgAAEAhAQAAhQQAABQSAABQSAAAQCEBAACFBAAAFBIAAFBIAABAIQEAAIUEAAAUEgAAUEgAAEAhAQAAhQQAABQSAABQSAAAQCEBAACFBAAAFBIAAFBIAABAIQEAAIUEAAAUEgAAUEgAAEAhAQAAhQQAABQSAABQaJnk8eghAIZwCESvx8skx6OnABjiwmL0BDDKsQAAegkAeh0vk3w9egqAIS4JAGp9vUxyb/QUAEO85yIAat1bJrmf5NHoSQA2brV0ISCNHiW5v8yNp8+S3B09DcDGLZK8d2H0FLBpd3MwPTtt38+SPBk5DcAQf7owhwB0eJJ5zT/Z/Lrx9DjJ7YEDAYxxYZH80S4ANW7nYDpOXj779XmSB2PmARjo/YvJlosBOPceZF7rkySLaZp+fmu9uprkyyTXNj4WwEjPp+SfPyb/nt78Wfj9eZjkwxxM353+4eXkvfH0uyQfn3wQoMeFRfKXS8lFFwRw7jxM8vGLi3/yuhtgbjz9KsmHcToAaPOHRfLXS04HcJ48yHzk/9Wrb7z+Wz7vBHyU5O9xdwDQ5MIi2bmUvO/uAH7XnmRewz969cj/1MvXALzOerWT5DDJzSRXfuMBAc6u51Pyr+fJD8+Tn0YPA2/lUeZn+3x2erX/L3lzAJxar7aS7CXZT7KbZOfktf3/TApw5k1Jnv6U/PBT8uM0h8HzSRQw2uPMP+h3nPl3fe4luZ+D6dnb/PN/AG0Y7RrEx9yAAAAAAElFTkSuQmCC;" vertex="1" parent="1">
          <mxGeometry x="980" y="238" width="52" height="52" as="geometry" />
        </mxCell>
        <mxCell id="2QCwJeMMzPczJVexIRF--80" value="" style="shape=image;imageAspect=0;aspect=fixed;verticalLabelPosition=bottom;verticalAlign=top;image=data:image/png,iVBORw0KGgoAAAANSUhEUgAAAgAAAAIACAYAAAD0eNT6AAAABHNCSVQICAgIfAhkiAAAAAlwSFlzAAAOxAAADsQBlSsOGwAAABl0RVh0U29mdHdhcmUAd3d3Lmlua3NjYXBlLm9yZ5vuPBoAACAASURBVHic7d15mFxlmf7x+znVnX3rsA4CIsqO4gISEZDNBVQQQnXCkt4Sgqio4ziKojPtKCM6OirgFrJ0OkBIVxYCKjIiQWVJEEVEhSCbYZUl6exJd9V5fn8k+EMlSae7Tr2n6nw/18XFXELOc9PJ9Hv3W+e8RwIAAAAAAAAAAAAAAAAAAAAAAAAAAAAAAAAAAAAAAAAAAAAAAAAAAAAAAAAAAAAAAP/IQgcAAGBnTP2h1780RIdH0oHuOiCKdLC79pc0VtLwrX+N0ZY1bpWk9Vv/6pb0hEkPybXccloeD9aDhUbbGOq/JSQKAAAg1U5Y4nW7PqW3R7FOcOldkt6pLYt8OWyWtFSm2yTdpiG6p9BoPWW6dqpRAAAAqTS+ww8z0yRztci0R4XGrpG02KTOrib9XGZeobkVRwEAAKRG/oc+WkN1kVxtkg4IHOcJuTqLkb67qMmeD5yl7CgAAIDg8jN9N8vpoy59XFJD6Dz/YLNMs3NFfeX6NnsydJhyoQAAAII57xof1VPSf0r6iKQhofPsQI9Js7ykLxba7IXQYQaKAgAACKKx0z/oru9K2id0lp3ULaldQ3VVodFKocP0FwUAAFBR+Tl+kEq6WqbjQmcZoHuiSFPnTbL7Qwfpjyh0AABAdpzd4U2KdW8NLP6S9PY41rL8bP9E6CD9wQ4AACBx+S4f6pt0ubk+HjpLIlw31Ner7brzbFXoKH1FAQAAJCrf6fsq1s0yHRo6S8IeiWOdtqDV/hw6SF/wEQAAIDH5a/xQue7IwOIvSW+IIi2dMMvHhQ7SFxQAAEAixnf60SrpF6q+u/wHYmwc6dbGTn9v6CA7wkcAAICyy3f6u+S6WdLQ0FkC6XHpQ/Ob7ebQQbaFAgAAKKv8LH+jIv1C6TvRr9I2mOs9XS12Z+ggr4YCAAAom3ynv06uOyX9S+gsKfFSZDpuXpM9GDrIP6IAAADKIj/dx6peSxX+JT5ps6JoOiptLxTiJkAAwMC5m+o1XSz+r2bfOtfcfJfnQgd5JQoAAGDAGmfrYklnhs6RYifZRn02dIhX4iMAAMCATJjjb41j3SVpcOgsKVf0SCfNn2S/Ch1EogAAAAZg6g+9ftVg/S4jB/2Uw6PDYx3e0WqbQgfhIwAAQL+tGqJPsvjvlNdviHRJ6BASOwAAgH7Kz/I9FWm5pFGhs1SZzZH0pnnN9nDIEOwAAAD6xUzfEot/fwyOpW+FDsEOAABgp42f7W+KpN+JdaTfPNI750+yu0LNZwcAALDTTLpELP4DYqWw9wLwmwcA2CnjZ/r+UU7LJdWFzlLtokhvmzfJfhtkdoihAIDqZZH+XSz+ZRHH+kyo2ewAAAD6bFKnD9/kek7SiNBZakRPUdprUbO9VOnB7AAAAPpss+tMsfiX06B6Uz7EYAoAAKDP3HRe6Ay1xl2TQszlIwAAQJ9sPfjnSfH5f7m5Ih1YmGSPVHIoOwAAgL7J6f1i8U+CeaxTKz2UAgAA6BN3nRA6Q60y6cRKz6QAAAD6xKTjQ2eoYSfmuzxXyYEUAADADuXn+Bsk7Rs6Rw0bE23WEZUcSAEAAOyQl3RM6Ay1rhRrXCXnUQAAADsURTo4dIZaZ9KBlZxHAQAA7JBXeHHKqIqWLAoAAGDHXAeFjpABFf0aUwAAANvnbpJeHzpGBux76hU+uFLDKAAAgO06faZGSBoaOkcGREPGaHTFhlVqEACgOtUN4uU/lVJnGlWpWRQAAMB21ccaGTpDVsQV/FpTAAAA2xexA1ApOacAAABSIo55AVDFmAZVahQFAACwfTmtCx0hK0qmtZWaRQEAAGxXSVoTOkNWRBEFAACQErn1lVuUsq6SZYsCAADYrsOe1VpJcegcWVDJsmWVGgQAqF752b5C0j6hc9S4NYVm4yAgAECKuB4KHaHmmZZXchwFAACwQx7pwdAZal6FSxYFAACwQ5EoAIljBwAAkDYu/SF0hlrnXtmvMQUAALBjQ3SPxIFACYqtV7+q5EAKAABghwqN1iNVdoHKmPsKU2xlJQdSAAAAfXVr6AA17LZKD6QAAAD6JtbPQkeoWTEFAACQUoVWe0DiPIAEvKThFAAAQIq5qzN0hho0d+s9FhVFAQAA9Jm5Zkkqhs5RY+aEGEoBAAD0WaHVnpPpltA5asjyQrPdE2IwBQAA0Gft7R6568XQOWqFmb4danZdqMEAgOoyqdOH/9HVadJZobPUiGeHldQRajgFAACwQ/nZ/ppNrsWS3hY6S61w09c7Wm1TqPl8BAAA2K6z5/gxcv1GLP7l9PzmjZoWMgAFAACwTWd3+kSLdatMe4TOUlNMn7/pQtsQMgIFAADwz9ytcba3m2uupKGh49QU068Pe0yzwscAAOAV8l0+Qht1jaQzQmepQaVYOmpBs90XOgg3AQIA/ibf6a/TRt0o6fDQWWrUd9Kw+Et8BAAA2Kqxw98p11Kx+Cfl/uGxLg0d4mWZ/gjAXabfNO2j3roDJT9A5gdK0Z4yH67Yhsk0RuaRXD2S1kq+WrL1klZIWq44eliljX+2465bFfg/BQAGJN/pk+X6nqRBobPUqLWRdOS8Zns4dJCXZaoA+JL2Og1bcZRc75L8BEnvlDSiDJd+UrLbpfh25aLb7aiZj5XhmgCQuHyX53yjLjPps6Gz1DTTeYUmuy50jFeq+QLgS9rrNPSJ98jtPJlOV3kW/B1NfVwezZX5tTZu1p+SnwcAO+/0GT5ycE7XyvTB0FlqmUlf6mq29tA5/lHNFgC/e8ohstKHJU2UtHuwIKb75NYpbZ5p465dEywHALzChA5/fSzdKNOhobPUNNO0QpNdGDrGq6m5AuD3tLxZcfQpyc+VlAud5xXWSpqlon3Njp35TOgwALIr3+knyVWQNDbBMa4aXGN20kINVWOh0Uqhg7yamvnN8XtajlIp+qrMTw6dZQc2SrpacfQlO2bGytBhAGRLvsMvkuk7kuoTHLMiNo2PYn1UppYE56TZjcNjTQh51v+OVH0B8F+d26D6we2SPqp0/cS/A7ZKir+kFeuvssZCKtshgNpRwZv97lKs8YVWe27LaYK63E2fSXhmqpip8/l9NPn2E60YOsv2VG0BcJdpWdsFkn9VyW5jJcv1a1l8kY2b/ZvQUQDUpnOv9YbeoroknZLkHDNdO6ykKf/4U29+tn9C0rdUxWtOX7npivmT9EmZeegsO1KVvxm+rGkXxbkOmT4QOkuZFOV2mcbt+19m7XHoMABqR36OH6RYN0k6IMExRUmfLjTbd7b1L5zd6WeZa4akMQnmCGmDuz42v8WCn/HfV1VXAPzu1qNlul7SfqGzJOBWRT7J3t7xXOggAKpffo6/W7G6lOyiu0qRJhQm2c92mKfT95VrnqRxCeYJ4aFYmrCg2X4fOsjOqKqjgH1p27/JdIdqc/GXpFMU2699aTPv3AYwII0d/nHF+omSXfwfjGMd3ZfFX5IKTbZi3Wqd4KYrJNXEbqdLM4eYjqy2xV+qkh0Ad5mWtl6u7NxIsk6x5+2Yjp+GDgKgupywxOt2W6FvSfpYooNMP+0t6ZwbWq27P798whx/axzre5KOLnOySvmzmS7uarJbQgfpr9QXgC0n+f3lh5LaQmepsB7Jm21cx/WhgwCoDvnpPlb1Kkg6Kck5brrChuhTA32+vb3doz/sp/PN9L+SdilTvKRtMOl/1q7WV2/+uG0OHWYgUl0A/N6p9Sr2LJLs/aGzBBLL/cP2jo6rQwcBkG4TZvuBsXSjpIMSHLNZpg8XmqyjnBc97xof1VvSRS59Rul9qmu9m2aY6+uFZns6dJhySG0B2LrtP0um5tBZAotlPtGO7iiEDgIgnfId/n6ZrpM0KsExz8amMxc02bKkBpw+w0cOyukikz4l0x5JzdlJ3Wa6qtf17UXN9lLoMOWU3gKwrO2bcv9U6Bwp0SP5B2xcR59utAGQHVufsf+mkj0I7XcynVFoshUJzvibfJfnbKNOdKlJ0nhJwyox9xVKkpa4a87QSAvmNNn6Cs+viFQWAF/W+hm5vhY6R8qsVuzH2TEdD4QOAiC8U6/wwSNG6QdJH7Xr0lwbqsmFRtuY5Jxt+dAsH1MX6WwzvW/Lq9y1ayKDTKsV65cy/V/R1LWoyZ5PZE6KpK4A+F2t71Kkn6uqjvWtmEeknrfxVkEg287s9N3rXAslvTPBMbG7vjC/WZen5VS79naPHny93lhynSjX2006UFv+GrmTl9ogabmkh026z6UlGqrfpPWlPUlJVQHwX7bupkH6naS9QmdJsXk2btbE0CEAhDF+tr8p2nKz32sTHLPWTOd1NdlNCc4om4kzfK84pze4NEaRRijWCJfGRCZz1ypFWqdY69y1xnJ6rDBJT6al1ISUmgLg3h5p2V9+Ium9obOkn0+2cR0zQ6cAUFmNnX6au+YqyZv9TI9F0hnzmuwPic1AKqTnJMBlT1wsFv8+sit92ZTXhU4BoHLys/0T7rpJSS7+rl8VpXew+GdDXegAkuRLp+whlb4UOkcVGSYvfVvSGaGDAEjWqVf44JFjNM1dTYkOMk1r2KSPTbvQehOdg9RIxUcAvrR1jqTzQ+eoOhZ9wI6e8ePQMQAk45zrfNdijxbKdFyCY4oufWp+s12Z4AykUPAC4EvbjpX8l2nIUnVMj2qDH24ndmza8b8MoJpMmONHxLEWK9mb/V6SqbHQZLclOAMplYJ7APwbYvHvH9frNTT6cOgYAMqrscPHx7HuVJKLv+kBmY5i8c+uoAXAl7WepOp9E1RK+L/5H/ODQqcAUAbu1jjbP+umLknDE5tj+vGgSMcWmuzxxGYg9cLuALguCTq/NuyttcO5fwKoci2zfMjZnep06XIl973ZXfraYY/p9GvPNw4Uy7hgW+9+T8ubFdtvQ2aoGaZH9Zd1B1ljIVOnWAG1YuIM36tUrxvkOirBMZtMuqCr2a5JcAaqSLgdgJJ9Uiz+5eF6vfYZ+Z7QMQDsvPwsf3OpTksTXvyfjmIdz+KPVwpSAPyu/FCZPhRids0yPzd0BAA7p7HDGxXpTkn7JDjmbsU6cl6r/TrBGahCYXYAciM+JGl0kNm160xf8pERoUMA6IP/f7Pf9Ur2VbfXaahOLrTacwnOQJUKcxKg+3ns/pfdcA3ZdIaka0MHAbBtkzp9+KYtN/udleCYkkmXdjUbr1XHNlV8B8DvaBspGZ9XJ8F0dugIALYtP9tfs8n1CyW7+K8105ks/tiRyn8EUBcfJ6m+4nMzwY93b0/B4U4A/tGEWT5O0r2S3pbgmEci09HV8hpfhFX5xcLtXRWfmR1jdfeTR4QOAeDvnd3pE+NIt0naM8Ex/9cb66h5TfZggjNQQypfAMxPqPjMLMnFJ4SOAGCrLTf7tZtrrqShic0xTXthX73/hlbrTmwGak5FbwL0+ycN10Z7ayVnZo7b8ZK+FToGkHX5Lh+h2ZrjyT7yvNldF81vtlkJzkCNquxTAOsHHagoDvPkQWb4IaETAFl31jW+tzZosUxJ/sDzokxnz2+2XyQ4AzWssh8BWHxgRedl0/5+71RusgQCOXuOH5Mr6t6EF//7S3U6stDE4o/+q3ABMApA8upV7NkvdAggi/KdPtliLZFpj6RmmFTYtEnHLDzP/pLUDGRDhbfjnQJQCWYHSfpz6BhAVuS7POeb9D9y/WuCY2KZ/qNrkv5bZp7gHGREpZ8CSPIRGPyNJfbTB4C/d941PkobtMiSXfzXSTq70GSXsfijXCp9Qx5n1VeCa2ToCEAWjJ/lB/SUtFimJG++fTKK9KF5k+y3Cc5ABlV6B4CFqTL4OgMJa+z090aR7pESXfzvKJqOZPFHEipdANgBqIiYAgAkKN/hU931I0ljEhtimqahOnlRkz2f2AxkWqU/AhhS4XnZ5JbciWNAhp16hQ8eOVrfd6k1wTFFk77Q1cTLfJCsSj8FsIHXAFdAZOtDRwBqTX6m76ac5rt0fIJjVrqrsdBiP09wBiCp4gXA1lV2XkbFvjZ0BKCW5Gf5mxXpBkmvTXDMckU6Y/4kW57gDOBvKnwQkFiYKoOvM1AmjR3eqEh3KtnF/2Zt0tEFFn9UUGULgLMwVQRFCxi4LW/y+6ybrpc0LLExpisOe1wfKFxoq5OaAbyayn4E4P6UjHsAkudPhU4AVLN8l49QpzpdOjPBMZvcdeH8Zuucn+AQYFsq/RQAx9NWQin3cOgIQLUaP9P310YtlnR4gmOekXTm/Ba7J8EZwHZV9iOAKGJhSt5GHbPPk6FDANWocbafGOV0j5Jd/JeWIh1ZaGbxR1gVvgfAucEleY+YtcehQwDVJt/hU126RdIuSc1waa6G6qSFk+zZpGYAfVXZjwBGrntEa0dslMRBNUlxPRA6AlBNTljidbs+qW/K9fEEx5RMurTQzOE+SI+K35HnS1tvk3RipedmxYa7e57v/UPv/+bqe2eN/MEijhAFtuPM2b5LndQl6aQEx6xx6bz5zfajBGcAO63S7wKQpNsDzMyM4pOl3V26vNhbv6J7cuPcVW2NJzrHLwL/JD/L31gn/VrJLv5/jmMdzeKPNKr8DsA9k49XHP+i0nOzIN4Qa821G1/tHz1s7tNzro6RswovVDoXkDaNnX6au+ZKGpXgmJt7Y517Q6t1JzgD6LfK7wC8OGyZJI4ETkDx6W3e+3egm329GNlTKydPuL57Sv4kdgWQSS8f7uO6SQku/i8f7sPijzQLsgj40tY5ks4PMbuWrb9ls3pXFPv6rz9i0nTuFUBWtMzyIesiXW3Jfu/ZcrhPi3UmOAMoizAF4K6W9ymym0PMrlW+ybX62g3Szj8A2CNpsbmmjZ7Z9XOTvPzpgLDys/01Mi2S66gExzwdxTpzXqv9OsEZQNmEKQBL2us09C9PStozxPxatPmPvdp4V88Ar2J/No+vzg0qzmZXALUiP9vfIWmhkv1+c7dinVVotecSnAGUVbDPgX1py7ck+2So+bVm3eKNKj5ftvN/etx0Q+TRtNEzrr+NXQFUq3ynnyvXdCV49oiZrvUhuqDQaK96B25muNtZ12nfXEn7uWuYTCNCR0qDSFofl7TBcvrLYY/pL+3tlpqD2sIVgGVTXicvPazKv4+g5pSej7V2cVLfe+zPJp+eq+/tYFcA1SLf5TnfqMtM+myCY0omXdqV0cN92ts9+tPr9C6Z3u2uEyUdIQ5525HNku431+2e060arNsKjVYKFSboneB+d+u1Mp0bMkMtWH/LJvWuSPzPELsCqArnXeOjeoq6RqYPJjhmpUkTuprt1gRnpNLEGb5XqU4XS5ok6TWh81S558x1bbFeVy48z/5S6eFhC8DS1kMlPaAwBxLVhNKqWGsXbKz0cswTBEil8bP8gCjSYkmHJDhmuSKdUZhkmXq3yTnX+R6lXn3JpRZJg0PnqTG9Jl3j0hcLzfZ0pYYGfxbcl7YulnR66BzVasNtm9XzaJ8f/Ss3niBAajR2+nvddb2kMQmO+Yk26dzChbY6wRnp4m6Nc/QRd31FyX5tIa1zU7sN0bcr8dFACgpAywEye0BOo9xZpRe2fvafjmWXXYEUWj05P7ZkucOk+LWS722yveQ2UvLhch8qU8kUrY9d62TebaZ1Lj0SyR/uGaTlu3+vUBWHduU7fKpM31Vy9xS5S18//HF9Pk03cSXtnOt812JRHXK9P3SWTDHdnuvVeddPtmeSHZMCvqztcrknebNO7XFp7eJNKr0Q7P6RbWFXIBDP53OrR+beIotPdvdjZXaEpH0GeNmnJN0nt9skLRmz7yEPWHt6Xjd96hU+eORofd+l1gTHbDLpgq5muybBGamTn+MHKdYtkl4bOktGPRNLpy5ott8nNSAdBeDeqcNU7P2T+IPWZz3Lixs3/HJz2u+4fcSk6XWW6xgxfe5fQ4epRX7xqYNXbRj5HpMaJZ0maWzCI1806dY4smsbbPQtNm1ab8Lztik/03dTTvMlHZ/gmKdi05kLmuzeBGekzoQ5/tY41k8l7RY6S8Z1m+sDXS12ZxIXT0UBkCS/u+UsmS0InaNKPKcV/pbV/7f+2Nh1gclOUbpvpGRXoMxeumD8Ybm47qMuP0ehPpd1PS+zuZLNbphx/X2VHJ2f5W9WpBuU7A8Nd9bVa/zccy1T5TU/x9+gku6QaY/QWSBJWhNLJyxotrL//1hqCoAk+dLWH0qaGjpHysWSv8/Gdfzs5f9hVcvE/ZSLJ8vUKk/9YzmPmnQ1uwL9s/qCxvfGsT4r6cTQWf7BzxT7ZQ2zCom/6bOxwxvdNEvSsKRmuHS1DdXHCo020OM1q8qZs32XOuleSfuFzoK/82wp0tsWTrJny3nRdBWAJS1DNNSWasuBEnhV/mUb1/Efr/pP8vncqlF2mkkXaMt2cK6y2XZKj1w3muzq0fsecmuaPldOo+62xlNc/iWZHRM6yw7caW7/NWbmvP8r+5XdrbFTn3Hpq0rue1fRpC9k8nAfd8t3apGkM0JHwav6hYbq5HI+HZCqAiBJvqzpQHnuXkkjQ2dJoV9p42tPshPbd/jc3wtTz/qX+lJdk8umSr5/JcL1m+lpd11jpegHDR3XPxE6Tpq8NOWsvSOv/2/JJ4XOslPcf6Q4d3G5fj/zXT5CG9Up6cxyXG8bXnLXhPkt9vMEZ6RWY6d/2F3fD50D22auf+9qsW+U7XrlulA5bb0foEvp/gm2wvxxRTrG3t6xUy8b8fb2aPWKB09x+QUynS5pUEIBy6Ek95sVRdPH7P3XH1v77cEOOAjN20+o635y90tk+ry8ao9XXe/mX2lYrf+1QqHfW+njZ/r+UU6LJR1exmx/z/SApDMKTfZ4YjNSbOvW/3JJu4TOgu3aUKrToeU6NTCVBUCSfGnbVMl/GDpHSryonB1rR80c0Mlj3Red26De3ry7Xawkv5mWgUnPxdLsKGdXj5k279HQeSqpu238/m65TknvDJ2lPPy+SGocPaPwyM7+ynynHyvXAkm7JxDsZT8alNN5155vaxKckWpnd/hVZvpo6BzYMZdmz2+2lnJcK7UFQJL87rZ2mf9n6ByBbZDZKXb0zLvLdUGXrLs1f7xydoG7xps0pFzXToBLfpsrmt4wbM0iu/LmzaEDJWnVlAmtcr9KCd7gFsgac10wZmZXV19/wdbDfa6SVJ9Qpkwe7vOPzrnO9yj26nHxIp9qUZTpwHLsVqW6AEiZf23werl9yN4xM7EXjnRfdG6D9xYnyXWBUr4rIOlFSXPi2KfvMqvwp9BhysnbT6jrXrH7N2X6eOgsSTLpe6P3ef4T2/t454QlXrfrk/qmeaJfi/Xmau5q4dHjs2f7f5n0xdA5sFO+U2ge+LqY+gIgSb605ROSfUtVkrdMVirWB+2YWXdVauBLUyaMi9wvkDRB0vBKze2nO+U+fWPdpq69pt20IXSYgXjpvPNGRUN6Fkp2cugsFfLjjbmNja/2+7b1s+guSSclOP9Juc4stNhvEpxRHbbc+f+opNeFjoKd8kLDJr1m2oU2oIO4qmZB9WVtTXKfruS2A9PkCeXsfQP9zL+/Xmg7fWSdhp6pyCfJdUqIDDthjbtdL8Vzxs4s3BE6zM7qvujcBvUUf+LSuNBZKuyeXC73/lHT5r748v+Qn+Vv1JY3+SW5GN1RNI1f1GS8r0J/u8fiV6FzoB9inVpotZ8O5BJVUwAkyZdNfr887lTyx52GdLfq6sfbkdPKeuBDf62aPPEtJr/A5edKGh06z3aZfuvy6Yp03dhphdS/rW3ro5o/92RfXZti/sd6qzt5xPS5f813+Ptluk7SqMTGmaY1bNTHBvpTUy3Jd/iXZHrVc0WQbub6ZleLfXpA1yhXmErxe1r3UazrJB0bOkuZuaQrNXLdv9th/X9kKimPt7QMacht/KCbT5XrZKX4z45veXnLTWk+enjl1PxoK2mJZG8JnSUs//3njrxq0UvDdv+ikjvOuujSp+Y325UJXb9q5Wf7L5TsuxSQnPsKzfbWgVwgtd/Et8eXtNdpyIovyDzJbxqV9KLkzTau4yehg/TFmrb8QUWzVpPalPKXhbi0PJJmpek1xU/m80NHjNItkh0XOksaLB99qK540+fVa4l8uveSSfmuZluSxMWrXX62r1Kod0lgoHpe2FfDbz/R+n1eSlUWgJf50rZjJb9K1Xt0sMvVKct91sZNr7pz8f3iUwev2jjyLIs1RaYTle4/T5tddkPkPn30vofeFuroYZds1ZTG683VGGJ+Wt272zt09cGfkFtZ/wj9PhfrjOtb7YlyXrRW5Gf5noqUio8a0U+RDihMsp0+X+Nlaf6G3Sfu7ZHuWXG+3P9X1XWK1e/k8cfsHbMTec1jpb3UOnGfXBSf69JHNfB30CftKZeuNRW/3zBjYVlO1OqrlZMbP2fSf1dyZrVY+Lrz9NN9Ti/LtUwqDDa1zmmy9WW5YA3Kz/a3S1oWOgf6z12nDOTo6qovAC/zOyftrlzd5yVNUZofYTM9qliX68l1s6yxULaXOqSFT51a3x2v/qB5PMVl71W6P6IpSvqJR3Z1Q3d8sxWS/f3onpJ/t7vdLI64flUly+kbR7Tr0VEHDuQyHO7TR2d3+MlmSuyMESTPIp3ZNclu6PevL2eYNPB7p+6q3uLHZH6x0vW0wAMy+4Y27HtdX17mUwteaJu4V73Fk1z6sNL/etFnXeqMvDRtzMwFj5X74qtaPjRGuUG/V/p3R4JaNXgXffmtX9O6+n69C2ytS5PmN9vicueqRfkOP10mvlbVzNRUaLI5/f/lNcrvaBupXDxRpvMlO1ZhfhJdK2mR3OZo3Myfm6XvbvRK2PKaYr3PZFMkfUBSXehM2xG7/NZI0fTRa+LFA3mJzSt1T26c69LEclyr1t272zs07ZCdPOTM9FgknTGvyf6QTKrak5/tZ0paGDoHBsDUWmiyjv7/8gzwe5v2VbHuXLmfJdNblewW7BpJS2Sap1z9YjtyWlWfUlduL0w9619ypboWVYhICwAAGytJREFUkyZLen3oPDvwgkuz41xpxq7TFjzU34usmjLhDLn3e5sui77zxkv1x4Y39fVf/3lRmrCo2V5KMlOtoQDUAArAzvGl542SDTperhO05SyBQzSww0eekvR7md0ui2/XE+t/W4uf7Sehe0r+bXEcTbUtJw6m/UUkvzHzaZs2D7l2zzlz+nxjmV986uDuDaMekPyAJMPVmueH7qn2t31DxWj7jwaadOXz++pTA3kUKqsoADWAAjBwvnTKHopLB8t0gMx2lWmMXCPlPlxmw2S+Wu7rJFsnszWKfYU8eljDex62I/q+GODVrZl6zq6lYrHJzKZUwal43XJdq5xPb7i68Lsd/curJjd+QdKXK5Cr5izeb4J+vO9Z2/rHPTJ9pNBkMyqZqZZQAGoABQC1ZGVb/liL7AJJ+dTvCrh+bZFP7403z91t5o1r//Efr2k6c5dSff0TkkZUPlz125wbos+9/ap/viHQ9VeTxne1WE08QhsKBaAGDLAApPkRLWTQ2JmFOxqmdzXHG+v3NPMLJb8vdKZtMh3lbj/M2ZDnV01u7Opua/y7FyfFg+o/JRb/fhtc2qSTnvmnd538JhfrKBZ/YODYAUDq/e1eAfNzJPXr+bBKMbeHZN5h8gWx7NfimNUB2Zgbps8dfZU21A2XS12bN6n1pguNG2vLgB2AGsAOAGrdmOmF34ydOe/C3sG+l8kukHRP6Ezb4uYHu3R5LHtYLP4DNrS0Qe969mcu0+fmN2kiiz9QPml+Hhv4O7t/r7BO0nRJ01+cMuGQyL156+OEuwaO9mrYXSuT9/9l4Yutxfu/btaeyXM0gKSwA4CqtOv0eQ+OndF1yZhha/c2WaO2HGnKAlGDBsWbd+t+6iFeWQuUGTsAqGp25c2bJRUkFdZcMOHAYuxt5mqVaffQ2VBGHk+SdHvoGEAtYQcANWPU1fMeHjuj65Ixa30fkzXK/UeSOJSpNpz9zNQPDgsdAqgl7ACg5mw9v78gqdDdNn5/RbnJ7mqRtFfYZBiAUUNKQ0+WdFPoIECtYAcANW3MzAWPjZnedemYfQ7dx1zv1pZiwLGxVcikE0NnAGoJOwDIBGtvjyXdKunWV7ym+EJJrwscDX13UugAQC1hBwCZs9vM658ZM6Pra2P2OfQNr9gV6A2dCzv0prWt+d1ChwBqBTsAyKxX7gqsm3LOHkUvtbhsMm/uSy0rRvZOSbxaGSgDdgAASSOmz/3rmBldX2uYMe9AMz/S3aZJ4tS5lKmCt0UCVYMCAPyDl48eVqnnNVteSKT7Q2fCFiYdFDoDUCv4CADYhoaOG7olTZM07RUvJDpXvOEvGAoAUD7sAAB98PKugOd8b3ddJNNvQ2fKIqcAAGVDAQB2wthphdVjZ3b9oGF619viqHS4S1+TtDJ0rgxp8Hx+UOgQQC2gAAD9tMvVC/44dkbXJZt7Bu8rt38NnScr1jbUjQqdAagFFABggPacM2d9nCv+LHSOrIjj4sjQGYBaQAEAyqCuWM+NgRUSq44CAJQBBQAogzinoaEzZIWbU7aAMqAAAGUQlbQxdIasiEq+PnQGoBZQAIAyKKq0NnSGrDAV+VoDZUABAMoix6JUIVHdoDWhMwC1gAIAlEHkmygAFTJycDdfa6AMKABAGYzZ781rXNoUOkcGrLYrb94cOgRQCygAQBlYe3ts0iOhc2TA8tABgFpBAQDKh8UpccbXGCgTCgBQJmYUgKS5xXyNgTKhAABlEksPhs5Q66LYHgqdAagVFACgXCL/ZegINc57Yr8zdAigVlAAgDIZO62wQtLjoXPUsD/u3lF4LnQIoFZQAIByMrstdISa5eJrC5QRBQAoI4+1JHSGmmV8bYFyogAAZRQNzv1EEgfVlN/63sF+a+gQQC2hAABlNOb7162S9KPQOWqPLdz9e4V1oVMAtYQCAJSb2ZzQEWqNWczXFCgzCgBQZmOi0T+R9GLoHDXkmdGruQEQKDcKAFBmNm1ar0szQueoGaarrVAohY4B1BoKAJCAQZb7lqQNoXPUgHW5KHdV6BBALaIAAAkYMX3uX2XsAgyUS98dNW0uH6cACaAAAAmJVfy6pJ7QOaqVS5tKueJ3QucAahUFAEjILtMXPiXpu6FzVKtI9s3dpi18NnQOoFZRAIAEFX3Tf8r0dOgcVWjFpp5BXw0dAqhlFAAgQbvNvHGtu306dI6q437xnnPmrA8dA6hlFAAgYWNnzLteJo6x7bubGmYWbgwdAqh1FACgAmIVW8XhQH3x12KueGHoEEAWUACACthl+sKn3K1JkofOkmKxmU/ixj+gMigAQIWMnTnvZjf7RugcqWX68pjphZ+FjgFkBQUAqKCGaPSl3A/wqn48ZrV/OXQIIEsoAEAF2bRpvcV401mSfhM6S4rcs7ln8ATO+wcqiwIAVNhuM29cm8vl3ufS8tBZUuBPkfxUHvkDKo8CAAQwatrcFyPzUyWtCJ0lHHssjqP3jZ5RWBk6CZBFFAAgkDHTC48Xc8Vxku4PnSWAP5R64+N3mXX9k6GDAFlFAQAC2m3awmdtUN2Jku4InaVy/HbP+bG7dhY4IhkIiAIABDbm+9etWrfG3+OmrtBZkmdzxgxb976x0wqrQycBsq4udAAA0j6FwkZJE1a1TfixzL8vaVjoTOXk0iaTX9Iwo4vX+wIpwQ4AkCINM+d1StGxkv05dJZycWm5LHd0w4wCiz+QIqnbAfD7Jw3X+tz+qss1qOTDFcUjQmcKys3l1q1I61UsPa+nNzxhjTwvXcsaZlx/3/Mfyb+1rif6D3P/pKT60Jn6qcdM39gYbbxsr2k3bQgdBsDfC14A/O6W/WQ6TbITJR2tjdpHkaQ4lkySW+CEKWC+5QT5XCTtO6LHl7Yul/yXUrREQ3t/akfwDHWt2f17hXWSPrPmggnTS7FfJendoTPtHL89jvXRXWYV/hQ6CYBXF6QA+L1T61XsmShpimTHactSj74ZJOmNkr1R8o9qY906X9q6UHH0XTtmxj2hw6G8Rl0972GX3rt6Sr7R3b4g6fDQmXbgdzL7csP0roWhgwDYvoouvN6Vz2nfkZMl/7yk11Zydkbcqji6lCJQm1yyVZMbPyD5pSY7OnSev+f3maKvjp4xb77xxsOqkJ/tZ0qiqFUzU2uhyTr6+8srtgPgy9qOlOsHkr+tUjMz6BRF8Um+tHW6ejdfYsddtyp0IJSPSa4ZXTdJuql7Sv4klzXLdZakUPfJrJFrgUwdDTMKvwyUAUA/Jf4UgLvMl7Z8Qu53svhXRCRpquoG/87vaj0mdBgkY8z0wm0N07uaN/cM3tNNk0x+s6RK3Gi3Xu4/ctO569b4ng0zu9oaZnSx+ANVKNEdAP9jfpCWjeiUNCHJOXgVpn1lWuJLW6bYuI45oeMgGVtfonONpGs8nx/UPcrGyXSS3E+S7AhJowY4YrXk90la4q7bGuoaltm0ab0DDg4guMQKgN87dZjW9i6WdEpSM7BDgySb7UvbdrFxM78dOgySZYVCj6Rfbv2rXZJeaJu4V53ig1w6SKb95NYQmY9yaaRs60cHsa81s3Wx25pIWinTE262vLdYemj3jsJzwf6DACQqkQKw5S7/3oJY/NPAJP+WL2st2tGzrgodBpW128zrn5H0jKQlobMASJdk7gEo9v5A0mmJXBv94/q23912augYAIB0KHsB8LvbWiS1lfu6GLCczK/xOyfz+CUAoLwFwO+c/FqZs82cXmOVi6eHDgEACK+8OwC5+ApJw8t6TZTbKb60ZWLoEACAsMpWAHxZ60mSTi/X9ZAk+x//ycWDQ6cAAIRTvh0A16VluxaStrfGrm8OHQIAEE5ZCoDfNfktkk4qx7VQMf/mzkuYACCryrMDEMX8NFl1/EAta0nZC2UAAJUy4ALg3h5J4qayauR2XugIAIAwBr4DcPeTR0jaY+BRUHGmd4eOAAAIY+AFIBefMPAYCOQgv6vpNaFDAAAqb+AFwO0tZciBUKLoiNARAACVV4abAOODBn4NBGPG7x8AZFAZCoDtO/BrIBgX7wYAgAwqx2OAI8twDYQzKnQAAEDlDagAbD1IZliZsiAIGxE6AQCg8ga2A1DIRxKnyVU3z4VOAACovPK+DRAAAFQFCgAAABlEAQAAIIMoAAAAZBAFAACADKIAAACQQRQAAAAyiAIAAEAGUQAAAMggCgAAABlEAQAAIIMoAAAAZBAFAACADKIAAACQQRQAAAAyiAIAAEAGUQAAAMggCgAAABlEAQAAIIMoAAAAZBAFAACADKIAAACQQRQAAAAyiAIAAEAGUQAAAMggCgAAABlEAQAAIIMoAAAAZBAFAACADKIAAACQQRQAAAAyiAIAAEAGUQAAAMggCgAAABlEAQAAIIMoAAAAZBAFAACADKIAAACQQRQAAAAyiAIAAEAGUQAAAMggCgAAABlEAQAAIIMoAAAAZFBd6ABArfN8ftCq0bmjpfhN5naw5HvLNELuYySz0PmCcsWKtFqudXKt8MgfktvvG3Jj7rFp03pDxwNqGQUASMBzkyYNHzxo01kmndMte5d5PGzLP/FX/C3ba7+kLV8C////t/mWr0l3qXvdqrb87R7ZdetX+w37FAobg2UEahQFACij51vye9bl7N9Mmy+UbKTv+Jfg1Y2Q2QfM9YERo2x19+TG7+Xqe7898geLng8dDKgVFACgDB5vaRkypm7DJZI+I9fQ0HlqzGiXPlfsrf/4yrbG/25Y69+wQqEndCig2nETIDBAqyfn3z4mt+EBuf6TxT9Rw8102eqR0f2rJk98S+gwQLWjAAADsGpy/hOx7FeS3hA6S1a4+cGu+K7uKfmpobMA1YwCAPSDS7ZyyoSvS/ZtSYNC58kak4a42w9XtTV+x7mbEugXCgCwk1yyVW0TfmDu/x46S+aZPt7d1vjt0DGAakQBAHbS6skTvmzmbD+nhenjK6fkLw0dA6g2FABgJ3RPnpB3OYtNypjbl1dNmXBG6BxANaEAAH3U3TZ+f5dfHToHXpXJfcZLU87aO3QQoFpQAIC+styVkkaHjoFt2iVS3RWhQwDVggIA9EF3W+N4l04LnQM74DpzZduEU0PHAKoBBQDYAd9yRH176BzoG7P4Mh4NBHaMAgDsQPfkxjMkHR46B/rK3rJycv69oVMAaUcBAHbAXR8OnQE7J5JdGDoDkHYUAGA7XmibuJeZTgmdAzvttDVTz9k1dAggzSgAwHbUm39QUi50Duy0QaVSkZsBge2gAADbEZufFDoD+sntxNARgDSjAADbYdI7Q2dAP5mOCx0BSDMKALANL5133ii5XhM6B/pt/8dbWoaEDgGkFQUA2Ibc0J4DQmfAgESj6te+PnQIIK0oAMA2lFy7hc6AgYni3C6hMwBpRQEAtiFnGhE6AwbG5SNDZwDSigIAbEMcR4NDZ8DARKahoTMAaUUBALYlcs6Tr3Ye8XsIbAMFAACADKIAAACQQRQAAAAyiAIAAEAGUQAAAMggCgAAABlEAQAAIIMoAAAAZBAFAACADKIAAACQQRQAAAAyiAIAAEAGUQAAAMggCgAAABlEAQAAIIMoAAAAZBAFAACADKIAAACQQRQAAAAyiAIAAEAGUQAAAMggCgAAABlEAQAAIIMoAAAAZBAFAACADKIAAACQQRQAAAAyiAIAAEAGUQAAAMggCgAAABlEAQAAIIMoAAAAZBAFAACADKIAAACQQRQAAAAyiAIAAEAGUQAAAMggCgAAABlEAQAAIIMoAAAAZBAFAACADKIAAACQQRQAAAAyiAIAAEAGUQAAAMggCgAAABlEAQAAIIMoAAAAZBAFAACADKIAAACQQRQAAAAyiAIAAEAGUQAAAMggCgAAABlEAQAAIIMoAAAAZBAFAACADKIAAACQQRQAAAAyiAIAAEAGUQAAAMggCgAAABlEAQAAIIMoAAAAZBAFAACADKIAAACQQRQAAAAyiAIAAEAGUQAAAMggCgAAABlEAQAAIIMoAAAAZBAFAACADKIAAACQQRQAAAAyiAIAAEAGUQAAAMggCgAAABlEAQAAIIMoAAAAZBAFAACADKIAAACQQRQAAAAyiAIAAEAGUQAAAMggCgAAABlEAQAAIIMoAAAAZBAFAACADKIAAACQQRQAAAAyiAIAAEAGUQAAAMggCgAAABlEAQAAIIMoAAAAZBAFAACADKIAAACQQRQAAAAyiAIAAEAGUQAAAMggCgAAABlEAQAAIIMoAAAAZBAFAACADKIAAACQQRQAAAAyiAIAAEAGUQAAAMggCgAAABlEAQAAIIMoAAAAZBAFAACADKIAAACQQRQAAAAyiAIAAEAGUQAAAMggCgAAABlEAQAAIIMoAAAAZBAFAACADKIAAACQQRQAAAAyiAIAAEAGUQAAAMggCgAAABlEAQAAIIMoAAAAZBAFAACADKIAAACQQRQAAAAyiAIAAEAGUQAAAMggCgAAABlEAQAAIIMoAAAAZFBd6ABVxyUVt/7dA2cph5LvGjpCWplF1lMsho6BAegt2YGhM6RZqSh5HDpFeCZJkRRFkmXox2IKQF/0SFovabOk3sBZyi3SUaEjpFXsXrdqIwWgmpnZhyVdFjpHWvWsl4qbQ6dIlygn5eql+iFb/r6lHdSmAXUdayyUtOXn4dq0SdJzkv4qaZ1qb/GXJFkt7GMkwmL1hM6AgXL+fG+L8+f71cQlqXeTtKFbWv+S1LsxvZu9vmWV6rdybHasL8M10qUk6YWtf9Xkov8KZrX+X9h/FneHjoABcm0IHSG1Iq2r5Z9uyyGOpU1rpQ0vbSkGaWOx1g7k15ejAKwqwzXSY7O2/MQ/oF5VTXxj6ARp5a6VxjfI6ma2JnSEtIpdq/jj3TdxSdqwcsvOQJqYNKAfUgZeANweHfA10mKTpBe1ZQcgK8xeDB0hrQa5HsnQ/UA1yp8MnSCthpkezdINbwPlLm1aI/WkaE+pN9KfB/LrB/7bb/FDA75GGvRKeklS1u6INa+N378EjJxVeCGKIj4iqWIu/Sl0hrSa02TrrU4rQ+eoNpvXScV07ASsWtRkzw/kAmXof7Z04NcILFY2F39JKvodoSOkWc7sqdAZ0H8ufzB0hjSri3Rf6AzVaONaKQ5/+/vdA73AwAtA0W4b8DVCW6Pav9lvm/zW0AnSLIr8V6EzoP88yt0ZOkOaWaTF3OfSD77l5sCQzLVkoNcYcAGwY2c+I+m3A71OMEVtecQvi0zrNH42W6TbUW+574bOgP4x+eOHXrfwL6FzpJnVa3E0KLVPuaVaqTfsGQol148Geo3y3AJiuqYs1wlhrdL7kGfSzBaZZfa/vk/+pbNwT33EneTVyD3qCp0h7QpNtqKuXg+HzlGtesI9Q3XvglYb8P1b5SkAxeK1kqrvcTKXMv2UcOw/CB2hGtRFtjB0Buw89/ja0BmqQd0gfZOPAfqn1BPmXgAzzSjHdcpSAOydc56XfGY5rlVRm5XNG/8kKdKfdfasAd9EkgXRkPX/Fpll9U9KdXLdcUhh8QOhY1SDaKRm5gaLXa5+Klb+PMXnfIhml+NC5XsKtC7+uqptFyDLZ2DHfinb/32zz4xbVtbl7ObQOdB3Lv9K6AzVotBopUFD9LXQOapVqcI3kJvrq4VGK8taW7YCYEd2rpDrv8t1vYrI6knYpgf1x/0WhI5RTep7ck1RxLHJ1cBlvzyka/EtoXNUkzc9rcvrBuuF0DmqUYU/AvjDmM36frkuVt5zoFaN+B+5/lDWayYpi5u65i7zNmtvz+J/fb/tUyiszEX6augc2D6TShaVLg6do9q0t1tcX6+J3Auw8+LKfSctSpo67cLy/SBS1gJgp125WVFpvDSwFxRUTCaXQLvSxndU/+FNAex/7aL2XDTwO2+RnFh+2cFzb/x96BzVaNFFdlv90Cp+oisUV2WeJDN9sdBsZb1vq+wnQdvRnQ/LbYqqYXnNWts13a943b+HjlGtTPJivY6Nsv3sSHqZfnFwPOi/QseoZjd+1CblBql23u9SKUmvJaYFhz2mr5f7som8CsLeMbNLro8lce2yytKLMEzPqVcftMZCVu98KItDOhe9ZIpONlP4g0DxNyY9WldvjVYoZOlVXokYtlFvi+pq7C2vSUr+B8lfDC/p/Pb28j+JlNgSaO+Y9X3JPqY07wTUhQ5QIebdinWynTOLN6OVwQHzFi41RR9Smv9sZ4nrWcvl3vOGOYsG9GIUbFG4xFarV4dapNWhs1SDXC7Ry/98UE6nd7RaIq8fSvRnYBs387syn6i0HrY7KHSAinhG0juscRZH/pbRgdcv/HFdZO82y+yzJGnxWMnj4w+8bsFjoYPUkp98xp5TvQ6IIj0XOkva5eqTua5LMzVUp117fnInkVbkU3C/q+VgRZon2ZsqMa/PipKeDR0iQaaliktnW2Pn06Gj1KoH82e8MYqi/3P5nqGzZI7rtpzXTzygUODxtYR8sN2HxaN1S6moY0NnSauho6W6wWW95HqTPtrVbGU57Gd7KvIpuB3T8ZDqBh0p+SeVpicE6lSjuwBekvnl2uW1x7H4J+uQwuIHfGPpQJnND50lQ3pl+o+DDn3zu1n8k3VTu2348b/acVavT8uy+87UbTEr++L/o1yswyux+EsB7oP3u5peoyj6tGRTJQ2r9Px/sl7SytAhysj8Tin+iJ3dyaNQFfbQOWeeZO4z3LVf6Cy1yqVboyh38UFzF/A4ZoV94H/9NUWpQ0WdkrknqLZh0HBp8PAyXMj1M0W6rNBkvyjD1fos2G+jL2vaRV43UfLzJR0dMouek6q/2/qvZHaZnT2LE9AC8nw+95D1NlpkX5L7AaHz1Ah36eeK7SuHFBZV9Bsk/tlpX/c3e05f81jvVvYepv4bM2n4LpL1fx/9aXNdXzJ1Lmi2ID+wpeI3z3/ZupsG+wlyO1rygyV7vaQGSSMklaNfbd9mSS+oGl8L/CfJbpDFc+zsDn4iSpnl+Q+9XZHOl9mZ7r536DxVxiX93k03xKX4msMKNz4SOhD+3ru/5ntFOZ1j0iRzvdGz9WC1Bo+QBu14D7tXW26C75b0pEvLTfq9crqtcL4FvzE7FQUgDbzQ9kVJZ4TO8ep8tVzrFflLcntY8uXqrbvTzp3+19DJ0DcPTvzQfpHbOLkf5JHe4LE3WGQjtKXkZpurW27rFfmLkj8sjx6yqHjnQXNvejF0NPTNqVf4qHiTjlGkwyzWgTLtJmmkpDFWg+uMS3/66afVLLPq+7ERAAAAAAAAAAAAAAAAAAAAAAAAAAAAAAAAAAAAAAAAAAAAAAAAAAAAAAAAAADsjP8Hhx35sQHoE6gAAAAASUVORK5CYII=;" vertex="1" parent="1">
          <mxGeometry x="1040" y="238" width="52" height="52" as="geometry" />
        </mxCell>
        <mxCell id="2QCwJeMMzPczJVexIRF--81" value="BI &amp;amp; Reporting" style="text;html=1;align=center;verticalAlign=middle;whiteSpace=wrap;rounded=0;" vertex="1" parent="1">
          <mxGeometry x="995" y="290" width="85" height="30" as="geometry" />
        </mxCell>
        <mxCell id="2QCwJeMMzPczJVexIRF--82" value="" style="html=1;verticalLabelPosition=bottom;align=center;labelBackgroundColor=#ffffff;verticalAlign=top;strokeWidth=2;strokeColor=#0080F0;shadow=0;dashed=0;shape=mxgraph.ios7.icons.looking_glass;" vertex="1" parent="1">
          <mxGeometry x="1001" y="345.62" width="68" height="54.9" as="geometry" />
        </mxCell>
        <mxCell id="2QCwJeMMzPczJVexIRF--83" value="Ad-Hoc&lt;div&gt;SQL Queries&lt;/div&gt;" style="text;html=1;align=center;verticalAlign=middle;whiteSpace=wrap;rounded=0;" vertex="1" parent="1">
          <mxGeometry x="990" y="412.19" width="90" height="30" as="geometry" />
        </mxCell>
        <mxCell id="2QCwJeMMzPczJVexIRF--84" value="" style="shape=image;imageAspect=0;aspect=fixed;verticalLabelPosition=bottom;verticalAlign=top;image=data:image/png,iVBORw0KGgoAAAANSUhEUgAAAgAAAAIACAYAAAD0eNT6AAAACXBIWXMAAH37AAB9+wGz7o3gAAAAGXRFWHRTb2Z0d2FyZQB3d3cuaW5rc2NhcGUub3Jnm+48GgAAIABJREFUeJzs3Xl4XGXZP/Dvfc5sWdtkktKmaZs2M2cmhJalIFuBUkBRWQVZlIKKLLKpqC+K+gIKCIg/F0T2RTYBlX2VHSkgpSwtaTJnJm1K23Sd6ZJ9luf5/ZEpb6ldkpznzJmZ3J/r8rK0M/dzd9I55z7PSmCMFZ3GxsZxmqaFiShERAaAkJRynJSyjIjKAIwFUJZ9eQ+ADdn/75FSrtU0zZRSmlLKiBCirb29fa1DfxXGmE3I6QQYY9Y1NTUF0+n0HCI6HMDhAMYpbmINgNcAvJbJZF5tb2+PKY7PGMsxLgAYK0wUCoUOAjBXSvlVAPU5bn+5lPJZXdfvb2trezvHbTPGFOACgLEC0tjYOMnlcn1DCHE2EQWdzgcAiOhTKeXfMpnMndwzwFjh4AKAsQIQDAb3IqLLAZyM/P3eSgDPCiGuicVi7zqdDGNs5/L1QsIYA2AYxiwAlwE4xulchmmeEOL6WCz2tNOJMMa2jwsAxvJQIBBoJqI/E9Fsp3Ox6BUp5cXRaLTV6UQYY5/HBQBjeaSurq60vLz8fwD8DIDH6XwUSRHRLQB+EYlEupxOhjE2iAsAxvKEYRgnAPgTgElO52IHIvoUwMWRSOQpp3NhjHEBwJjjGhoafF6v93op5SVO55Ij9/f29p63YsWKPqcTYWw04wKAMQeFw2FDCPEIgL2cziXHPsxkMqfwskHGnKM5nQBjo5VhGKcKId7H6Lv5A8Deuq4vCIVCJzudCGOjle50AoyNRsFg8BIiugOAz+lcHOQF8PXq6ureRCLBuwkylmNcADCWW2QYxpVEdB14CA4AiIiOqqmpqY7H4y86nQxjowkXAIzljm4Yxq0ALnU6kTy0v9/vnzp9+vRnOjo6hNPJMDYacAHAWG5QKBS6E8DZTieSx/bcvHlzYyKReAKD2wozxmzEBQBjOWAYxo0ALnA6j3xHRDP8fr8/Ho8/73QujBU7HoNkzGahUOh/pJTXO9F2daWG6Y1uNNTpaJigY/JuOsp8hIoyDaW+wa9/b79EV49ATz+wbHUay1Zn0NGZwcL2FDZsdqY3Xkr5k2g0eqMjjTM2SnABwJiNDMM4E8C9yNF3TdcIX2h245C9PNi/2YvGiTpohC1LCcRWpPHe4hTe/HAA7y1OQuSuHpBENDcSiTyYsxYZG2W4AGDMJqFQaIaU8l0AJXa31TBBx4mH+fCVg0swrsqe7T3WbhB47u1+PPZaH5atztjSxtaIqFfTtP1bW1s/sb0xxkYhLgAYs8GMGTPK+vv75wNosrMdY5ILZ361FF85yAtdy83XWQjgzY8GcNvjPVi8NG13cyYR7cuHCDGmHk8CZMwGY8aMuRvAEXbFH+/XcdU5FbjszAqEprigjbSffwSIgIYJLpx0eAka6134OJpCT79tk/b9AOri8fgTdjXA2GjFPQCMKRYMBr9FRPfYEdulA2d8uQznn1iKEm9+fH17+iVufawHD77Qi4x9cwTONE3zftuiMzYK5ccVhLEiEQ6H/UKINgA1qmOP9+u4/sJK7GW4VYdW4pP2FH5y02Z0rrdlfkACQMg0zfV2BGdsNOIhAMYUqqqq+jMRHaw67mF7e3HrZWMxZUL+fmXHVes45mAfYivS+HSN8iKgBEBVPB5/WnVgxkar/L2aMFZgQqHQwQD+BMU9a6ceWYKrz6+EL0+6/HfG5yUcfaAXiU3CjgmCe1dVVb2USCRWqA7M2GjEBQBjauh+v/8pAONVBr3gpDL88PTyEa/ld4JGhEP39kJKYEFbSmVoIqKZ8Xj8TvBWwYxZxgUAYwoEg8HTiUjpVr8Xf70M555QpjJkTu23uwe6Rpi/OKky7Hi/398aj8d5bwDGLOICgDHryO/3P0RE41QFPO2oEnz/1HJV4RwzM+xGV6/AopjS4YCmeDx+K7gXgDFLuABgzCLDME4kootVxTvqC15cdU5lQXX778yBe3gRXZ7G0k5lEwPH1dTUfBiPxyOqAjI2GtmzZyhjo8vPVAWaPF7HledUQiuib6amAVefX4kp45U+b/wveBkzY5YU0WWGsdwLh8OzAeynIpbXTbjx4jEoLym++1qZj3D9RWPgcav5u0kp9wkGg4coCcbYKMUFAGMWCCHOUhXrgpPLEJriUhUu7zQ1uHDeCaUqQyr77BkbjbgAYGyE6urqSgGcpCJW40QXzjha6c0xL5311TJMq1NT5BDRydmfAWNsBLgAYGyEKioqTgRQYTUOEXD5t8rhGgVTct0u4KdnKVvdUFlWVna8qmCMjTZcADA2cmeqCHLInl7s2+RREaog7N/swUHT1fx9iWiukkCMjUJcADA2AqFQqEJKebiKWGcfN/p6sc//mrINjo5sbm4u/A0TGHMAFwCMjYAQ4lAAlo/l27fJnben+9lpz6AbM8NKegHc6XR6lopAjI02XAAwNgJEpOTp/7SjRt/T/xanHOFTEkcIoeRnwdhowwUAYyMzx2qAilINh+w1esb+t3X4vl5UlFm/BBGR5Z8FY6MRFwCMDVNzc3M1gD2txvnSAV74PMW36c9Qed2EI/dVUgDtM3369CoVgRgbTbgAYGyY0un0XlDw3Zmzr1dBNoVtzn5KPgMtlUpZLsgYG224AGBs+EJWA+gaRuXkv23NDHuU7H+QyWQs/0wYG224AGBsmIQQlm820wNulPlGb/f/FmU+wu5TrRdCRMQFAGPDxAUAY8Ok4mazV5Cf/rfYO6Tks+ACgLFh4gKAseGzfLOZNnEU7Ps7RIrOBuACgLFh4gKAseGrsxqgYULxnvo3XFPGWy+GiGiCglQYG1W4AGBsGGbOnOkGYHnqOhcA/6dhgvUCQEpZCoC7VRgbBi4AmO2mT59elV07X/CSyaTlfec1Dago5QmAW1SWE0jBxzFt2jQ+E4CxYeDHEGYHzTCMrwOYS0SHDwwMlAKAYRjdAF6RUj7i8Xj+2dLSknQ2zeHr6empcLmsfW1KPASNS+/P6BrB5yH0DUhLcTRNqwCwSU1WjBU/LgCYUo2NjQFd1x8FsDcASPm5i3o5gOOJ6PhUKrXKMIxbU6nUbUuXLl3jRK4joWma5afMEl7+919KfdYLACKqUJQOY6MCP4cwZQzD2FPX9fnI3vx3YQKAq9xu9zLDMP4aDodn2pyeEpqmWV6z5nZxAbAtj1vJZ8JbKzI2DFwAMCWye7E/DWDsMN/qBXCmEOJ9wzDmGYZxanaiXV4SQnRbjdHTJ1SkUlS6+6w9/QOApml9ClJhbNTgAoApkUwmLwcwyWKYgwA83NXV9alhGFcGAoFaBakpJaXsshqjt9/6za7Y9CooilKpFBcAjA0DFwDMsvr6+hIp5fkKQ44HcIWmaZ8Gg8G7gsHgXgpjWzIwMGC5AEhngP4kFwFb9A1IZBR0ipSUlFjunWFsNOECgFlWUlJyBAYn+KnmI6LvENGHhmG8EQwGT4LDa71XrFjRByBtNU7n+oyCbIrDynVKhkQGWlpaNqgIxNhowQUAU6EpB20cSkT/MAxjuWEYVxqGUZODNndko9UAHZ1cAGzR0ZmyHIOI1gDgbhXGhoELAGaZpmljctjcBABXENEywzBuD4fD03PYNgCAiKJWY3Ss4gJgCxWfhZRyhYJUGBtVuABgKqzPdYPZrV/PEUIsNAzjrVAo9PXZs2fnZF8LKWXEaoyWpdafeovF4g7LIyqQUrYpSIWxUYULAGYZEX3kcAoHSykf7ezsNEOh0GXhcNhvc3uWC4D5i5MQvBoQQgAL2pQUQ1wAMDZMXAAwy8rKyuYBWOd0HgCmSimvE0IsMwzjpubm5vE2tWO5ANjULRFdYf3Jt9BFlqWwsct6JUREnyhIh7FRhQsAZtmCBQtSRHSj03lspQzARalUKmoYxpmqgxPRYhVx3l5YcEchKDdPzWcgAcxXEYix0YQLAKZEJpP5I4D3nM5jG+UA7g2FQj9QGTQSiZgAVluN88xb/QqyKWzPv6PkM1himmbO56EwVui4AGBKxGKxAQBfA9DidC7bICnljcFg8FCFMSWA16wGia1Io61j9E4GbO1II7ZCyWqIqmAw+JPsdtSMsSHiAoApY5rmynQ6fTCAvwLIpyluOhH9PwAqT+F5VUWQJ98cUBGmID3+urKde6uJ6IZkMrnCMIzbmpqa9lAVmLFixseSMVuEQqEZUspLAZyGPDmlTdO0g9va2t5WESsQCDRqmhazGqfES3ju935UV46uWjy+SeArP4zbuSXyPCL644QJEx5//fXXebYlY9vh6LaqrHjF4/E18Xj8ibFjx96u63oXgDAAR89rF0J0JhIJy133AJBIJDb4/f4zAFRbiZPOAC4d2L/ZoyKtgnHbE714v9XWSZCTAXy9q6trbnV1tXvixImta9eu5UkXjG1ldD12sJxrb29fG4lEfl1RUTGFiE4B8LJTuWia1qg45AMqgjzyUh82bM6nERN7xTcJPPpyb66am0pEvx0YGFgeCoVuDQQCzblqmLF8l5Od01SZOnXqbrquhzVNCwEYL6UsI6KxRFQupSzD4PKvLQeCbAKwTkq5GsBKKeXS/v7+1uxhLizHenp6KqWUkwDUO5WDEELpgUWapv1VCHEFLA6ldfdJ/OGRHlx1jqMdJDlz44NdThyJXCalPE/TtPMMw+DhAcaQx3MAAoFAra7rhwshDieifQAYAMZaDCsALCGijwG8BeCtCRMmfMQXAdtQIBA4VNf1c6WUJ8HhuQBEdFskElF5bDEMw/g3gFlW4xABd14+Fvs2FfdQwAeRFL5z9QbI/Di2pxPAHZqm3dTW1hZ3OhnGci2fCgAtFAodJoQ4nojmANgDuclvM4AXiOgpj8fz3KJFi/hIUYuyJ/WdCeBcACGH0/kMEZ0diUTuVhnTMIxzANyuIlbjRBce/FUVSrz59LVUp7df4vRfJvLxIKQeInogk8ncFIvF8m0ZK2O2cfxKYxhGGMBcIjpDSjnZ4XSSAJ4VQtxTX1//PPcMDAuFw+HDhBDnYnA/gLyY+b+VlBBiYiwWU7plcSgUqpBSLgOgZA36CYeVFO1QwM9v3Zzvmx9JAK8S0U2RSORp5NdS1h2aPXu2a/Xq1bOEEPsAqCGijQDaurq6Xu7s7MzZZAtWeJwqALRQKPQ1KeWPABzgUA67slpKebOu67dw9+COZZ/2zwJwDvLoaX87HjZN83Q7AhuGcSWAK1TFu/r8Shw7y6cqXF54/I1+XHnHZqfTGI6lAG5OJpN3dXR0bHQ6me2pr68vKSsru1hK+WMAtdv+ORH1Silv8Xq913DPJtuenBYAs2fPdnV2dn4DwM8wuCysEPQAuFvX9d+0traucjqZPJHvT/v/RQhxUCwWe8eO2M3NzdWpVKoDipY5et2Ev/zPmKKZD/De4iQu/O0mJFP5MfA/THk5PNDY2DjJ5XI9IaXcZwgv79A07bi2trZFtifGCkquCgAyDOMMAFcBmJqjNpXKVtN/SCaTv83XJwK7bfW0fy4GJ2UWivdN09zPzgZCodANUsqfqIpXXkK46+djEW5wqwrpiOjyNL599UZ09RREb/qu5MXqgWzB+Q6G9x1MANjPNM0lNqXFCpDtBUA4HDaEEDcDONLutnJkAxFdFYlEbkKBjBFaFQ6HZ2af9ucCKHE6n+EiormRSETJmv0daW5uHp9KpaIYPIBICf8YDbf/rAqB+sLcr8tcnsb5121EfFPRfU0cHR4wDOMRAKeM4K3vmqZ5EAbnOjBmXwHQ3Nxcnk6nr5BSfh9AYT/GbN+bAM4zTbPN6UTsEAgEaonoLCI6B4X1tL+t1UKIhuxhRbYKBoM/IaIbVMasKCXc9KOx2DtUWF+hBW1JfP/3m4vlyX9HeqSU90spb4rFYkqOiN6VbDE+HyO/dp9omuYTKnNihcuWnQADgcA+qVTqw+zklMK6cg3doQA+DIVC30cerKZQJRwOzzQM4zZN05YR0W9R2Dd/ALgtFzd/AKisrPwDFJ+G2NUrcf71G/Hye4VzaNAL7/Tje9dvKvabPwCUEdH5mqZ9YhjGS6FQ6DjYvLtqJpOZCwvXGyJSejQ2K2yqb1wUDAYvzj4F5f3EMIWecbvdZ7W0tCScTmQksk/73wJwDhEFnc5HoaSu6w25nLwZCAQO0zTtNdhQFH7ji6X44ell8Ljzs94cSEnc+EA3Hn3Fls02JQaH3PJ9PGQJgL/YNTxgGMZHAPa0EEISUVMkEomoyokVLmVfpkAgUFlTU3MfEf0YBbbFsAKGEOIbtbW1b65fv75gVgqEw+GZ1dXVVxLRPUT0FSLyO52TYg9FIpH7c9lgIpFY5vf7p8HaRXq7FrWn8NbHSewZdMM/Jr+O8Yh8msYl/28z3vjQtp6Kv2iadhqAFIAm5O9clCoAX9R1/eLq6upJ1dXVSxOJhLK9J/x+/7Ww9ncnAAPxePxfilJiBUzJo0RjY+MkXddfxOAXczTrBnCmaZqPO53IjjQ2No7TNO0sFN/T/vbsb5rme7lutKGhYazH41kAYJod8XUNOO2oUlxwchnKS5ztDegbkLj32V7c9VQPUvbNi2/r7u6euWVTm0Ag4NU07VQAPwIww7ZW1VG2esAwjHUAaizmE89uilU440rMFpavHsFgsEnTtBfyYBe/fJGRUl4UjUZvdTqRrRX6TP7hIqJ3IpHIQU61bxjGfhg8b8K2xfzjqjR8+9hSfG12CXye3BYCfQMSj73Wj7uf6cH6jbaO9Q8Q0axIJPL+9v4wFArNkVJeBOA4FMbwwM3JZPLukQ4PKBgC2OJ00zQfVhCHFTBLX5hAIHCApmkvA5igKJ9ioBHRMdXV1elEIvFvJxNpbGwcN27cuAv9fv+9UsqfApiJ4p2U+TlSyssSicQnTrUfj8c7a2pqugAcbVcbPf0S8z5O4vHX+yEkMGW8bvs5AvFNAg+/1IfL/rwZL88fsP1UPynlRaZpPr3DfOLxpfF4/JHa2tr7MDg8sDvyt8CtAvCl7PBA/UiGB/x+fxDAgQpyqY7H4/cpiMMK2IivFoZhzALwAgaP4GXbIaX8ZTQavTrHzZJhGHMwuFnPCbDxCVQxCSADNfNHOisqKhoWLFiQUhDLCjIM458ATsxFY7oGHDzDi2Nm+XDwnh5lwwNdvQLzPk7imXn9eHthEpkcTe4nonsikch3hvOeurq60vLy8jOklBcT0R525aaIBPCKEOJPsVjsWQxhX5FAIHCgpmlvq2hb1/VQa2trVEEsVqBGdIVoamraI5PJvAlFB6AUMyL6aSQSud7udqZPn141MDDwdQCXAGi2uz2FNgD4u5TyH0T0LBT0UDhUeG1XXV1daUVFxctSShVPbUOma4Tdp7nwhd3dmN7oxtQ6F+rH6XDtos8vnQFWrM1gaWcaC2MpvLc4hdalaWREbveOIaI3MpnMl6yMU2eHBy4GcCyKaHggGAwuUlHcSClviEajl1mNwwrXsAuAcDjcIISYB6DOhnx2iXQd7vHj4ZlUD09dHVwVFaDSEug+H+ByQfT2QvT1QfQPILV6NZIrVyK5ciUy3T1OpAsMVvnfNk3zrzbEJsMwjsDg0/7xKKyn/dcA3O52ux9vaWlJhkKhX0spf6Eg9kAmk5nc3t6+VkEsJcLhsF8I8SYGu6cd49KBCTU6yksIlWUaSn2DX/+ePomuXoGuXolV6zM5e8LfESnlJ6lU6hBVy+jC4XCDlPJCKeXZyP+Hlm4p5f0AbopGo63be0EwGLyEiP6ooK21brd7UktLS1JBLFaAhlUABAKBWk3T3kION4chXUdJUxhle+6J0ul7wBcyQPrwi/nU6jXoWbgQfYs+QfdHHyOzaZMN2e5QUgjxxVgs9oaKYFOnTt3N4/F8S0p5DoBGFTFzZC0R/VXTtDu27nrMzur+FMA4BW381TTNbymIo1R2pcw8AJOcziXPLRFCHBaLxVaoDlyAwwMvCyFu2nZ4INvbtxIK5joQ0SmRSOTvVuOwwjScAkA3DONfAObYlczWfI2NqJwzG2MOPQT6mDFqgwuB7g8+xObX30D3f96DGMjJapiEEOILsVisfYTv17Ya2y+0p/1Xieh2l8v1xPaeNgzDOAvAvSoa0zRt37a2tgUqYqlmGEYYwMsAJjqdS55qz2Qyh7e3ty+3u6ECGx5oB3BzOp2+e8mSJZsAwDCM+zC4oseql03TPEpBHFaAhlwAqD7zfLuIUL7vTPhPORklodwcLS96e7Hx+RcR/+djyHR3293cwt7e3gNWrFgx5K3SCvhpfwOAv2cnOO10e1zDMOYD2FdBm2+ZpnmIgji2aWpqmpLJZF4EkJt/4IUjkslkjsrFzX9roVBoKoALCm14ILtpl4pVRlIIEbTwYMIK2JAKgFAodLiU8iXYWCmX77cvas88A94pU+xqYqdEby82PP0s4v/4p909An8xTfPCXbxGCwaDRwA4l4iOR+Es3ZMAXiGiO3b0tL+t7GoSJcsliejUSCTyqIpYdsoeq/wsgC84nUuemKdp2vFtbW1xpxKoq6srLSsrmwvgokIZHgAwC2qWPF5nmubPFMRhBWaXBcDUqVN3c7vdH8Kmtf7u2lqM++53UHHgAXaEH7bU2rVYc/ud6H5vvm1tSCmPjUajz2z7+9kjZb8F4BzYtIucTdYAuDeTydzZ3t4eG84bDcO4B8C3FOSwoq6ubqqT57QPR3Nzc3kqlXoEwFeczsVhjySTyW91dHT0O53IFgU2PKDC6oqKisl5sGyW5dguCwDDMB4CcLodjY85Yg7Gn38uyJt/5wZt/vdbWH3zLRC9vXaEX5lMJvfIznLWAoHAkbqunyulPA6F97R/u8vlenKEM4l1wzDWAFBxBsHlpmn+RkGcXKJQKHSJlPK3KJyfuyoZIvp5JBK5AXl6Pn0oFKqTUp4L4CKo+Teat6SUJ0Wj0ceczoPl1k4LgOwSs5eVN+r1Yvz3zsOYOYerDq1UctUqdN7wO/S3qx8eI6KHpJSfAPguCu9p/x4hxJ1Wxw2zF9iVCnLqAzDZNM31CmLlXDAYPJSIHsLomRy4UtO0M9ra2l53OpGhmDFjRllfX98ZRHQxCmuPjSGTUr4YjUZt27WS5acdFgDNzc2eVCr1MYCwygZdVVWYdNUV8DY4M9Y/XDKVQufvfo+ut99xOhUnCWSf9svLy59U1VUYDoenCyEWWo0jpbw7Go2erSInpwQCgVpd1++SUh7rdC52IqKHPB7PRYsWLdrgdC4jsGWXzS3DA/l1JKM1gogCkUhkqdOJsNzZ4fhWVVXVZQBOVdmYe7fdMPmaX8E7qV5lWFuRrqPiwAOQ2bwZ/bFhDW8XgzUAbhZCfDsajf4pHo8vXrVqlbJtYmpra3Up5Y+sxiGib8fj8TUqcnJKIpHojcfjf/P7/QuJ6EAAite+Om45BjfEumbt2rV5M94/XNmzBx6uqam5n4jy/Wji4SAi6o7H4686nQjLne32AGR3LusAUK6qIU/9REy+9hq4xhbudW3dvfch/ljenvSriiCil4UQt1dWVj5l88QgzTCMVbCwARARvRGJRGarS8l5M2bMKOvv7/8lgEtR+HMDkgB+7/P5fr1w4ULHtuO0S5END3TW1dVNKZSJtMy67fYA+P3+ywEcqaoRd40fk6/5Ndz+alUhHVG25wyk169H/5Ki7CVbDeAmDD6l3ZRIJFpVPu3vgKyurm4ior1HHEDKHyUSie1umVqo1qxZk4rH4y/X1NQ8isGegGYUXndzBsD9RPR10zT/sWbNmqKcYb5mzZpUIpFYEI/Hb/H7/f/G4M/LgIKj1h1Q0dXV9WE8Hm9zOhGWG//1j3TatGljXC5XB4CxKhrQysow5frfwDu5SHZAFQIrrvkNuudv93jyQiOy+zvckYOn/e0KBoNNRLQII1tutdA0zb0xhFPUCplhGNMA/BTAWcj/HSAHshMar49EIhGnk3FCKBSaKqW8EMDZUHQdzaHnTNP8qtNJsNz4rwLAMIyfAbhWTXRC/c9/hvIv7KckXL7I9PRg2aU/RnLVaqdTGalVAO4hojvzYdKPYRjXALh8mG9LSSkPiUaj/7Ejp3wUCATqdV0/H8BcKeVkp/PZxgoAd6VSqVuWLl1a0PMxVCnQ4YFMOp2etmTJkk+dToTZ73MFQPZQluUAalUErz7hOIz7zrdVhMo7/e3tWPY/P4NMFUzP5pan/dsrKyufzrNNP3TDMO7H0PebSEspz4pGow/ZmVQe08Lh8KFSyjOllCcDqHAoj00AnpJS3h+NRl9BkffEWFBoqwd+ZZqmvdu+s7zwuQIgFAqdLKVUcjKUb9pUTLnxBpDLpSJcXko88STW3n2v02nsyioiupuI7mxra+twOpmdIMMwLgPwCwBlO3ndEk3Tzi6UNeR2q6+vL/H5fIdomjYHgwd17QP7dq8TAFqllC8T0TMVFRVv5FkhmfcKZHigoHbVZCO3bQHwlIp1yKRpmHz9tTk70McxQmDpD3+EgaUdTmeyLQHgXwBur6ure7qQvshNTU0TMpnMtzH4pNSIwR3Y1gD4AMCjbrf7YT6/fMemTZs2RtO0QzVNm47BA4fCGJyUNtybTRJAG4BWAIsBvJ9MJt/O7l7JLMoOD8zNDg/s7nQ+2xJCHBeLxZ52Og9mr88KgEAgUKtp2kooWHY09ktfxPgLv2c1TEHoa23Dsp9eDsi82M10NYC/ArjdNM0lTifD8sfUqVN38/l8tel0uoyIKohorBCinIjcRLRRCCE0TdugadraTCazulB3VSxAZBjGHCnlJUR0DPJkeICI/hmJRE52Og9mr88KgGAweAkR/dFyQK8Xgbtuh15ZaTVUwei88f9h85tKDrQbCQHgRQw+7T9TSE/7jLH/kx0eOA+D24M7ffbA5oqKihoe4ilunxUAhmG8BeBgqwGLeeLfjgwsW4all/ww170AnUR0t6Zpd7a2ti7LZcOMMfs0NDT4PB7PKQB+DGC6U3lkMpngcE/3ZIVFAwaPJoWCs8nJ7Ub18cdZTqq0gRrYAAAgAElEQVTQeKdMQfn+OTnaXQB4mYhOqaioaIhEIr/kmz9jxSV7NPJzGBzO2+xUHrquF/bObWyXXACQSqUOgYKx/8pDZsHld7rnyhnVxx2L7ndtW5K+Ukp5t8vluotv+IwVr3A4PFMIcS6AuXD+jAGeB1LkXABARHOkgu7rMYfPthyjUJU27w73+N2QWq1sDxQB4NXsCXxP8FgcY8WpoaFhrNfrPVcI8V0hRNDpfLK63W73CqeTYPbaskh/jtVA7ho/SqbvYTVM4SJC5WGHIv6I9W0UpJS3ZjKZ3/BuXIwVNTIM41IAv5BSjiXKn+MDpJQv8HLb4qc1NDT4pJR7Wg1UcfBBIC0vVrA4pvKQWUriaJr2Ft/8GStes2fPdhmG8TcANyL/NgSSGMyLFTnN5/MFoWDnsNIZMxSkU9i8kybBVVWlIlSTiiCMsfy0atWq3wE41ek8tkdKedtoOmNjNNOklGHrUTSUNufdZla5R4SyGdZX7Ugp+cNkrEgFAoEDpJQXO53HDrxQWVl5idNJsNzQhBCG1SAlgUZopaUq8il4JXsoOfSLCwDGipSmab/Adk5idVhKSnlDXV3dsTzhePTQiMjyhv2eyfl2MqlzvFOmqAjTGAgEvCoCMcbyx7Rp08YAOMrpPLayWUp5K4BwNBq9jHcSHV1cABqsBvHWT7SeSZHwTKxTEcaladpEALyfP2NFRNO03QF4nM4DwAIAt7vd7odaWlq6nU6GOcMFwPKm/Z6JXABsoVdUQK+sRGaztQ28pJS14AKAsaKiadpuDja/EcCDRHR7JBJZ6GAeLE+4AJRbDaKrmfleNFzVVZYLAAC1KnJhjOUPItqkYtO1YVoA4Hafz/fgwoULe3LdOMtfLgAVVoNoJU7vWJlfNJ/PegxN41mVjBWfCAbX2ds9CXADEd2fyWRuj8ViLTa3xQqUi4jKrVakXAB8norPQ0ppvYpgjOWVSCTSaRjGxwD2sqmJfwO4I5lM/j17qBBjO+RScaPRPJbPESoqKnoAiIg/VMaK080A7lAYbyOAR4noZh7bZ8PhIqJ+KaWl7mYxkLS+lWAREf3WC28pJY/VMVaE6urq7l21atV3pJQHWgy1AMDt3d3dD3R2dvaqyI2NLi4pZRcAawVAX5+idIqD6FNSAHQpSIUxlmdef/31dCAQOEXTtH9j+Muw1xHRX4nojra2NtOG9NgoogGwfKPhAuDzFH0eXAAwVqRisdgKXdcPAvDaEF4uAbwC4DS3210fiUR+wjd/poILgOVNINKJhIJUikc6HlcRxvI6QsZY/mptbV0F4AjDME4govOllIcC2HoC0WIAT2Yymbvb29tjzmTJipkLCm40yRUrFKRSHNIbNyHTbX1jLR4CYGxUkKZpPg7g8ZkzZ7q7uromSSm9qVRqVUdHx0ank2PFzQWgA8ChVoIkV3YqSaYYJFeuVBEm7fV6l6sIxBgrDNlDeHj3T5YzGoA2q0EGli1TkEpxSCr4LKSUS1taWpIK0mGMMca2S5NSRqwGGehYBtHDq9YAoGfhIssxiMjyz4QxxhjbGSUFgMxk0LvoExX5FDYp0fuJkl03uQBgjDFmKw1ADIDlM6B7Pv7YejYFrn/JEhWHAAEKhmUYY4yxndFisdgAgA+sBuqa9zZkJqMgpcLV9e95SuIIId5WEogxxhjbAS37/69aDZTeuAk9H35kNUzBkkJg85tvqgi1JhaLtaoIxBhjjO2IBgBSSssFAABsenUom1oVp96PFyK1XskGQK9icOcvxhhjzDYaAPT09MwDMGA1WPc77yK5apXlpApR4oknVYVSUowxxhhjO6MBQGdnZy8RvWs1mMxksOFxZTfCgtFnRpUNfxDRK0oCMcYYYzuxZQ4AhBAPqwi48ZVXVXWFF4z4I4+qCvWfSCSyVFUwxhhjbEdcW37h8/keGRgY+AMAr5WAMpXCunv/irofX2o5uULQ89FH6J7/vqpw96sKxNgWzc3NnmQy2SilHKdpWhkRlUkpqwCUASAA3VLKLiLqI6LNmqYt1zRtGe9GyUarUChUAWAqgJpMJlOmaVoZgEopZSWAAU3TegB0ZTKZTbqu90gpV5mmuQxAQS2Fo63/IxQK/UNKeZKKwJOu/F+U7bO3ilB5S6bTWHrxD1Tt/58EMNE0zfUqgrHRKRwON2QymdlENB1AGEAIg2fO68MMlQHwKYB2AK0A3s5kMvPa29v5jApWTMgwjBkAZgHYHYPflxCA+hHEGpBSRjVNi0gpI1LKD4jojXy+pm9bABwvpXxCRWBPXR0a/vj/oHktdSjktfUP/Q3rH1bW/f+EaZonqgrGRodAIFBLREcR0RwAhwOYZnOTy4no31LKp4no2UgkwqdWsoISCoWmSimPBHAEgDkAam1sTgBYCOA1KeWrPT09r3Z2dvba2N6wfK4AyB5H2QGgTkXwMUcegQmXXKQiVN7p/eQTLP/llco2P5JSHhuNRp9REowVtUAg4NV1/VgAZ0opjwbgdiiVfgAvAvin2+1+vKWlxfo52IzZYNq0aWNcLtfxAOZi8MZPu3iLXfoAPCOEuD8Wiz0Hh4cM/utDMAzjUgC/U9XAhB9cgjFzDlcVLi+kN25Cxw8uRTqRUBXyY9M09wav/2c7EQgEmonoIiI6FUCV0/lsYxOAu4UQN8disXank2EMAEKh0BwAZ0spTwRQ4nQ+21hGRPe7XK6bW1paVjuRwH8VADNmzCjr7+/vAFCjpAGvF5Ov+TVKjKCKcI6TySSWX/krVYf+AACI6NRIJKJsLIEVl3A4PFMI8XMAx2OrlTt5SgB4joiui0QiavbGZmyYQqFQSEr5Fwx28ee7PgB3pdPp3y5ZsuTTXDa83W6QYDD4cyK6WlUjekUFJl93LbyTRjKvIn/ITAadv/0dut5+R2XYNtM0mzF44WTsM4FA4ABN064AcLTTuYzQk0KIn8diMXXVMmO7YBjGLABPIf96yXYlCeB+TdOubmtr68hFg9stALLjJR0AxqpqyF1bi8m/uRruceNUhcwpKQTW/OVWbPzXS6pDn2Wa5n2qg7LCZRhGjZTyeiL6Npwbq1QlQ0T3uVyuy53q5mSjR1NT05RMJvM+FPVgO6QPwA1CiN9kD+uzzXaXBm3YsGGgpqZmAAqfPERvL7r+PQ9le+0JV5WyuiInZDqNVb//ox1nHSwwTfMS8Ng/G0SGYZwJ4EkimoXCv/kDg0MWewshvuv3+zfE43HLJ48ytiPV1dUPAtjL6TwscgOYTUSn+P3+tng8vsSuhnZ4gZk9e7ars7PzfQB7qmxQKytD/S8uR2nz7irD2ibT04OV192A3o8Xqg4tABxgmuZ81YFZ4QmHww1CiAcBHOR0LjZ7PpPJnMf7CTDVDMPYE0AxHkl7PxFdaMeS2x1uDtLR0SH8fv8HAM6GwicRmUph02uvA1KipHl3EOXvQ05/+xKs+N+r0G/PpOZbTNO8w47ArLAYhnGClPI5AIbTueRAUNO079TU1LTG4/GI08mw4uH3+78HYLbTedhgTwAnVVdXv5VIJJQOo+10d7B4PL7S7/dPBrCPykYhJXo/acFA+xKU7bUnNJ9PaXjLpMSG555H5w03IrNpkx0trPV6vV9bu3Ztvx3BWWGYPXu2y+PxXAvgT8i/JUp28gE41e/3l8Tj8dfAQ2BMAb/f/yMUbxHtJ6Kz/H7/ung8vkBV0F0+fk+fPr1qYGDgQwBTVDW6Nb28HLVnzcWYo44Eac6vcBpY2oHVt9yKvjbbHk4kgK+Zpqlkx0VWmMLhsF9K+bSU8kCnc3ESEf3L5XKd3tLSomxTDTY6hUKht0fD94mI7pkwYcK5r7/+etpyrKG8KLsc6U3YuONYiRFE7VlnonT6HnY1sVPpRALxv/8TG55/ARD2rciTUv4xGo3+wLYGWN4LhUJ1UsoXAEx3Opc80SqE+GIsFlvhdCKscBmG8TwKd8nscD3T3d19qtVthYd0QEgikVjh9/t7AXzRSmM7k44nsOnV19Dz4UdwVVXBM2ECkIP5Aam1a7Hu/gex6g9/Gnzql7b2Rs73eDynr1u3rqBOjGLqBIPBJiJ6HcXbVTkStUT0tXHjxj23fv167glgI1JdXb0fER3gdB45Yng8ntl1dXWPWxlKHs4dlgzDeAzACSNtbDjctTWoOPQQjD3qSHjqlBxN8BkxMICe9xdg06uvoXvBB7Y+8W9lI4CZpmnatqSD5bfsjn4vAvA7nUueWqXr+hdbW1s/cToRVnhCodDhUspXnc4jx1oymcyc9vb2tSN587AesbMbBL0BxUsDd8UzeTLK95yB0hnTUbJ7E/SKimG9X6bT6F+yFH2LPkHPwoXoW9wKMWDr/grbSkopj4lGo8p3EWKFobGxMaDr+lsAdnM6lzy3Vtf1Wa2trVGnE2EFR9s3tHt0s0zbfSJmvlmYTCYP6+jo2DjcNw67j72pqWlCJpN5C/YfO7pD+pgx8NZPhGfCBGhjKqGVlEAvKQFcLsjePmR6eyH7+5FcvRrJFSuRXLMmV0/52yMAfNM0zYedSoA5KzvmPw9Ag5N5VJYRpkxwocxHqCgllPoGJ9329gt09Ur09EssW5XG5h7HJ+WbQohZsVhsndOJsMIQ/fKXvWPSY274uL/74kvWmKRqjLVWd2OCywsfEco0HWWkIwWJPinQKzLYJDJYnupHv3R8J/dXhBBfHe7OgSMaZA8EAo2apr0FYPxI3j/KXGqa5u+dToI5I7uK5g3keMJfmY+wT9iNL+zuwfRGN6bW6RhbMbRVNhs2CyxdlcGiWArvLU7ig0gKvf05Lwrmu93uOXzEMNuVNXNObSSNHkV2ufqT3etxY+LTYa8trdbdmOmrwD7ecgQ9pZjs9qGUhvadWZ1OYnm6HwsHurGgvxuLB3qQzv3q1r+bpnkahnGuzIhn2QUCgX00TXsFCs8LKDZEdHUkEvml03kwx2iGYfwLg+eP267URzhyPy+OmeXDvk0e6IpW1WYE8F5LEs/M68er7w/kshh4zDTNk8H7BLAdWPfFb8yUQjwH4HOHzLzVtwnXxjuwWey8L6Bac+FL5X58qbQajZ4SZTve9UuBeX2b8GJPAv/p24Qczvq+zjTNnw31xZb+voFAoFnTtBcAFPYxf+pJAL8yTfNKpxNhzjEM4woAV9rdzuTddHz72FJ8+UAfSrz2rpzpG5B47u1+3PNML5avsf+yRkQ/jEQif7C9IVZw1h1xyuGStCcAVG7vz7tFBv/oWos3+jYhluz9rIos13Qc5KvEnNIqHFg6dmhL4SxIZFJ4qieORzevxWZheen+rggAx5im+fxQXmz5apE9felFACGrsYpEhojOi0QidzmdCHNOdkbySxjiUtuRmFbnwnknluKo/b3QtdxuqZ0REi++m8Rtj3ejY5WthUBKCHFoLBZ7185GWGFZc9RpJ5LE3wB4h/L6fiGwSabhhYaxusvm7LavTwo80bUOD2xeg032FgLrhRB7D2VfDSVXjUAgUKtp2nMA9lURr4D1APj6UKsvVpymTp26m9vt/hDABDvil3gJ53+tDGccXQqX3Y8vu5BKA399tgd3PtWLvgF7euqJ6NOBgYE9RzLLmRWf7JP/8xjizT/fdIk07t60Go91r0PGvn1n3q2oqDh0wYIFqZ29SMnlI5FI9FZUVNzvcrkqAeyvImYBihDR0aZpznM6EeascePGPQBgPztiH7CHB7deNhaH7OVFHuycDV0D9gl78JWDfTCXpdG53pbZ0GN0Xa+Ox+PP2BGcFY41R5w+A4QXACp3OpeR8pKGA0oqsb+vEh8NdO9ynsII1SeTyd54PP7Wzl6kvN8wFAqdIaW8BUDB/oBG4H63230Bz1hmoVDoaCml8h4gXSOcc0Ipzj2hNOfd/UMlJXDvs7246dEeZITyJxsJ4FDTNHd6QWPFa/UXvz5VE/q72GbCXyHrlQI3Jj7Fv3rUb4BJRL0A9ohEIkt39BrlHYjxeHyh3+9/HMBhKPJNT4iol4jON03zf9etW5d0Oh/mrPr6+hK32/0sgCqVcSvKNPz5J2Nx/KE+aHl8fDYRsLfhxoyAG298mEQypbQIIAAHVlVV3ZlIJHgr7VFGzjzX3edLPQ0g7HQuKrmJcFjpWIzRXJg/0KV6uYsbwJR4PP7Ijl5g29Vk5syZ7u7u7guklFejOHsDniGiS3ZWXbHRJRgM/oqIlC77rBmr4ZbLxsKY5MzEpZGKLEvjezdsRHyT8iGBn5mmeZ3qoE7LXi9PlFIeAyAopfQT0VoAHxLR45FIpKi3uA2HwwcJIU7C4BByLYDNAGIAnuzt7X3yg9AhvwHJ7zuapM3e6N2Iq+IdSCreVEhKeWw0Gt3u8JntjxOGYUwE8BsAc+1uK0dWArjcNM37nE6E5Y9p06ZNdrlcJhROTJpYq+OOy8diYq3DM/1GaMXaDM65diM61yt9YE+k0+lpS5Ys2aQyqJOCweBXieiPABp38rK3dV0/r9jOSchuKncHgMN39Bofaesv90/xzymtyt/uL0U+HOjGT9bGVO8sGKurq2va3vHBtl9Z4vF4Vzwef7y6unoBEe2Bwh0W2Ajguu7u7tM7OjredzoZll9qa2uvAaDsLHL/GA13Xl6FSbsV5s0fACrLNByylxcvvDuAfnUrBEo0TUvG4/HXVQV0kmEYPyKiu7HrA6ImSSnPrKqq+iSRSJi5yM1uhmEcQkSvAmja2evSkKWv9W6klJTY1ze8c2AKzQSXB4a3FK/2bBj6dn67Vt3V1dUej8c/3vYPcl5RGYZxJIBfAyiUYxvXA7g5mUz+gZchse3JLvtbCqBERbzyEsKdl49F01S3inCOW7w0je9eswE96nYQ7BZCTCv0swJCodDJUspHMbzrcAbAGYV+tkj2cKz/AKgezvt+UFWPkyuKZg7gDv2rJ4FfxztUzgloM02zGdtsE5zzx4t4PL4kHo/fVV1d/TaAcUQ0FUAeLGj6PClllIiu9fl8cxcvXvzSxo0bR3zmMituu+222xUYnPRqGRHw24vHYr/dPSrC5YXaKg1Txuv413+UncDpAdCfSCReUxUw15qbm6szmcwrAHzDfKsG4Pjq6uqWRCLRakNqOVFbW/sAgBnDfd+CgS4cXeZHuVa4PWND0egpQRoSHw8oW1hWU1NT0xKPxxdv/ZuOfYqJRGJJIpF4oKam5k4iWo7BoQFbNk4Zho0A/g7gx9Fo9NJ4PP7OmjVrdrqRAhvdshfyBzF4U7LsjC+X4ptfUtKRkFemTXRhc7fEonY1XyciCjU0NPxp1apVjh/DNhJVVVWXAfjSCN+uE9HXCrUICAQCBxDRiCZyCgAZSBxYMkZxVvlnL18FPhrowuq0sgVmwXg8ftvWv+H4k3ckEumMRCJ/NE1zHyHEPgCuAvBvALlaVmdKKW8FcKIQYrxpmmeapvky+AASNgTJZPKbULTKZfepLvzg1GJcMDPoh6eXIdygbFhjfHd394mqgjngaxbf7yaih4PBoNU4Oadp2nesvP/N3o2j4uKsA7jCPxWVmrIVQHsFAoHPDb3n7azKGTNmlCWTyVlCiMMxeMyjAWAyrOW8AUAEQAuANwG8YprmSsvJslHLMIz5ULAFtq4RHvrVWJU3yLzU2pHGN/93g5KNgqSUr0ej0R3OHs9XDQ0NPo/H06coXEHNCairqystLy9fhR0c4DNUT0ycjhq9uL8rWzzVvR43JD5VFe4vpmleuOU/8rYA2J66urrSsrIyg4hCRDRBCFFOROVENDb7axeATUS0WUrZI6XsBrCeiNqFEG2FPmmI5ZdgMNhERIt3/cpd++aXSvE/c4v36X9r19zThUdfUXL/k7quh1pbW6MqguVKIBCo1zRtucKQKSnladFo9DGFMW1hGMZcAJaXUN8zPoygp1RBRvlPSInvrTXRMtCjIlzC7XZPaGlpSQJAQe0u0tnZ2Qvgo+z/GHMUEZ2pIs7YCg0XnFymIlRBuOTUcrzwbj8291juBSAhxIkAblCQVs4IIbo0tQc5bBkOKIQi4FsqgpQV+STArWlEuLRqEr67uk3F0Ed1KpX6KoDHgTyYA8BYoSKib6iIc8bRJSgvKajOOEsqSgnf/JKapzcp5fFKAuVQdhOjNYrD5v2cgKlTp+4GYLbVOD5NQ61ePKtkhiLkKcXBpWOVxCKib275NRcAjI2AYRhhKeVkq3EqSjWcemTxzfrflW98qRRlPiVFzwHZG0tBIaLnbAib10WAy+WaAwX3nP19lXDn8ZkYdjmzUs0/cynlEciuAOQCgLERICIlk89OmlOCyrLR9zWsLCOcNEdJ4aN5PJ5jVATKJSnlHwGVm719Jm+LACI6QkWcOaVKz9oqGLt7yrC3V8k8obGhUGhvgAsAxkZECDFHRZzjDlF2dEDBOf5QNT0fUspDlQTKIdM0P5ZS3m5T+HwtAix/Zyo1HYeMgj0AduQr5bvaMXrI5gBcADA2EhoRzbYaZPepLjROLKh5uEoF6nVVyx73VxEk1zwez/cxuOeJHfKqCAgEAo0AplqNc2RZNTw0em9bh5dWoUTB319KeTjABQBjwxYIBJoA1FiNc8zBo2/sf1tfPUhJD4jR3Nw8rD3l80FLS0tSCHEMEb1jUxN5UwRomnawijhfLCu4H7NSPtIwS81kwFkA1K5FYWw00HV9p6eXDdWBM0bHRiY7c+B0JbO5KZ1Of0FFoFyLxWKbvV7vURjcmMwObiJ61DCM02yKP1RhqwFKSUN4lKz935n9vEpORCyfNm1a/ejtf2RshIQQIbI4C9k/RsPUCfz1C9S7UF2pIbHZ8ny42wzDKMiNvvr7+wFF20nvgA7gvmAwmHRwnwDLBcA+JZVwFdbedbaYqehIZE3TwnwFYmyYiChkNcYXdvdgFK5k+i9EwH67u/Hiu9ZOCswuybS8LLOIOb1ZkOXvjKIZ8AVvN5cH9W4vVqSsfWeIKMRDAIwNn+WLWXjK6NnJbFeaivz8gzziJqKHDcM4IZeNzp492wWg0WqcgJvnzGwRcFn/LLgAYGxkAlYDNNTxTW+LhglcDOWQm4geDAQCe+eqwVWrVk0CYHm252S3T0E2xaHBY70AkFIGuABgbHgIgOWFyHzT+z9T+LPIKSllKRHdhxytAstkMpanrZeSNmpO/xuKyS7rq2eIaCwXAIwNQ11dXQmy22haMaGGv3pb1NVwAZBrRLRHKBQ6KRdtaZpmefB+N5eXp/9tZbxLyeqZCp4EyGwTCoVCUsojiKhOSqkBWEFEr0QikYjTuY2U12t9DY7bBXjdfDnbwuchuHQgnXE6k9FFSnkygL/noCnL35nRdPrfUJSSks+DCwCmnmEYRwC4Vkr5BQCQ8v8OsZRSwjCMjwH8ube398EVK1YoORg+V3Rdt/w0U+Llm/+2Sn2k4nhgNjy52kHRcgGgYve7YqKoIKrgT5WpRKFQ6GoALwHY2cYsewK4o7S0dLlhGNdNmzatYJZvqejOLCvhr922+DNxRE5OUSSiMqsxSnjPus9RVBCV86fKlDEM40op5c+BIQ/X+QFc5nK5lhqG8bRhGEfamJ4SQoiU1RjJFD/pbos/E0d056IRKaXl70xa8r+PraVg/fMgoiQXAEyJcDh8EIBfjvDtGoBjALxkGMYHwWDw2w0NDXm55kdK2WU1Rt8AX8y21dvPn4kD2nPUjvXvjLTj5OTC1SusT5iRUnZxAcCUkFJei6E/+e/M3kR0t8fj+TQUCl1tGMZEBTGVyWQySgoAwdezz2SERH+SCwAHPJ+jdix/Z1Tc8IpJj1TyeXABwKwLBAL1NpzJXpsdTliWT8MDDQ0NlrtNpQQ2dnMFsMXGLgnu4c25PiHEXTlqy3IBsFGkVeRRNDZmlHweXAAw6zRNmwM1T//bo+P/hgfmG4YxNxAIKDlDdiRef/31NADLKxeWreInmi06VvHF3QHXx2KxFbloSAhhuWhem06in4cBPrM8be0cgCwuAJgS9TlqZ18A92matswwjCubm5vH56jdba20GqBjNRcAW3RwMZRrz5im+etcNSaEsPx9kQCWp/oVZFMcPlXzWazkAoBZRkS5voLvBuCKVCq1zDCMR0Oh0ME5bt/yRkbtK/ipd4v2lfxZ5NBLvb29pwDI2eP0kiVLNgFYbTXOUi4APrMsreSziHABwCwTQix3qGkPgK9LKd8yDOOdYDB4+syZM3OxYbjlAuBD0/LKqKLxQRt/FjnyUm9v7/FObL5FRJa/MwsHcrJqMe8lpUDrQK+KUG28EyCzzOPxvJpKpSTsmwcwFAcQ0QFdXV2/NwzjXgA3maZpuetxByxfzFqXptHVK1BROrpr8K5eCfNTJR1IvwHwqopADjkTwFwb4zt28wcAKWUEwGFWYnzQb3kuYVFYNNCDAQXzIaSUES4AmGUtLS2rDcN4HsBXnM4Fg8MDlxHRxYZh/MHn8127cOHCHpUNCCEimsWdyTJCYkFbGrP3UXKoR8GavziJjLC+BEAI8UAsFlusIKWcCwaD3yKib9rYhKM3/yzLRfOn6QGsy6RQO8pPBfxQTU+ILCkpiY7uxw+mjBDilwDypi9XSlkK4PKBgYE3Q6FQncrYQoiPAFgeuH75PR7TfHm+ktnMm2KxWJuKQLlmGMZZRHQX7DuaNx9u/pBSvq8izuu9G1SEKWiKPoPWhQsX9nABwJSIxWIfALjU6Ty2JaXcR0r5TH19fYmqmNlJTR9YjfPy/IFRvQNe34DEawusFwBE9B/kcFKbKoZhHALgdhT5zR8APB7PuwAs98S92JNQkE3hak32okPNZMhXAfv+4bFRyDTNPxPRBVDwdKzY3mVlZVcpjml5vLlvQOLV95U8ARekl95TUwAJIf6jIJ2cqqurKwXwCAYnstohb27+ANDS0pIE8LbVOG3J3lG9GkBVASSlfA3gAoApFolEbhFC7AXgGUDBiRXqXNjY2DhOVTAppZIJZw+/nBfXZ0f87V9KZjJDSpmrLc37+i0AACAASURBVG2VKS8vPx/ABJvC59XNfyuvqQjyWNc6FWEKTo/I4MWeuIpQgojeBLgAYDaIxWItpmkeq+t6iIj+BAVdf1ZJKUtdLtcxquL19PTMA2D58X1RLIV3P0kqyKiwzFuYxOKlSjqKVsdisYLrAQBwik1x8/Xmr6xofrYnjngmb6Yb5cw/utahS8GZCET0kWma6wEuAJiNWltbo5FI5Pter3eSlPInADqczEcIoWzDoM7Ozl4p5YsqYt3xpOP1Uc7d/oSyv/NTKLDx/+xeFfvZEDpvb/4AEI1G5wOwvGdIUgo83LVWQUaFo18K/L1bzd9ZCPH4ll8XfAEQCAQqm5qaJjQ2NgYMw9jTMIxpTU1NU6ZPn14FZ9els6xFixZtiEajN1ZUVBgAcnUAyX8hIqVbB2uadr+KOO+3pvDGh6NnLsBrCwbwkbqNkJ5UFShXurq6xkH9tTevb/5ZAsCDKgI91rUOnWr2wy8I929ereoAIKlp2mc/g7zfByAQCFQS0V5EZBBRCEBICBEmot0AVAJAJpOBruufvSeTySCTycAwjBSANQBWAOiQUrYAWCyl/DgWi+XqLOxRL3uk79nd3d1nA5jsYCpKZw9lMpmnNU3bAKDKaqzr7+vG/s0e+DzFXbP2DUhcf7+yHd3WuN3ul1UFyxW3292XSintwi6Emz8AQEp5HxH91GqcASnwu8Ry/G5cQEVaeW1FagB/26zm6V9K+YZpmku3/HfeFQB1dXWlpaWlszRNOxzA4Rg8AEYHAJk9M5RoyBdJNwYPqqnH4E5xn73fMIxVAN4C8CYRPRuJRJbuOAwbAT0YDB4N4FwAXwWgS+fPfFX6M47FYgOhUOhRKeV5VmOtXJfBXU/14sKTy1Sklrdue7wHq9YrOzriruzs8oLS0tKywTCMjQDGKghXMDd/AIhGo62GYcyHgiGQ//Rvxpu9G3FoqYqPMT9JAL/bsBxJRSchbttrmRcFQENDg8/r9R4npZwL4Iuwb2nM1iYA+DoG95K/yTCMhUT0FIAHIpGI5V2rRqtAIFCvadrZAM4GMMnpfLbxguqAmUzmXk3TLBcAAHDXUz04aLoHe4eKc6ez91uTuO85ZfepjK7rt6sKlmMSwL9gfSJgQd38t/JXKJoDccOGT7G7tww1Rbo74D+61mF+/2ZV4Xoymcw/tv4NR/sbw+HwQUKIszD4RcinMm4eEd3T09PzUAF+uZygB4PBL2uadq6U8ivI9tjkmc6KioqGBQsWKJ8+bBjGmwAOURFrt2odj15ThbEVBT8953MSmwVO+XkC6zaoeZKRUj4VjUaPVxLMAdlNgN60EKJQb/6oq6srLS8v7wBQqyLeXr5y/HGckZcXHStak724YE0EKXU9p78zTfPHW/+GI5+ZYRhH1tTUPCClvALATAA+J/LYickAjnO73ef5/X5/TU3N4ng8zidRbCMUCtXV1NRc4Pf778tuABRCnk4slVJe/8knn7xuR+za2tpOKeUZKmL19EmYn6Zx9IE+WDxuIG+k0sAPf78J0eXq9ofSdf389evXdygLmGPxePxTv9+/J4CmEby9YG/+ANDV1ZXy+/1uAEeoiLc6nURSCuznq1QRLi9syKTww3UxbFaw7C+rX9f109avX/+5CTi57AHQQqHQ16SUPwewVw7btYyIeqWUf0omk9d3dHRsdDofhxXC0/62+jOZzJT29nbb1g5lxzX3VRXvmFk+XH1eJYY+3SU/CQH8/NbNeO5tpfMvXzFN80iVAZ0wbdq0MS6X6x0Mrwgo6Jv/FoFAoFLTtGVQ2PN7UVU9TqtQtteXY3qlwMVrTESSajbKyrrZNM2Ltv3NnFy8DcPYz+/3Pwng+wCULsXKETeAWbqun1tdXS2mTp06f9WqVQW19tiqxsbGSbW1tZdmn/bPRx4/7W/HA7FY7CE7G/D7/esAnKYqnvlpGr0DEgdNL+zTAn/7YBcee03t1q1CiDMSicQKpUEdsGHDhoHa2tqHpZQzAUzb1eullLdUVlbOjUQiBb/+LZFIDNTU1JQDOFRVzPcHujDR7UOjW9mxHzmXkhI/XdeORQNK9wZJZZ/+N237B7Y+XzQ0NIz1er1XSSkvRGE8KQ6VCeAC0zRfcToRm2mGYczB4Ez+E5Enk0aHi4j2i0QiSk4j21kzoVBonpTyQJVBv/H/2bvv+Laqsw/gv+deDe8lOyTOcmzpysbEjJRZXgihoZRZCpRVKAVK6X7bUloKb4FCW9pSSillFyijg7L3Cgm7QMNIYmxdyYnJHpbs2JZsjXuf9w/bNECG7XuurmSf7+fD5wOx9JxjBd2zn3NEEX78lZK8Ww4wTeA39/ThH88LH6g+qeu6sIyOOYI0TfsygB9haBZp2+dyCkP3TvxS1/VXnaicXebOnVuZTCbbAQgbtqtEuLByJo4tqRYVMmsSbOLiLR1YOih2tZmIrg+FQt/f7s+ElrSNQCBwGhFdB4F/uTmGiehWr9f7I9H3zTutoaFhpqqqIzv5ZzhdH4te1XVdyAa9XQkEAnsR0X8guLN75IFDywHuPOl+pdKMn93Ui+ffEj5QTZmmuU8kEmkVHThXNDc3T02n0wEiqiKiLZlMZkUkEhG2DTzXBAKBrxHRHaLjnlG2G75ZMV10WNvEjDR+vKVD9LQ/AGxKpVKNO1q6Ft4BGD7S9xtm/p7o2DlqlaIoX2lvb7d805XDJsRo/5OI6ORQKPTArl8pRjAY/KMd/+/vpbnxm2+XYaovtyfSNnSZuOiGrVgWEZ+rnYiuCoVC/yc8sOQkGj5Fc7DowEcUV+HHVbNQSLk9fdaajOOy6CpszIhPacHMZ4TD4R0ufwrtAAQCgSYA9xPRHiLj5oE0gP/Vdf1GpysyVsOj/fMAnIP8H+1/0pra2tr6JUuWZO164uHNTW0AakXHLi8hXHVBGQ7Zyys6tBBL3kni/27pRW9cfMInZg6n0+mWzs7OyXsX7ATl9/ubFUV5F0N7rYSa5fLiypr6nNwXwBg6539jz1qRR/229bKu6/Oxk1tZhQ0nNE07hYieIKKJ1oiMhgrgaJ/PN7OysvLZWCwm7OyGTdRgMHisz+f7vaIoN2Ao4+LEOUPzX1cvXbrUylnrMYvFYsmqqqoPiUj4bW/JFPDMG0ms7zKxV8CNQm9uHBGIbjXxq7v6cP39cSTtycvHqqqeFIlEIrZElxwVi8W2+Hy+AgjKpbGtraaBp+IxGGA0e4uh5sixmlXpAfw82olH+rfYdZNVnIiOjUajXTt7kZBPIxgMfp+Zr0X+7Aq30yupVOq4XDwuWF9fP8vlco2s7efPAtn4DCiKMrO9vV3IBdpjpWnaDQC+bVf8smLCd79cgi/NL4TLoVWBdAZ44MUB/PnBOPrith6K+Y2u65bzx0u5a/78+a7169cvhg1LASOmu7z4XuUMfLaw3K4idqnfNHB370bc37sZmR0PzEU4S9f1XV5WZrkDEAwGf8LMV1uNM8G0mqZ5ZCQSyYWjShNybX8UbtN1/XynCvf7/V5VVV9n5n3sLGdatYIzv1CMEw8ryNpFQukM8My/B3HLw3Gs2WTvZBcRvVFSUnKoHRkcpdwynEb8XQC2buH3ewpxauluWFhUmbUZgV4zgwf6tuBffZvRJy65z3Yx8x3hcPjc0bzWym+vapp2M4DzLMSYyFYahjG/o6PD8v3X41FfXz9LVdXziOgcTPzR/qcQ0Z6hUGiZk3VoaGjwq6q6FFlYXqmuUHDswQU45uAC+GfY08eLrDXw+KuDePyVAUS3ZiUNxmYi2jsUCq3PRmGS8zRNOwrAE8hCkro6dwGOKvFhYVEVamy4S4ABvDfYh2fjMSxKdGNA0IU+Oy2TeUU8Ht9//fr1ozpOMO4PORAI3DScEEbaAWYOu1yuQ9va2jZko7z58+e7NmzYcDQznw/gSOTPkozBzE8S0QIAJVaDMfOScDh8mIB6WRYMBo9j5oeQxTwYjXVuHLq3B/vt7kGL3wWPe3xf82SasSySwVutSbz0bgqhD7O2lxIAUkR0ZCgUWpzNQiXnaZr2cwBXZKs8hQh7e0twQEEZ9ikoRcBdCGWcMwP9poH3kv1YOtiLlxNbscnI6mWVUSL67FgusxvXb6lp2hUAfj6e99pBKSqC4vWC3G4Y8TjMgYGhTCS54QNFUQ6xcy26qalpdiaTOZeIzoUNu8/tQkSrmfkvAP5CRBozvygo9Jd0XX9YUCzLNE07D8CtcODyrQIPITjbhTm1LtRNUzFzioKSIgVlxcpHmwgHkozeuIn+BGPNZgOdGwysXJeBvjqDwZQjVzibAM7Qdf0fThQuOS8QCNxIRN90ouxSRYXmKcIMlxez3QWoVT0oUl0oJgXFpCINEwOmiQSbiJkZrE0PYnV6EB9mkliZHoDhzLXncdM0PxeJRP49ljeN+YGkadq3APx5rO+zilQVBVoAhbs3wTN9OrwzpsMzfTrU0tLtvp7TaaQ2bERq3Tqk1q3HYCSCxIpWGL2O5NR4xTTNhZFIRFhmlOFNM8dgaG3/88if0X4GwJMAbtV1/RkMPeyhadrDAL4oIH6nrut+ADl1EiMQCFxCRFc5XY888UNd1//gdCUkRymapv0DQ1e2SzuXBnC8rutPj/WNY+oAaJr2RQAPIkuNjVpSjNLPfhalBx6Awt2boBRYvDSQGcnODxF/5130LF6C1OrVYio6Ovfqun4WdnImczSamppmm6Z5HjOfgzwa7QP4kIj+wsx36Lq+btsfNDY21pmmGYGAaXJm/nE4HL7Gahw7aJp2PYDvOl2PXEZEvwyFQpc6XQ/JeX6/36soylMAFjhdlxzGAM7Wdf3u8bx51B2AYDA4h5nfgcDbm3akaI9mVB59FEr2/QzIY99lKIMdK7H1hUXY+sIimMms3K9xoa7rvx/rm/J8tP8EhnbkfzTa/yRN067BUB50q+Jer3fm8uXLuwXEsgNpmvZrAD9xuiI5Sh73kz6mtra2qKSk5H4ARztdlxyUIaJvhEKhcadSHlUHYN68ee7+/v6XRF908knFe+2J6tNPQ2Fj0M5iPsXo7UX3k0+h+/EnYPTbmtY/Q0TzQ6HQa6N5saZp04noKwC+xcyz7KyYYOsA3JvJZG5cuXLlTqdZhr/gawBUWS2UmW8Kh8PfshrHbjJvxqcwgB/JaX9pB1RN027BUP4SaUgcwJd1XX/KSpBRdQACgcB1RLTd24RE8M6ahd0u+DqK9nA2g7CxdSs233U3tr64GLBpIwcRrfZ4PHvtaJQ6PNo/FkOj/SOQP43EyGj/Vl3Xn8UORvufFAgEvkFENwson03TnJsvF8VomnYWgL9g8uRl2JEUgPNGk7REmtTk7Nl/xRRFOVbE/TO77ADYeS6TPB7UnH4qKo8/DqTmziUnAx+0YeONNyG52rYj/H/Vdf3sbf+gsbGxjplH1van2VWwDTqZ+XZFUe4cz3ntQCCwmIjmC6jHC7quLxQQJ2s0TfscgPswcW/M3JW1zHxSOBx+0+mKSPkhGAx+c3j2zOKGsLz1vqqqJ7e1tYVFBNtpoz5jxozCoqKiVgBzRBS2LU9tLWovuhAF9cJDC2Emk9h8y23oeWGRXUUcVVpa+kJfX9/I2n6+jfYfJ6JbQ6HQcxjlaP+Thjf5xCFg859pmsdFIpHHrcbJtoaGhimqqt4LIK86L1YR0Usul+vU1tbWjU7XRcovfr9/byL6JxEFnK5Llt3T399/wWiT/IzGTjsAwWDwSmYWviO39LMHYdr3vgOlMPduaPqkrS8uxsYbbwanhCd02IShhjPvRvsul+sOEcmNhnf/rxJQrw5d1zWMsyOSA9RAIHAZEV2C/OkEjlcawK90Xb8SOXZUU8ofwWCwlJlvAXCa03XJgj5mvmBn1/qO1w47AE1NTQHDMJZB8FRL5dFHYcrXzwUp+fOcS6xYgXW/vBpG3NYNgrnKALB4eLT/EAQ+tEV1AIjoB6FQ6DoRdXJSIBA4hIhuBNDsdF3sQETvMPM5uq6/73RdpIlB07QzAfwOwG5O18UOzPwsM387Eol02BF/h61wJpP5EwQ3/jVnnoHdvvH1vGr8AaBojz0w61dXQa2w/QRkLlkF4BJVVWfqur4wFAr9C4JHbP39/ZswtJxgKUw6nb5TRH2cFg6HXy4tLd2bmS/C0C7fiWIAwM+mTZu2v2z8JZF0Xb8nlUo1EtH1mFgzSusBfDUcDh9pV+MP7GAGwO/3H6AoyhsiC6o+/TRUnyr8ivSsSq5ejdU/vQRGf7/TVbGLbaP9HdE07RVYuwL0Bl3XJ1xynYaGhpmqqv4ewElwIIWwIBkAdwK44pPJnyRJtMbGxnnM/Ce7j6vbbJCI/uRyuX7R2tpqe0Oz3QeLpmlPAjhKVCGVR38Bu33DsZtZhRr4oA1rLrsiW4mDsmUlgNvdbved2d6UpWna1zGUJ388Mqqq7i5qR2wuamxsnGua5s8wlBI1d47K7BwT0UPMfKmu6+1OV0aaXDRNOxhDxwWPcbouYxAfzpT622x2lj/VAfD7/XsrirJ0ez8bj5J9P4Ppl1ycd9P+O9P3+htYd/Vvna6GVWkieswwjFsjkcgLcGgD3bx589x9fX0rAGhjfW++JP4RobGxUTNN82IApwOwLz2mNf0A7iai68dyI5kk2WG4I3AJhrKn5uosWg8R/ZmZr9N1vSvbhX/qQwkEAv8iopNEBHfX1KDuj9dCLbF8w2vO2XTr7eh+4kmnqzEejo32d2R4lPsGgOIxvG1ZQUHBQcuWLZtIa+W7pGlaNYBTAZwJYD+HqzNiOYA7M5nMHStXrtzqdGUkaVsNDQ0zXS7X6aZpnpsjRwdNAC8CuKegoOBBJ59hH+sADK87dkLAUSRSVcz69VUobGy0GioncTqNDy+6GIMdtu3PECnNzI8CuDUcDi9CDh6XCwQC+xPRIwCm7uq1RPSGYRjHRyKRLVmoWs7SNK2RiL7CzEcDaEF2jxAuBfCgoigPtre361ksV5LGixobGw80TfMMDM0KNGSx7CSANwE84na7/54rg6+PdQA0TbsYwK9EBPZ96QTUnH2WiFA5K/nhh1j1/R8CZs61pyM6ANyeTqfvXLVq1SanK7Mrfr+/RlGUywCcA2B7SSI2AvhdaWnpn5YuXZrObu1yW2Njo88wjPlEtADAYRhaUhG1Z8AgoveZ+TUArwF4VW7qk/JdfX39LFVVFwx/Zw4BMFtg+CSA9wAsZuYX4/H4ayIT+IjyyQ5AGwDLQ3Z3TTXqb7wB5PVaDZXzNt9xF2KPPOp0NbaVAvAoM9+Wq6P9XWlpaSkeHBw8gpn9ROQDsFlRlHemTp366pIlS6weG5wUmpubPclkMkBEQSIKYqhDUENEJcxcAqASQ0suhKG1+14iGjBNs5eI1gDoIKIOwzA6vF6vno0dyZLkpObm5hLDMIKGYWhE1MjMDQCqiagYQAmAMgDlGGrc+wH0Aehh5riiKBuYOQSg3TRNPRKJdCIPjiV+1AHQNG1fAG+JCDr9pxeh9KB8PokxeubAAFZ+8zvIxGJOV6WDiG5LpVJ35cNoX5IkSXLWtjeRCZmvL2ioR+mBB4gIlReUwkL4TvoSNt16uxPFpwA8iqEb+BZh6FpVSZIkSdqlbTsAR4sI6Dv5JIBy9cSFPSqOWIjovx5Epnu7N/zaIUJEt2cymTs7Ojo2Z6tQSZIkaeJwAR/lZLd8LZ9n+nSUHLC/9VrlGfJ4UHXcsdj817vtLCYF4BEMjfZfhBztS5IkSRa4AICZF4gIVr7w8AmV8Gcsyg5fgC333gc2hO/7kKN9SZIkSbiRDsBhVgORoqDskEOs1yhPuSrKUbzP3uh/+z8iwsm1fUmSJMlWI3sALHcAilpa4K72WQ2T18rmHyqkA0BEZ4RCoQcEVEmSJEmStktpbm6uAjDdaqDifecJqE5+K95nb5BqPfeKiP0YkiRJkrQzimEYQnL1luzZIiJMXlOLi1HQUG85jqIoTQKqI0mSJEk7pBiGEbQaxFVRDs/MmSLqk/eKWuZajsHMuwuoiiRJkiTtkEJEY76G9ZMKAoFJd/Z/RwqDlvtTANCE3L2+UpIkSZoAFACWWyzPjBkCqjIxeKZb3k4BAGXBYHCaiECSJEmStD0KgBqrQTzTawVUZWJwT5sqZCOgYRi7vBZXkiRJksZLwdAtR5Z4amUHYASpKtxTLPepoKrqFAHVkSRJkqTtEtIBUIqKBFRl4lCKiy3HME2zSkBVJEmSJGm7FAzdcWwtSGGhgKpMHEpBgYgwXhFBJEmSJGl7FCKyPgNQKKTBmzAEzYjIDoAkSZJkG4WZ5XGzHKQoivx7kSRJkmyjAOizGsQcGBRQlYnDTCSsxzBN+aFKkiRJthHUARgQUJWJwxwU0nYnRQSRJEmSpO0R0wGIxwVUZeIQ8XkoihITUBVJkiRJ2i4FQL/VIKkNGwRUZWJgw0B68xbLcQzD2CygOpIkSZK0XQoAy61Vau06AVWZGNIbNoINw3IcRVE2CaiOJEmSJG2XAkC3GiS1TnYARgj6LPp0XV8vIpAkSZIkbY/CzCGrQQbDYYBZRH3y3kDI8scJAB8AkB+oJEmSZBtFVVXLLVamZyuSq1eLqE/ei7+/zHIMIvpAQFUkSZIkaYcUVVXbRQRKLFsuIkxeM+JxJFeushzHNM02AdWRJEmSpB1SWltbYwAsrzf3v/0fAdXJb/Gl7wjZAAhgpYggkiRJkrQjCgAQ0RKrgRLLliO9pctyhfLZ1sVLhMQhovs0Tbtf07TPAZApgSVJkiThFABg5sVWA7Fpou+VV6zXKE9lerYi/u57osJ5AZwM4HlN09qDweBP/H5/jajgkiRJkjQyA7BIRLCe514QNQWed7a+sAgwTTtCa8x8taIoqwOBwL2BQOAQOwqRJEmSJhcVAKLRaI/P5zsbQIWVYEZfHwpmz4J31iwRdcsbZjKJDdf8Huagren7XUTUQkRf8/l8p1dXVxdXVlbqsVjM+s1DkiRJ0qSjbPPvT4oI2PWvByZdToCtzz6HTM/WbBY5MiuwJhgM3uf3+w+F3CsgSZIkjYE68i9VVVVRIjrPakCjpwfeWTMnzSyAmUhg/e+uFXUD4Fi5AMwlorN9Pt+pPp/P4/P5wtFoVM4KSJIkSTv1sVGjpmntAIJWg7p8PtTf+CcohYVWQ+W8Tbffge7HHne6GttKAnhIUZRb29vbX0IeZhSsra0tKi0t/RwzNzBzJYAtzPx2JBJ5C4AtGy0mGr/f71VVNYih2SINQ9/rKQCKiaiYmSsAlGDoGdCHoUvBBohoq2maa4moA0AHEXUYhqFHIpFep34XScoGv99fpqrqyHelEUA9M9cAKB7+pxRAOYAkM8eJqBdAL4A4gA0AQszcbppmaObMmZ1LlizJOPObjN7HOgCBQOASIrpKROCqLx6PKeecLSJUzkqu6sSqH/zIrs1/IoQA3Abgr7qu5/wZTU3Tqpn5UkVRvs7MRdt5yToAV9fW1t6cD1+ubPL7/TWqqh5mmuZhRHQYgAA+vsRnhQFgBYBXmfl1wzBeXblypUz9KeW1YDA4B8CC4e/MoQBmCAyfArCMmV9UFGWx1+t9ZdmyZdbviRfsYx2Apqam2YZhrISIB4eiYPavrkLh7k2WQ+UiTqXw4U8uxmBHXuTsSQJ4iIhuC4VCS5CDswKapu0L4DEAU3f1WmZewsxfjkQi1u9dzmN+v393RVHOBHA0gD2Q3X0g7zPzAwAeDIfDMnOllA9I07SDiegMZv48gLoslp0G8CYzP6ooyt9CoVBOXPb2qQeGpmkPAThBRHB3tQ91110LtaxMRLicsvGmW9Dz9DNOV2M8dGa+jZn/misNaFNT0x6GYbyBoSnp0Xq7v79//vr16yfVfge/319DRKcR0VkA5jldn2GtzHxXQUHBX5YvX97tdGUkaVv19fWz3G73acx8HgC/0/XB0DLmGwDudrvdf2ttbe13qiKf6gA0NjbOM01TWF7f4nn7YMalPwOp6q5fnCd6X34F66+51ulqWJUE8DAR3erkrMC8efPcfX19yzGOvSdEdH0oFPq+DdXKOZqmNQK4GMBpANwOV2dH4gDuU1X1T21tbSucrow0uQUCgUMURbmEmRcid09J9QL4s2EY13V0dGzOduHb/VA0TXsawJGiCqk48vOY+q0LRIVzVGJFK9Zc/gtwKuV0VYRh5jCA25j5rmzPCmiadh6G9imMRwpAk67rebEOMx6BQGAvIvoZgBMhbk3fdkT0uKIoP5MdASnbNE07GMDlAA53uCpjkQTwV9M0r4xEImuzVeh2h+WVlZUriehcUYUMRjoAZhTNnSsqpCNSq1dj9c+vADtz5M82ROQjooVE9H2fz9fi8/m6o9Go9WsNR8Hn8/0RwHjPjKrMjFgslpdrMTvT1NQ0u6qq6k4i+gOAZuTuCGZHgsz8DZ/PN6e8vPzd7u7urCbKkCYfTdP28/l8DwH4PwD1TtdnjFwA5hHRt30+X1VlZeUbsVjM1sxywE4eKpqmPQdgocjCas44Hb5TThYZMmsGO1Zi7RVXItPT43RVsoKZw4qi3J7JZO6ya2pqxowZhUVFRb0Y+p9/vHqJaEYoFOoTVS8nNTc3e9Lp9I+I6NIdnITIR4MAfl1aWvrrpUuXpp2ujDSx1NXVVXi93iuY+dvYwaA2D20A8FNd1++BjcuzO/ywpkyZ8m9mPh/WHs4fk1i+HEZvL4r32RtE+TOgSaxoxdorroTRNyHamFEhIh+AhYqi2DYrMG3atJkAfmAxjJeZN8RisbdE1MlJwWDwMMMwngBwCnJ3nX88XAAOS6VSx1VWVr4Vi8U2OF0haWIIBAJnu1yuxwAsQB4tkY1CKYATfD7fZ2tqat7s6uqK2lHIDjsAXV1dMZ/PVwTgf0QWOBiOIPXhahTvszcUj0dkaFtsff4FrL/Glkx/mwEkMJRgIpepGJqCPsvn851RXV1dWFFREe7u7rZ8prW6uroSgOVN/NFdYAAAIABJREFUfETUEI1Gb0QOHm8cjfnz57s8Hs9VGNoLMZFvfZxKROf6fL6CuXPnvtzZ2ZmzCTSk3Ob3+8uqq6v/SkSXIPefoVbUM/N5Pp9vczQafUd08J0Ow2tra4tKSko+ADBbdMGeaVNRe9GFKGhoEB1aCHNwEBtvugW9i5fYEZ6J6CjDMBYrinICgPMBzEf+rPOmADwK4FZd1xdhnA2v3+/3KooSh5hpu6N1XX9KQJys8vv9MxRF+RsEd7TzwCuqqp7S1tYmZwOkMRk+qfZPALnZeNjnnoKCgm+KTCi0ywbH7/cfqyjKY6IK/FjhbjeqT/0yqk74IsglbKXBssSKFdj455uRWrfOlvhEdGcoFDpn2z9rbGzUmPnrzPxV5NcosIOIbkulUnetWrVq01jfHAwGlzDzoQLq8Yyu618QECdrgsHgkcx8D4Bqp+vikHWmaZ4ciUTecLoiUn4IBALfI6LfAcj96WN7tAI4Sdf1dhHBRjXi1DTtBgDfFlHg9nimT8fUC85H0Z4tdhUxKkZPDzbdcRd6X3rZzhsNP0ylUnt1dnZudzfh8Kj4BABfB3AY8mxWgJlvC4fDizDKnP2BQOACIrpJQPlMRE2hUCgkIJbtgsHgOcx8CwTusclTKQDn67r+V6crIuU0CgaDv2XmC52uSA7oBnCcruuvWg00qsZl+GKR15l5H6sF7kxhUyOqTzsVxXvtaWcxn2Js3Yrup55G92NPwIjbmq45rSjK/Pb29tdH8+KmpqaAYRjnAvgahi5yyRdrAdxnGMafOzo61uzshcPLTGsAVAko98+6rn9HQBxbBYPB7zPzH5A/nTu7MYAf67r+e6crIuWe+fPnuzZs2HArM3/N6brkCiJKmKb55XA4/KSlOKN9YUNDg19V1aUAbM/rW7RHMyq+cCRK9tsXitdrWzmDHR3oeX4Rehe9CDNp+5FLAPihrut/GOubho+GjewVyKdZgTQzPwrg1p3NCmia9nsAPxRQXn8mk5mxcuXKXD1zTsFg8DfM/GOnK5KjfqPr+k+droSUO1paWooHBwf/BSCvlveyxABwga7rt483wJgakkAgcCIR3Y8sHbdQi4tRctCBKD1gfxTt0Wz5emE2TSRXrUL8nXfR+9LLSK7e6eBUtLt1XT8bFneqNzU1BUzTHNkrkE+zAisB3O52u+9sbW3duO0PNE2rB6BDzGbAcXWyssHupbSJgJl/Gw6Hf+J0PSTn1dXVFbjd7qeJaL7TdclhzMznhMPhu8bz5jGPJIenL68bT2GWKAoKNQ1FuzfBM70Wnhkz4J42Fa6Kiu2+3Ewmkdm0Ccm165Batw6DkQ4klq+A0Z/9exeI6CWXy3VEa2ursPzBzc3Nnkwm88XhXA0LkEezAkT0mGEYt0YikRcwPCugadojAI4XEL9D13UNo9yDkC2apl2GofSk0q5dKJcDJj01EAj8g4hOcroiecAAcLKu6w+P9Y3jajQ0TfsVhi4myQlKQQGooADkdsNMJMADA2AzN57/zLzC4/Ec2traGrOrjIaGBr+iKF8norORX7MCqwDc5na778xkMrsz8yIRQU3TPC4SiTwuIpYIgUDgG0R0sxNlF3oJwdkuzJmmom6aitnTXCgqIJQVKyj0Dn39B5KM3riJxCDjw40GOtdnsGqDgdCHGQwkHUmtwER0VigUuteJwiXnaZp2C4aWPLOuTHFB8xRipqsAs91e1Lq8KFRUFJGCYlKRhokBNpEwTWw1M1iTSWJ1ehAfpgcRSSVgOFBnIkoQ0cLR7i/76H3jLU/TtNsACLsvYILS3W73oZ+c8rZLPs8KAHgcwBEY25XAO/KCrutC01iPl6ZpJwD4F7KYonT3OS4curcX+zV7MLfBDfc4zxmkM8CySApvfZDGS+8k0daZEVvRXRQP4Chd11/IZqGS8zRNuwLAz7NVnkqEeQWl2K+gDPO8JWhwF0IZZ6baBJt4d7AP7w724eWBrVifycreshExZj44HA63jfYN424g5s+f71q/fv1fAJw13hgTXIdpmvOzebPTtoY3bZ6H/DtBIAKbpjk3Eom0OlmJxsZGbfhq7VK7y6qpVHDc/xTgmIMLUF9rz8nCjnUZPPHqIB57ZRBdPVmZYesyTXNvp75DUvYFAoFjiOgxZGHwMsddiKOKq3BEcRV8qvjM2wxgebIfz8RjeCEeQ4Kz8p35oKCgYL/RJguy+iHT8NrmZRbjTCjMvIKIjtR13Z5MQmMwPCtw/PCswOHIn1kBS5j55nA4/E2nyh/O5/AGgL3tLKe2WsVXvlCEkxYUwOvOzl9tOgM88+9B3PpwHKs32T7h+abb7T5E5P4ZKTcNZ8V8FzYnxtI8RTizbCrmF1Vk7WEYNw080t+F+3o3ote0/Tvzd13XTx/NC4X8/oFA4EIi+q2oePmMiF5Kp9PH5+JRNL/f36AoytcBnA1gN4erY7e41+uduXz58m4nCg8EAjcR0QV2xa8oVfD9U4px/CGFUB26AsUwgYcWD+D6+/vRG7d1r8DvdV2XCWAmsHnz5rn7+vqWADjIrjJmubz436qZ2K/A9pPsO5RgE/f2bsTfezchbV+yOTDz10ZzMkDIumQsFnu9uro6QkRHYmLdYjZWt7rd7tN1XU84XZHticVi3dFo9IWpU6dez8zLAVQCqMPE7Lh5MplMVywWG9OmGBGCweDJAH5jR2xFAU44tBB//GEF9tbcUBz8m1MIaK5340vzC9HTbyK02rY9Agf6fL5XRd9GKeWO0tLSXwI4zY7YXlLwtfKp+Hn1HMxyF9hRxKi5h/cbLCiuQmd6EBsy9kxsEdFCn8/3UDQa7drp60QW2tTUtIdhGPcDaBIZNw+kmPn74XDYkZ3eVgzPCozsFZhoswKduq77gextzPX7/WWKorQDmCY6dkWpgl9eUIaD98zNNOj/XpHCz27qRXSrLWudkUQi0bJ27doBO4JLzhluN96BDYPH2e4CXFk9B/Vuazlk7PJofxeu615j12zAK7quH4qd5J4RujO5q6trc2Fh4R1ut3sKgHkiY+ewdtM0j8qlY2djMTwrsCgajf7B5/O9AqAQQCMmxt3aFT6f771oNCrk4ozRqK6uvgZDey2Emtfowa0XV6CpLnevDpgxRcWRB3qxvCODjVHhnYAqt9utRKNRIUdFpZxBVVVVD2NoJlKoo0t8+HV1A2pcudlhBoBGTxH2LyzHfwZ70S9+b8Ds6urqSDQaXbajF9g2gahp2lkArgXgs6sMhzEz3xyPxy9cv359Tk75j9dwZr6RvQJTna2NNcy8JBwOH5aNsvx+/z6KorwFwR3row7y4spvlMOVtYOE1qQzwKW39OKZNwaFh1YUZV57e/ty0YFzRTAYrDUMI6AoShURbU6n0ytycT+RKMFg8FxmHncq2+0hAF8rn4ZzyoVPwtmm1zRw0ZYOrEgKT1S3KZVKNe7o8jlbVxDnzp1bmUqlLmfm72BijChH6ET0zVAo9KLTFbGZqmnaYRhKyPElZPEsu2B76br+vs1lKJqmvQ5gf5FBzziyED8+oxTjPJbsGNMEfndvP/72nPC+8dO6rh8lOqjDlEAgcAoR/QjAPvj4czlNRIuZ+Spd119xqH62aG5urkqn0yEI3PWvArjINxtHF+ffuHOATfxsy0q8PdgrOvQNuq5/d3s/sPWBvnnz5sFoNPpMTU3NC8z8GeT5aBJDiRZ+XlZW9tXly5d3OF2ZLOBoNLoyGo3+y+fz3QsgASAAMcl6sskVjUZtXaIJBAInEJGIC40+cvYxxbjw9JK8a/wBgAg4eE8PEoOM98NpkaED1dXVL0Sj0axe5GGXxsZGX1VV1eNEdCGAWnx6UKYCaADwtaqqqqlz5sx5bsOGDbmR5tSiysrKSwF8XlQ8hQj/56vDkXnY+ANDGwQPL6pEWzqBdWITCO1dU1NzT1dX16dmAbIyouvq6loTjUZvq6qqCgEIElFeJaYhogSAa1Kp1CkrV658caJ8AcciGo12R6PRRXV1ddcnk8n3FUWpADAH+XGCoKmmpubmrq4u2zaQVVdX34OhB7gQXzy0ED89Kz8b/20duIcHa7cY0MWeEJgTjUb/KjKgE+rq6ioURXkNwH6jeT0RfSaVSh1QWFj4QG9vb1bTMopWX19frijKfQCEbcv/buUMHFdiawoB26lEOLSwAu8M9mGzIazjrJqm6Y3FYp+6OjibU7oci8WWx2KxmysrK5cSUQOA6Vksfzy2ALhBVdUzQqHQoz09PcIXNfPNhg0bzFgs1haNRu+trKy8Q1GUzQCCAMqdrttOuJm5OxqNvmpHcE3TvgBA2BW//7OXB1d/uxzKBFg0IwIO3duLFR1prNksbJPTnIlwLHDKlCn/AHDwGN/W4Ha798v3TkB1dfWFRCRsKefMsqn4anm+TzAPcRHh4MIKvDTQgz5BGwOJqKW6uvqOaDTa97E/FxJ9nILB4GHD19qeiNyZVmYArxHRnfF4/O/y2NGuzZs3z93b23ssgPOJaCFyc7/Hmtra2volS5YIf2hqmvYKxv4g366pPhX3/7IK5SV5PvT/hN4448uXRLGhS9jk2ZO6rh8jKli2BQKBQ4joJQshXi4oKDhqtClfc0lLS0vx4ODgKgA1IuLtXVCK62r8UPN9uuwTOtIDOH9jCElxKYSv1XX9R9v+QU58Yi0tLcXJZPIEAGcy8wIATpx1eh/Ao6qq3tvW1hZ2oPwJIRgMzmHmkbwCObUNl4gWhEKhxSJj+v3+AxVFEZJsyKUCd1xaiT0DEzOX1juhNM77ZTcMMc8zU1GUhvb29k4h0bJM07T7AZxsMczziUTi+HwbpGia9h0AfxIRq0p1486pjbbk8s8FD/ZtwR+6hW13iWcymenbnirJiZHasmXL4qFQ6N5QKPR5Iqpi5mMB/AHAe7DvXveNzPwAgO8SUb2u63vpun6ZbPytCYVCq3Rdv6S0tHQ2M5/IzM/Cvr/DsRK+e1xV1a+KinXuccUTtvEHgH2Cbnzt2GJR4RTTNB25LlYAwtDNl1YtLCoqenTGjBm5meVmx4R9Zy6qmjVhG38AOLG0BvuLS11c7Ha7T9r2D3JiBmBnNE2rBrAXAA1AExFpzBzE0P6BXc0UZABsArAOwCoiajVN8wNmfi8SiUyGXfw5IVdmBYjowVAodNKuXzk6dXV1BR6PZz2GUipbMmuqigd+XZW1C32cMpBknPjTGNZtEbK2udntds/Mt4uCho+/RQWGzJuZAL/fv7uiKEJu6Ty4sBxX1zSICJXT1mWSOHNDG1IClgKI6KVQKDT/o/+2HNFBfr/f63K5SkzTLGfmMlVVVSLqNQzDUBRla3t7ezdyZ/Q56fn9fq+qqjcx89ccqoLQdeNgMHgyM98vItaNF1Xgsy25m7FMpCXvJPH9a8XktmHmY8Lh8Kd2N+cyTdOmAxB9xXFedAI0TbsawE+sxvGSgnun7Y5pOZzlT6Q7tm7AHVs3iAjFAPy6rq8EnFlrFyYSiSQBJAGI7E1LgtXX15e7XK5zAHybmZ3ssm8UGYyZzxIRZ/9mz6Rp/AFg/j5ezGv0YGm79YE7ER0PIK86AKWlpZv7+vpMiF2CHVkOyOVOgAJgVNfU7sqJJTWTpvEHgNNLd8PD/V3otn40kIjoDABXAjmyB0CamBoaGvyapl3tcrk6MZQW2tH5OmZ+TVSslpaWYohZx8V5xxeJCJNXBP7OxyHPnmNLly5NA3jLhtA5vScgEAjsC2Cm1TheUnBq+US7t2znChQFp5SKSZ/DzCeM/HtefXGk/OD3+3cPBAKPqqqqY2i6r8LpOhFRgpmfEBUvkUh8FoDlIUiL3439dp88I5kRB831YI8GIZu3dmtsbDxARKAsE7J0tB052wkgIiGXZB1T4kOVkteT1+NyQkk1ShUhqXv2HN5bJzsAkliapn1bUZT3ieg45NAeE9M0b4hEIltExVMUZYGIOKcdMflG/yNOWyimjWLmLwgJlEWJROJmDG1OtkOudgKEXMr1pRIh6QPyTrGiikpzrDDzIYDsAEgCBYPB/wVwA3Jvb8m7AwMDlwuOabkDUFRAmL/P5Bv9jzh8Xy+KCqz3EZk572YAhtfpTwVg1wmGhUVFRc8ML1U5rrm52UNEB1mNs7unGLPdwrIH553PF1cJiUNECwDZAZAE0TRtX2b+ndP12I6lRHSMyI1R9fX15Ri6tc2ShfsVCGkA81Whl7DgM14RofZFHj7LdF1/FUM3bdp1UumQwcHBh3NhJiCZTB7IzJanu0Q1gPmq0VOEOWI6QLIDIIlDRFcht0b+AwB+3d/ff0goFFovMrCiKHtBwD0aCz4zeUf/Iz63r5AOQLnf728UESjbdF3/KzOfC/s6ATmxHKAoyjwRcQ4tcnw7keMOLRTyGTS2tLQU59IDW8pTfr9/BjMvdLoewzYCuMXtdt/c2toq9NjfCEVRglZjqAowr3HiZjAbrXmNbqgKwTDZUhxFUb6iadqLgqqVbWsB3AfgTJvi58IRQcsdtNnuAlRP4Kx/o7VPYRnu6rX8aKNEIqHJDoBk2fCGOKfnsv8D4Hq32/3PLGSGs/ww273ejdIiOQFXVqwgOFvFB6ss39F08fA/0vaN7Alw6gIhy53mfbylIuqR9+Z6iuElxfIlQYqiBOUTSLKMmWc5VLQB4AkAC3Vd31fX9XuylBZWsxpgb02OZEbs0yiXQrLEyT0Blr8zLd6c2M/oODcRmrxCTg81yhkAyTIiEnI4dQy2ENGtAG4Uvb4/SpZHM/XT5VdvRH1ttv/3mdQWFhUV3Q/geGQpTfrwptmpVuPMcTu+lzFn1LkK8R76rYbR5AyAZBkRCbuvchfeZeavpVKpWaFQ6FKHGn9g6CIqS+qmykZvRN00+Vlk2TGapl2WrcIURbH8fSEAM1xCNoxOCDPdQj6L6bIDIFlGRHZuvjLx32n+fcLh8F2dnZ2DNpa3U/Pnz3cBsDwUkY3ef9VNk7MhDrjI7/fPyEZBiqKUWI0xxeVBgSKbqxGzxHSGSuUnKlnW3t7eCeDfgsNGAVxtGEadruvH6rr+guD449LZ2Wn5YUYElJfIr96IilICOb2FdPIpUBTlvCyVZXn3XsUkTP27M+WqkM9DdgAkYS7F0FWTVi0D8PVEIjFT1/WLOzo6srW8MCqqqlp+mBV6CXIw81+qQijwyB6AA7KVQtnyd6ZITA78CaNYzLYr2QGQxNB1fRERXTPOtxsAHlYU5TBd1/fUdf32XL3SlIisP8wmcfa/HZGfiSOydTun9e8MyaZqWyI6RERUKudVJGFCodBPNE1TAPxolG/pJqLbiejG4WWEnKcoiuXze26XbOw+yeOWn4kDsnKujojczNYmB1W5RvQxbgFpV5jZI7tVkkis6/qFRPQFAO/t8EXMK5j5gv7+/hmhUOiifGn8AcA0Tctnb+IDWTl9lVfkZ+KITdkohJktJx4atJj0ZqIZEPN59MsZAEm4UCj0DIBnAoHAXgAOIaJZzGwQ0RpmXhQOh9ucruN4GYbRr1hcwB9IitgqMbEkBuVn4oA3slROn9UACVN2ALYVNw0RYfpkB0CyTTgcfg87mQnIR8lkss/ttrYKkM4AyTTDK6e9AQx1iDJCnmfSWBDRg1kqynIHQFCDN2EkWEwHQC4BSNIYrF+/fgBDmxYt2dAlRzQjNkTlw90By0Kh0EPZKEjEstnGTFLIEaOJYkNGSMZz2QGQpDFiAD1Wg6xab/nymwmjc73sAGQTESWY+avIUipgl8vVbTXGAJvYYmTjmo/8sCaTtByDmXtkB0CSxq7DaoAPN8pGb0TnBvlZZFGamc8YXp7Livb29jUALLdYa9LWG72JojNl/ZQ0EYVlB0CSxi5kNUBbp5wBGNHWmXa6CpNFmplP1XX9kSyXawCIWA2ipxICqjIxhNPWOwDMrMtNgJI0RswcIovnkt/+IAVmTPoUuMzAf9qsdwCIaDUzbxFQJaeUQMAtkzuRZuZTw+FwVtb9t0MH0GwlwDvJfpyG3QRVJ39tzKSwTsASAIB22QGQpDFSFCVkNbFJdKuJleszaJjk1wKH12YQ67W+FE1E54dCoWcFVCnr/H5/maIodtY9DeCUcDj8sI1l7IrlWbP3B/uQAcMlIAlOPls6aPlQBQDAMIyQXAKQpDEyDOMDEXHeWCY3NQn6DFhV1bdFBMo2v99fpqrqMwAOsKmIkWl/Jxt/ALD8nUmwieWDlg8U5L23B3tFhOlfuXLlWtkBkKQxikQibQAsTzc/8ZpjtxrnjCdfF/IZ6K2trTERgbLJ7/d7FUV5kpkPtKkIp6f9P5LJZF4SEeeFhOUDBXltgE28OrBVRKhXAJiyAyBJY8cAllgN0taZQWTt5N0MGF6TQehDIb//myKCZJuiKNcDONim8DnT+APAypUrVwNYaTXOokQ3kpM4LfCL8W4haZGZeTEAyA6AJI0DM78oIs5jr0zeWYBHXxbzuxPRy0ICZdFwmuzzbAqfU43/Nix/Z/pNAy8nLKfhyFvPJMRMdKmq+iIgOwCSNC6KoiwWEefBFwfQl5h8Oc629jMeWizkxmczlUo9ISJQNhHR92HP8zdXG/+PRp1W3de3aVJmBWxNxvGumA2APe3t7e8BsgMgSeMSCoVCAD60Gqd/gPG3Zyff+eZ7n4kjLuYCoDdWrVqVlVvtBDvKhpg52/gDQCaTWQQBabQjqQG8IWYdPK/c1btRVKjnMfz3IDsAkjR+fxMR5L5nE+iNT551zd444+/Pi5n+Z+ZHhQTKovr6+nIAUwSHzenGHwBWrVq1iZlfEBHrrt6Nk2oW4INUHP8W1+n56LmVV4eQ/X6/1+12BzKZTJCIphJRCTNXAChm5mJFUQqYuZ+Ze4goDiDOzFEi6jBNsz0SieRzohAp99wN4GKrQbb2M/78QBwXf7VUQJVy3x//2Y8+MR0eNk3T6eNtY6Yoiui/6Jxv/EcoinIvM3/eapwPknE81R/F0SU+EdXKaSYz/ti9VlSHJ2aa5tMj/5GzGRXq6uoKvF7vQQAOY+Z5ADQAdQBUC2G7MZSQohXAy4ZhLO7o6FhjubLSpKVp2psA9rMaR1UI9/2iEk11edUnH7MVHWmceUU3BF3v/qKu64cLiZRFw8f/BiDm+Zs3jT8A1NbWFpWUlGwEYLkTVKa48Pfa3VGuTOzvzCN9W3BNt7Bm6gZd17878h851QFoamraI5PJfJGIFgA4EECB3WUyc5iIFjPzc+l0+snOzs7Juy1bGjNN074D4E8iYjXNcePun1fA486pr6UwyTTjzMu6EVot5ugjEZ0cCoUeEBIsyzRNWwZgrsUwedX4j9A07U4AZ4uIdWRxFS711YkIlZM2ZVI4e2Mb+kwxF2Yx8wHhcPijY7OO7wFobm6u0jTtfE3TXjUMYzkRXQngMGSh8QcAIgoAOJ+IHvB4PBs1Tbtb07TPIcc6R1Ju8nq99wEQsjW3bVUa1/0jLiJUTrrm3n5hjT+A9SUlJXm3/r+NBy2+Py8bfwBg5ptFxXomHsMz8bzLATUqBoDLo6uENf4A3t228Qcc7AAEAoFDgsHgY+l0ehOAWwB81qm6bKMcwJkAntc0LRwIBC5sbm4ucbpSUu5avnx5NzPfJCre355LYNHbE+/a0+feTOL+RUKO/Y24benSpXl7jaDX670ewHgPtOdt4w8Aw42QkM2AAHBNbDU60xNv4vaW7nVYnhQ3IGDmX37yz7LeAdA07WBN014gopeY+Vjk7kbEBiL6XTqdXqdp2tXNzc1VTldIyk2ZTOZaIhJylo8ZuOTmXrwfztu27VNaV2Zw2W1C8peP2Op2u68XGTDbhjuO5wJj3ts1crFPXjb+I4joV6JiDbKJi7Z0IGZOnKyaz8Vj+Huf0NOtbdu7DMrKhrox8fv9R1RXV/8TwCUA6rNVrgBeAAebpvnN6urqkqlTp761ZcsWeYuL9JGenp64z+ebCmB/EfEyBrDk3RQOm+dFRYnjq3SWdG4w8PVf94hOdnR1e3v7MyIDOiEWi7X5fL5+AKNdcuw3TfOUcDicz0sfAIBoNNrp8/k+B2CWiHh9poE3B3rxueJKeCm/vzOvD2zFZV2rIPJgMBH9IBqNLvvkn9v+SQWDwVpN0+4evu5ynt3l2aiMmS9Jp9MhTdPOcroyUm4xDON3AITNQ3b3mrjg6h6s3Sxs/S/rVm80cMFvutHTJzTHQdQ0zT+IDOgkXdd/D+AYAJFdvPQ1VVUPjEQij2ehWllBRJ+akrZiZXoAF3etRFzcmnnWLR3sw8+jq6xnS/o4fdq0af/c3g9smwGYP3++y+v1fpeZH4SAY1I5pBTACT6f7xCfz/dWNBrtcrpCkvO6u7t7fT6fC8B8UTH7Eoxn/53EAXt4UF2RX6OatlVpnH91DzZ3i01wxMyXRyIRISllc0U0Go3U1dXdnE6nlwEYIKIBAAkAbcz8iKIoP9N1/eddXV2bHa6qUNFoNFJdXT0PQFBUzI2ZFF4f6MX/FFWgSMnaBLcQLyd6cEnXKuGXHTHzV995553Q9n5my053v9/foCjKP5HfI/7RGGTmH4TDYWG7WqX8VVdXV+DxeJYD8IuMW1qk4HffLcOBcz0iw9rm1fdTuOhPW0Wl+v0IM6/weDzzWltb5RLcBBEMBucwcyuAQpFxZ7i9+E11A2a7s3KYzLL7+zbjhp51MFl4fsOHdF0/cUc/FN5F0jTtBCJ6Avm1zj9eLiI6xufz7VlaWvpsT0/PxNuKKo1aT09PprKyMkREZ4qMm0oznnx9EIMpxr67u6FQbp5QNUzGLQ8ncNWdfUiJ38NoKopyYltbW6fwyJJjotFoT1VVFQ3nfhGm1zTwdDyKqW4vGtxC+xZCJdjEL6Od+HvfZuGpjYkooSjK8V1dXTs8bSKsA+D3+701NTXXArgWgntzeaBJVdVTq6qq/h2LxdY5XRnJObFYrKO6unougN1Fx35PT2NpexqfafKgrDi3lgTWbjaOHPpUAAAgAElEQVTww+t68fgrgxA/iAEA3KTrupxpm4CqqqreJKKTAVSLjJsB46VEDzZlUtiroCTnNgeuSMXxw80RvJ/styU+M1+i6/pTO3uNkKHE3LlzK5PJ5BMADhIRL48NENFpoVAo73fpSuPn9/trFEV5D0CtHfELPITzji/CV48qcjxrYDLNuOuJBO54PIHBlG3Xs6wyTXOvSCQi9CyhlDuCweBnmPlVDJ26Eq5KdeNbFdPx+eIqxzO89ZoG7ty6AQ/2b7Fjyh8AQEQvhUKhw7GL2xctzwA0NTVNS6fTzwPY12qsCcAN4GSfz7cxGo0udboykjNisViisrJy6fBSgPBhR8YA3vogjefeTKKsWEHDDBeULD/VDBN44tVB/OSGXix6O4mMfRuvkwCOCofDq2wrQXJcNBpdX1VV1UtEX7Aj/gCbeHmgB0sH+7Cby4Naly39jJ1KsIl/9m3GZV0r8W6y387bDDcT0RHRaHSXHWZLHQC/398A4EUATVbiTDAKgGN8Ph9Fo9ElTldGckYsFvuwqqrKFL22ua2t/YxF/0niqdcH4XET6qa54HbZ2xOIDzIefWkQF93Qi0dfHkRv3PZLWf9X1/VH7C5Ecl4sFnvL5/O1wMb2ZJORwjPxGN4c7EWF6sIMd4HtZ+FjZgZ/792Ey7tW4bWBrUjaNOofZpqmeWI4HH5vNC8e99PC7/c3K4qyGEDNeGNMAr/Rdf2nTldCcowSDAafZuYjslFYoZew4DNeHHNwAfbb3QOXoB0+6QzwdlsKj78ygMVLUxhIZu0m9n/qun5qtgqTnFdXV1fh8XjeATAnG+VVqm58rqgCRxT70OgpErY8kGATryZ68Fw8hreTfTDsbfQ/QkS/DIVCl4769eMpxO/3z1BV9TVmFpLFaSJj5h+Hw+FrnK6H5Iz6+vpyl8v1MoCWbJZb6CXsE3Rjv2YP9qh3oX66C1VloxvrRLeaWLU+gxUrM3hzRQrv6ulsNvoAACJ6o6+v73Pr168XkmJZyh+apjUCeAWCNwXuSrniwj4FJZhXUAbNU4hZrgKUjCKXAAPYbKTwYXoQy5Jx/GegF22puOhkPqPxD13XzwBGn0RwzB0ATdOqAbwKgckbxspVUQHPjBnwTJ8GpaQEanExyOsFuVzgxADMgQEYg4NIb9yI1Np1SG3cCFEXkI8DAzhb1/W7naqA5KympqZphmG8hiyNanaktFjBzCkKyooVlBQRirxDX/9EEuhPmNjab2LtFhN9cce+KyPaFEX5n/b29qjTFZGcoWnafgAWAXD0MrYqxYValxdFqopiUlBMKlJgDJgmBthAzMhgXSYpPHnPODzvdruPGWuOjDF1AJqbm0vS6fSLyOaGPyJ462ajuGUuCufORXHz7lCKi8cUgg0Dyc5OxN9fhsTyFUisaAUns3rjWpqZTwiHw09ms1Apdwwnx3oNwG5O1yXHrVdV9aC2trYPna6I5KxgMLiAmZ+CTScDJpD/ENGCUCg05mvJx9QBCAaD9zHz6WMtZDzcNTUoPeRgVByxEJ5p04TG5lQK/W//B1tfXIz+pe9ka3agH8C+uq63Z6MwKff4/f59FEV5DoDP6brkqLUAFsrviDRC07RTANyDoRNW0icw8wrTNA/v6OgYV5roUXcAgsHgN5n5xvEUMhZFezTDd/JJKN5rTyALGc/SW7Yg9vCj2Pr8CzDtnxV4P5VKHdDZ2SkzBk5SmqY1EtGzcv/Mp6wyTXNhJBLpcLoiUm7RNO1wAA9j6B4W6b/eVBTlaCtLZaNqYf1+/96KorwOwLbEyoVNjag560wUNQtPoDYqmZ4exB58CN1PPAU27Nu+QUS3hEKhC2wrQMp5w3sCnkGWNwbmsA8AHKHrusyiKW2Xpmn7AngS8tQZAICIHo/H46esXbt2wFKcXb0gGAyWmqa5lIgCVgraEbWsDFPOPgvlhy/Iyoh/V1KrV2PjzbcisaLVzmJO03X9H3YWIOW25ubmqnQ6/SiAg52ui8Oe9nq9Zyxfvrzb6YpIuW34dMDTAOocrorTbtN1/ZvYRZa/0djlGQefz/d7u7IzlRywP2b94nIUNjXmROMPAGp5OcoXHAa1sgKJZcsBe2YDFlRWVt4Zi8XkEadJasuWLQNz5869p6+vjwEcAptu5sxhDOC3uq6fu3nzZkujGGlyiEajXeXl5XcRkZ+InJkqdtYgEV2o6/qlgJhEgjt96AxvWnoLom8NVBRMOfMrqPrSF3Om4d+e5Oo1WP/ba5BcvVp4bCK6MxQKnSM8sJR3AoHAMUR0FybP5sBuAF/Z1UUlkrQDFAwGv8fMvwWQH3dkWxcioi+HQqFlIoPurGFXqqurHwIwU2iBJSWYdeUVKDvk4Jxu/AHAVV6O8sPmY7CjA+mNG0WH38vn8y2KRqPiexdSXonFYnp5efk/FEX5DIDZTtfHTsz8mKIoR+u6/o7TdZHyVzQafdPn8z0HYAGAKqfrYyMmorsKCgq++MEHH6wVHXyHLXAgEPgGEQm9ftNVWYmZV1wGb11+PeM4k8GG665H78uviI3LvKKsrGyfpUuXir89XcpHpGnamQB+B2CK05URrBvAT3Vdv9XpikgTR3NzsyeTyfyAmS+HjZvUncDMYWb+TiQSec6uMrY7A9DS0lJsGMajAMaWcWcn3FOmYPZvfw3PdFtuSLUVKQpKDtgfRncPBjvEnVIioimpVGqtvDlQGhGNRt+fOnXqHaZpVgLYG/m/NyAD4HbDME6MRCIvO10ZaWLZsmWLEY1GX6usrPzH8EZ1WzarZxMRJQD8iplPj0Qiup1lbbcDUF5e/l0AJwgrpKwMs676BTzTpooKmXVEhOLPzENqzVqk1qwRGbp57ty5N3Z2djqeS1LKDVu2bBmIRqNPVFdXPwWgFkMPtXzrCDAzP6goykm6rt/V3d0dd7pC0sQVi8W6o9HofdXV1e8C0DD0vck3SQB3GIbx5Ugk8lgsFrP9OoFPPVT8fr9XUZSVEPQBKgUFmPWrq1DgbxARznGcTmPN5b9AYvkKkWG/Ku8KkHYkEAjsBeASIvoSYPvtpVYZAB4DcLWu6285XRlpctI07WAAlwM43OGqjEYSwF9N07wyEokIX+ffmU91AAKBwAVEdJOoAmp/+L8om3+oqHA5wejvR+f3f4j0li2iQrbrut6MMdziJE0+gUCgiYi+A+BU5N7Gp24iup2Ibmxvb+90ujKSBAB+v/9QRVG+CeB45N4egVUA7jEM48/jTeVr1Sc7AKqmaWEIurWs4oiFmPqdb4kIlXMSrR9g9SX/J+weAWY+KRwOPygkmDShDc/SHQXgLABHwbmjUAMAnmbmB+Px+CPy6l4pVw1fy308gDMxNCvg1JLaVgzNkN2t6/oiCDrPP14f+xACgcBCIhKy49AzYzrq/vB7KN6Je5FT19//ia6/C0vo97Su60eJCiZNDo2NjT7TND+HoeNQCwD4bS6yE8ArRPS41+t9atmyZXJtX8orTU1Nsw3DWIih78thAOzcnGYS0XsAXmTmF1Op1OJcugvmYx0ATdPuAfAVEYFnXfULFLXMFREqZ3Emg1Xf+1+k1gpJYW643e4Zra2twhMOSJNHQ0PDTFVVDyOiuQCCpmk2EtEcAK4xhsoA+JCIOkzTbBu+C+TVUCi0XnilJclBfr+/WVXVQ5i5GYBGREFmnomxzxIMAggB0IlIZ+albrf7pdbW1pjwSgvy0S/Y0tJSPDg4uBFAidWgZYcegtof/cBqmLwQf+99rPn55aLC/UjX9WtFBZMkAJg3b567r6+vAUANERUDKGXmCgx91wlDV1VvJaIBAH2GYawuLy9fLfNTSJNVbW1tUVlZWQMAn2EYJcPfm3JmLsPQpr1+RVH6TdPsYeZ+l8u1ob29fTXybB/XRx0ATdO+CuAuywE9HjTcehNcVbm2R8k+a3/5a/S/KWTD8/u6ru8lIpAkSZIk7cy2R4pOERGw/PAFk6rxB4DqU74sKtSewzdeSZIkSZKtFGAonSKGbiSzhFQVvhOF5Q/KGwX+BhTvLWzgng/nViVJkqQ8pwBAOp3eDwLS/pYedCDcUyZaCvPRqTrheFGhFogKJEmSJEk7MrIEIKTRKV9wmIgweamopQXummoRoeYj97O9SZIkSXlOAQBmttxyuyrKRU6D5x36//buPD6uutwf+Of5zkwmaZammdAlLW3azJxJKC1gBWQviBevCyguKDuy6OUHXpAr4L0iiqiICkLFWwqWpZdFkb2gyFYLZWvL0pImc2aStrRJ10nbbE1mcs7z+yOpr7J0Sc73zJnleb9e96Wva/Kcp9POzHOe8/1+H6VQftxxOkJVhcPhQ3QEEkIIIfZEAfAR0ZFOA5UfcwygCvvGteJ4LQUAlFJHawkkhBBC7IEyDGMKgBKngUoPlZvW4qm18I0erSOU7AQQQgjhKgUg6jQI+XwYdfB0DenkOCJdr4PjvxMhhBBibxQROf6yCdbWQpU63kSQF0pnHOw4ho6/EyGEEGJvlG3bzguAKZN15JIXiqZMcRyDmQ+cOXOmVFRCCCFc4yeiWqdBiiZNdJ5JniiaqOW1oN7e3ikAVukIJoTIfrNnz/Zv2rRpIjMHU6nUptbW1h1e5yTym5+IRjM7G0ms6UsvL/grR8NXVgaru9tRHCIq15SSECKLRaPRU5n54vb29s8BCAKA3++HYRgriOgpAPNjsdhqb7MU+cjPzI6n/xXa2f/74g+FHBcAACp05CKEyE7hcPgApdRDzLyn479nMvNMAP8djUZfAHBXWVnZkzKlUeiiADi+01QljncR5hUdrwcROS7MhBDZqaGhYYJS6k3s3+wPxcz/xsyPdHV1rTMM46a6urqw2zmK/CcFgAtUSbGOMPIIQIj85LNt+1EAU0fwu+MAXOPz+UzDMF4wDOOMoWFuQgybIiLH394qKP/+dqeKtRQA0gEQIg8ZhnEWMx/lMAxhsHvwcDqd3mQYxp0NDQ3O9yCLgqKYuc9pEDslj6R2Z/c5fkkBQF5UIfLTlZrjVQK4xLKsFdFodFEkEjmztrZWy12IyG8KQJfTIPbOnRpSyR+aXg8tVYQQIntEo9EaAG6dm07MfAIRPVBUVLQ+EoncGolEGly6lsgDipmlANBMRweAmXs1pCKEyC71GGzfuy1ERFcQ0SrDMJYZhnGJHC4mPkoRkeP9ata2bTpyyRsDyQ7HMYhos4ZUhBBZhJm92N47C8CdfX196wzDuF3WCohdFBF1Og2SWt+mI5e8YHV1wepy3FQBM2/VkI4QIovYtr3Jw8uPAXC5ZVkrd3UFpk+fLouNC5hi5rVOg6TapADYJdXWriMMl5SUfKAjkBAiqzQCSHmdBIa6Aul0er1hGHcYhjHN64RE5ikAMadB+tY6riHyRr+e12LtihUrenQEEkJkj0Qi0QngH17nsZvRAC4F0ByNRm+ePXu23+uEROYoZnZeALS0wu6VNWsA0LvyfR1hZAiQEHnKtu1fAHA2gEW/ADP/sK2tbaEcLFQ4lN/vd1wAwLbR2yjfWWBGz4qVjsMQkbyYQuSpRCLxBhHN8TqPT0JEp6TT6azMTeinxo0btxpAv9NAPe+t0JBObkutWwdr+3YdoZp0BBFCZKcJEyZcBeDPXuexBxcbhnGE10kI96lFixYNAFjmNFDXktfAtq0hpdzV+coSLXGY+TPTpk2brCWYECLrLFq0aMA0zW8DuAqAlrsGjYiZf+h1EsJ9CgCY+SWngQaSSfRqaH/nLGbsWPRPXdEu9vv9qw3DeD4ajX5j1qxZAV2BhRBZg03TvCUYDE4D8CMALV4ntAsR/Xs4HA56nYdwlwIApdTLOoLteHmRjjA5qbexEelNWrf4KgAnM/Nfurq61kQikRsaGhqm6LyAEMJ7K1eu3Gaa5k2maYaVUp8GMA+A18erlgYCAelC5jkFAP39/a9Dwz+4rsWvIL1li+OkclHHE0+5Gb6GiK6zLKtVugJC5K/m5ublpml+17btKcx8NQDHB7WNVDqdDnl1bZEZCgDWrFnTB+A1p8HYstDx5NOOk8o1/avXoHup42UU++NDXYFoNPpz6QoIkV/C4XBQKfXvRHQ2AC+ODgYABAKBpFfXFpmhdvvvf9ERcMdz/8DA9h06QuWMrX95BOCMb+utYeYfD3UFnjUM46tyiIcQuSsajdYYhvFTpVQbgPsAzPQwnS6llJzwluf+NZVq2rRpo/1+/wYAJU6Djj75s5jw/cuchskJO1c1Ye2P/seLAuCTbMTgB8c80zRbvU5GZI+pU6eO8/l81UqpUgAVzFxBRKVEFADQZdu2rZTappTabFnWRtM0ZRZFhkSj0ZOY+TIApwLweZ3PkMdM0/ya10kId31oLKVhGH8B8A3nUQlTbvolShrqHYfKaraN1u9fidQHWXdsv43B40bn1dTUPD201TMn1NXVjfX7/RcAOI2ZIwAqAWwGsJSZn6ioqHhg+fLlaW+zzF61tbWVfr//OKXUDABRDI6fNTD4Og5HCoPHhDcBWMXMy4qLi19buXKljP7UoKamZlRZWdnZzHw5EWXddD7btk9NJBKF9zy3wHyoAIhEIl8iIi1/6cHaKai95bcgf/52pTseexyb773f6zT2ZQOAe4jo7lgsttrrZPaCDMP4AYDrAZTv5edW27Z9QSKR0LbnMpfV1NSMqqioOM6yrJOI6EQAn4J7d5EMYBURvWjb9kJmXpxIJBwfIlZI6uvra5n5Uma+EECV1/nswfqampqpuXTjIEbmQwXArFmzAl1dXasBTNQRvOrLX8LYiy/UESrr9MUTWHvNj8ADOfMesZn5eQDzKioqns6yu2hlGMZ8AOft588PAPiOaZoLXMwpm6loNHoCM58L4GvYe8Hkpm4ATxPR/bFY7HkAlkd5ZL1oNHoiM1+O7Grz78kNpmle73USwn300f+HYRhXArhFT3TCxGuvRvlRn9ESLltY3T1Yc+VVuvf9Z1JWdQUMw7gewE+H+WspIjopFovpOX4xB4TD4Uk+n+97AM5h5mzbo91ORPOVUn9samra4HUy2WBXmx/AZQBmeJ3PfrIGBgamtba2Zt1zTaHfxwqAmTNnlvb19a0GcICOC/jKSjHlpl+iaHK2fV6NDFsW1t/4S/Qsf9vrVHSwiegF27bnVVRUPOVFV6Curi7s8/maAIzkWdF7pml+CoNrHvJWOByuU0pdC+BcANk+qS0F4GFmvikejxfkTIscafPvybOmaX7R6yREZnysFbVp06Z0KBQKAPisjgtwKo2uN5ei4pijoEpLdYT0DjM23v4HdL32uteZ6EIA6ojom6lU6uLQoNXJZDJjC72qq6tvJKIjR/jr46urqxuTyWReTk+MRCINoVDo90qpuQA+jexvHQODOR5CRN8LhUJ1oVBoRSb/PXkpGo2eGAqFbmHmOwAcCw07qjxwdTKZbPY6CZEZH+sAAP/aErgGw185vEdFEydi8q9uhL9SW8iM2zz/XnQ88aTXabgtk10BMgxjHZytOXnVNM3jdCWUDaZPn142MDDwE2a+AkCun/iYJqLf+/3+GxobG7u9Tka3oTb/WQAuR+60+fekvaamZoos/iscn1gAAJrXAgwJjBuHyTdcj8CECTrDuo4tC5vuvAvb//6c16lk2iYA99q2fVcikdA+qMQwjGoAOs6OPsI0zaUa4nguEomcTkS/B3Cg17lo1kZEV8ZisUe8TkSHhoaGKQMDA5cS0UXIvTb/JyKiX8RisR97nYfInD0WALNnz/a3t7cvh+bTqHyVlTjw+utQXDdNZ1jX2P392HDL79H1+htep+IlG8CLRDSvrKzsSV1dgWg0GmVmHe3G+0zTPF9DHM/U1dWN9fl88wHk+/PXPwcCgUsbGxs7vE5kJHJsNf9w2EQUzoZFwSJz9lgAAEA0Gj2GmV/Z188NlwoGMe6SizD6cyfrDKtdqq0NbTf/Fv2r17gR/s8AVgC4CMBUNy7gkk0A7rFt+26nXQGNHYB+y7Imt7S0bNYQK+Pq6+tn27b9AIAar3PJkHYiOicWizkeQ54Jedbm/0TM/Fw8Hv+813mIzNprBZtMJtdVV1dPAXCYzouyZaH7raVIbdiI0kMPAQWy7zFn5z8XY/2Nv8LAFldORN0QDAa/0NTU9HwymZwzZsyY15RSowBEkP13FWUAjiWiy0Oh0LHV1dV948ePT2zZsmXYe8CTyeTOUCj0HwCcrg71+3y+rmQyudhhnEyjaDT6n8y8ABrX2+SAcgBnh0IhNfR3lhXnaH9UNBqtCYVCVxUVFT0I4AwA47zOyUXXdHR0FOSujUK2zzv7+vr6kG3b78ClZ5L+UAjjLvoOyo852o3ww5basBGb77ob3cuWu3YNIvpKLBb72GrC6dOnj0+n0xdgsCuQG89IBm0CcK9lWXe3tLQkhvOLhmHMA3Cxhhzay8vLa7PsgKM9mj59elk6nX4EQEHfdRHRo11dXee2t7f3ep3LLkNt/ssAnIbsL8h12FheXj45V947Qp/9au0PPQpYhJHt1d4vpYcdigPOPceztQFWdw86nnwSHY8/CU6lXLsOM8+Nx+P/sY8fU+Fw+GSfz3cJM5+K3FkJzhhaK+D3+59sbGzc5wsZiUSOJCItCyyY+cx4PP6QjlhuGnr08SyAw73OJUu8AeDLXg4gyrE2PwN4Afq2Gt5kmuaPNMQROWa/n+1Ho9FrmPkmN5MBgNJDD0H1md9CSX1mBglZnZ3Y9syz2Pb0QljdPW5fbmVvb++R69ev37m/vzB16tRxRUVF5zPzxQDqXMxNt20AHrFt+/ZEItG4tx80DOMNACM9C2B3b5imeZSGOK5paGiYYlnWcxgc1COGMHPcsqyTM30CXY6t5u8eelw0h4hCAF7REJNt2464sctHZL/hLO4jwzAWAviCW8nsrrhuGkafOBvlxx+n/ewAtix0L38bnS8vQvfSZa7e8e9mm8/nO7KpqSk+wt9XkUjkswAuIaLTkFtdgZeGugJPfFJXIBKJnElED2i63pGmab6lKZZWhmHUY/DOTcusjTy02ufzndjU1OT6HPqhhZeXIzfa/C0A7hgYGJjf2tq6AwAMw7gfwDkaYr9gmubnNMQROWhYq/unT59elU6nFwOY7lI+H6cURjXUY9TMGRg1YwZK6qMjmjCY3rAB3e+twM6V76PnvRWwOjtdSHaPUkT0+Vgs9rKOYFOnTh0XCAR2rRXIpa7AZiK6Tyl11+6F0PTp04vS6fQaAI4PiGDmB+Lx+NlO4+hWV1d3oM/nW4L829+v22rLsk5oaWlZpzvwpEmTSkaNGrWrza91e7MLGMALtm3PSSQSz2C3465nzJgxpr+/vw0a2v9E9M18OZtBDN+wt/cNDSRZ4tkwEqVQNH48gpMmIlAzAf7RlVAlxaDiYlAgALu3d/D/+vqQ2rARqbY2pNs3wOpxvb2/R8z8nXg8fo8LoXfvCpyK7D8nfhcG8DKAeYFA4PHGxsZUNBq9jplv0BA75fP5arNpIM3QQtrFAA7yMg+/D5h4gA+jigmjyxRKgoNv/539jB3dNnr7GG1bLAx4P9NvVTAYPHblypVajhDO1Tb/nmYpRCKR7xPRbRqutTkQCBy4P2t1RH4a0f7+oQEuSwCM1ZxPPvqRaZqur53I9bUCRPQwMz8LoFhDzJ+ZpvlTDXEcGxqu9QKAjI7E9Cng4LoAjjioCAfX+TFtoh8TD/DBp/b+e5YNrN9sYXW7hZUtabzVmEJjaxpW5sctLU6lUqesWbOmb6QBcqzN3wrgjlQqNX/NmjXb9/aDkUhkJREd7PSCzHxzPB6/xmkckbtGfMDP0Ort5+HdLPJc8FPTNH+W4WuSYRifBXAJBj/4cqkrMAA9axs22bY9JZFI9GuI5QQZhvEYgK9k4mJ+H3DsIUX48rElOHpmEUYV6zm/q6ePseS9FJ5Z0odX3+vPZIdg2Cc85mCb/8WhhbIfavPvSTgcPkop9ZqOa/t8vqiDNUkiDzj6hKivr59l2/azkE7AJ7neNE0dLe0R260rcBGAsJe5eOBc0zQXeJlANBq9gplvdfs61ZUK53y+BKcdX4IxFfu4xXeoo9PGU6/04f5ne5Hc4X5bgIgujcVi/7uvn5s2bdpkv99/KQbXxYRcT8yZHma+n5n/kEgkhjXJ0jCM3wH4gYYcXjJNU8vEV5G7HN8iGIYxDcBzKLwvmD2xmPmyeDw+1+tEdjdUrF2CwZXDuTimdFiI6O1YLDbLq+sbhnEEBrdpudaBGR/y4cJTR+G044sRDGg9rXuf+lKMxxf1Yf7TPdi8zdVCIAXg2D0Ne8rXNv+eGIbxLoBDNOTybdM0H9YQR+QwLZ8aDQ0NEyzL+hv0/MPMZT3MfG48Hn/M60T2pK6ubqzf79+1ViCvizal1DHNzc062qXDUltbW1lUVPQ2XJrx4PcBZ5w8Cpd9o1Rbm3+kdvYz7n2mF396qgdp94bItgQCgUN3jRMOh8NBpdQZGLwTzoXPnCVEdNuECRMedzpq1zCMrXDe4Ujatj0xCx6RCY9p+/SIRqPlAOYy85m6YuaYdUqprzY3N7t3hrBmBdAVeNg0zW9n+qKGYSwA4MpWxIPrAvj5d8sxrca1QzlHJLHewnV37sCq1a5VAXcMDAzcnGNt/gXMPGe4bf69MQyjA8AYh2F+Z5rmf+nIR+Q27bcPhmFcAuA26FnNnSueUUqd19zcnPQ6kZHY1RWwbfsiIop4nY9GaQBTTdNsy9QFh1rSL0Hze4sIOOvzo3DFGWUIZNd3/7+kB4BbH+rGg//oBesf78MYXCSXC23+P6ZSqT+NtM2/NxoeATARNcRisZiunETucqV/GA6HD1JK/QWZPDDIG31EdG0sFrsdWTrRbLjyrStARL+IxWI/zsS1Zs2aFejq6noXmvf7lwQJv7q0AifOCuoM65oX3urD/8ztQl8qL94S+2PXDIw5sVhsIfZjNf9IRSKRW4noipH+PhH9MxaLzQQU4/4AABCJSURBVNaYkshhrlTTHR0dW4LB4L1FRUWEwTPes71qH4lXmPnLpmku9DoRnbZu3bohmUwurKysvIuItgCoHTp3PFc1lJeXz9m+fbt7T6iHVFRU/BCA1kcOFaWE/726Ep85OFd2cwLTJvpxeEMRXlzaj1R+z5frYeb5zHx+PB6/JZlMxuDyjUBVVdUWIroEI7x5Y+arZOyv2MX1FUR1dXVhpdQfiOgUt6+VIduI6GexWGwOXKz0s0mudwVcPInxX4ZGOScAlOqKWV2pcOe1lQhPytKe/z4k1lu45FfbMrJdMMNWY3A1vytt/n0xDONBjKDQJKLXY7HYMciTbqVwLmNLiA3D+BaAnyNHV54TUS8z3x4MBm/WdURprgmHwwcQ0flDR6oaXuczDO+YpvkpNy8QjUZ/w8zaFlaVlyrc8+NKRA7MzS//XWIfDODCG7ejqzfni4BdQ63mxGKxp+Fh8T+0y+QNDG+i5Gbbto+WqX9id5neQ+SLRCJnENF/I3fWB/QAmE9EN8VisXavk8kSFI1GZzPzJQC+CiAXHk4fb5qmjvGpHzN01v8aAGU64hUXEeZeU4nDorky8HHvljWlcOnNO9Cfzskbzx4i+j/Lsubsa6x1JoXD4UlKqccAHL4fP97q8/lOa2pqet/tvERuyfSzee7o6FiZTCbnhkKh94hoMrJ3OtpGZv61z+c7KxaLPZZMJru8TiibJJPJNclk8tExY8bcicEpf7XI4q1ZzFze0dHhytSzqqqqawFoG6n68+9W4PjDcqGm2j81B/gwLuTDy8tzatv5agC/SKVS57S0tPy1o6Nji9cJ7a6jo6OzvLx8gVJqBxEdhk9+9NRJRLcPDAycHY/HtU9XFLnP21NEANTX1xvMfA4znwNgisfppAAstG373kmTJv3N6aEdBSbbuwIDQ5PPNuoMGg6HK5RSa+B8bzYA4PTZJbj+ovwcr/GTeV14cvFOr9PYm6xp8w/H7Nmz/W1tbUcDOJSIxjHzdiJ6v7u7+5/t7e29XucnspfnBcBuKBwOH09EXyGikwDMQGby6wTwd2Z+Mp1OP+vFop58YxhGNYDzMDiQKGvWCjDz9+Lx+J06Yw6de6ElZniSDw/cUIXiomx6W+qzs59x5nXb0NqedXV1Vrb5hXBb1n7ShMPhA3w+32zbtk8iolkY/CIZ7TCsBWA1M7+rlFoC4NUJEya8K3f6rqH6+voThnYQnA6PuwLMPD8ej1+oM6ZhGK8COMZpHCLgvp+MwSGR/HjuvyfvxNK44MZtbhwUNBLtAO5SSs3J1UO8hHAiawuATzJ9+vTxlmXV27ZtAKjB4KKrcgCVGHwGFsTgHb019J9bmHkDgDZmXt3X19e0fv36rO5B5qvdugIXY3irl3X6m2maX9AVLBqNTmXmFmh4H+Vz6/+jrruzE0+90udlCtrO5hcil+XUHqOh57cbASzyOBUxTKZpbguHw6ZSah28KwA6dQZj5vOg4cu/vFThim9p2UCQE678dhleWtaP7p0ZbQN8rM0vp+GKQpdTBYDIPeFw+ACl1MUALgUw0eN0WjXHO0tHkG9/rgSjy3KqGedIVYXCNz5bgnsWZmR92mpm/mNxcfGfCvX8DiH2RAoA4YqGhoaDBwYGriSiM5Elg6Fs235OV6xwOFwHDYdalQQJZ/5bzh2u6Nj5XxyFh5/fiZ39rnUBpM0vxD5IASC0mjZt2uhAIHCrZVnnEZHyOp/dvJtIJBbrCqaUOlFHnNNnl2BMRTa9TJlRWa7wlROK8dA/9C3JGTqt8/98Pt+cXYfeSJtfiD2TAkBoYxjGRGb+OzMf7HUuH2ER0Q+g9wz0k3QEOe34rGiOeOK047QVAB3MfFMwGLxb2vxC7D8pAIQW4XA4COBRIsq2L38w87Wmab6sMSQBcNwBCE/yIzqlcN+CDVMDCE/yIbHechpqezwe/42OnIQoJIXXexSuIKLvY3D0czbpGZoE+FudQaPRqAFgvNM4Xz6ucO/+d/niMVrWP0wLh8MH6AgkRCGRAkA4Nnv2bD8RaZuE59TQs+C5RGS4MQaYmQ/SEefomUU6wuS0o2foOfhIKbU/Q3GEELsp3P6j0Katre1oIhrrdR4ANgCYx8x/iMfjW128Tr3TAKPLCOGJ8vYzJgdQWa6wvcvZsftDj56e1ZOVEIVBOgDCMaXUpzxOYTmA82pqaiabpvlT0zTd/PIHNMw3OOKgIih590Ep4NMNWjohjosyIQqN3IIIHbwYA9zHzA8CmBOPx98FANM0M3JhIoqyw8PsD5qa32f+D0fDFB9eeMtxGCkAhBgmKQCEY8ycya1XGwHcadv2HYlEwpMZ7cwccRqjdoJPRyp5QcdrwcyTNKQiREGRAkDo0JyBa7wG4Pby8vLHli9fns7A9fam0mmA2hopAHaprdHSDRmHwe2Z2TFnUIgcIAWAcMy27ReVUp0AKjSHTgF40rbtWxOJxOuaY4/IpEmTSqDhfVNTLQXALhMP0LIYoqi+vr5KxvoKsf9kGZJwLJFI9AP4k8aQmwD8GsA00zS/mS1f/gAQDAYdz+z1+4DiosIZ/rMvJUGCT8MnEREVzkhFITSQDoDQIhAI3JhOp78O4EAHYd5i5tuKior+2tjYmNKVm05E5LgAGFUsX/4fNapEoavH2VZA27blZCUhhkEKAKFFY2NjRzgcPk0p9SKAMcP41RQR/dW27dvj8fibbuWni8/nK3W6A6C0RBpvH1VWQujqcRbDtu3CG6sohAPySSS0SSQS7xDRUUT09n78+CZm/rnP56uNxWJn5cKXPwBYluV4tGx6QNapfVQqreU16dcRRIhCIR0AoVVscP7q4ZFI5Ayl1PnMfAyA0qH/uYeZX1RKPWJZ1iNDawdyim3b3crhCT47+6QA+KheDa8JM3dpSEWIgiEFgHCDHY/HHwLwEABfXV1dqLi4eKCxsbHD68ScKi0t7ervd1a37EwxbBtyEuAQy2b0pZwXALZtSwEgxDBIASDcZrW0tGz2OgldioqKup0WALYNdPbYqCyXCgAAdnQzHC6rAAC0trZ2O48iROGQTyAhhmHoECLHjy7WbrQ0ZJMf1m5w/loQUS8AeVGFGAYpAIQYvg1OA6zZ4HgtYd5Yo6EYYmbHfydCFBopAIQYPsdHH7e2yc3qLqvbtRRDMR1BhCgkUgAIMUzM7PjL5t241+MMssfbMS2vRSbmUQiRV6QAEGKYlFKOC4CViTR6ZDsgevoYq1q1FADSARBimKQAEGL4HH/ZWDbwjp4735y2rCkFy9kJwAAApZTpPIoQhUUKACGGye/3vwvA8dfWi0tz7hwk7V5apuU1sAKBwHs6AglRSKQAEGKYhg40cvyF8/xb/VoOwMlVfSnGi0u1zHx6Z+XKldt0BBKikEgBIMTIvOQ0QFevjcXvZOXQw4x4eVk/unqd9/+Z2fHfhRCFSAoAIUZGy5fOn1/YqSNMTvrzi3r+7Eqpl7UEEqLASAEgxAgQ0SsAHK/iW9aUKsjFgMua0rr+3KlgMPiKjkBCFBopAIQYgVgs1kVEWu48736qR0eYnDLvCW1/5hdWrFhReC+gEBpIASDEyN2vI8ir76Xw1qrCWQvw2soU3mzU9uddoCuQEIVGCgAhRqirq+txAFpG0N44vwupdP7vCEgPAL++X9vU3s7u7u6ndAUTotBIASDECLW3t/cCeFRHrLUbLSz4W/4vCLxnYS/WaJj+N+SRob8DIcQISAEghANKqft0xZr7eA+aVufvgsDG1gHMe6JbWzxm1vIIRohCJQWAEA40NzcvArBUR6xUmvHDP3Rq2RufbTp7bPxwzg6k9U1Bfisejy/WFk2IAiQFgBDO/VJXoHWbLFx/VxfsPKoBLJtx3Z2daNuibwQyEf1CWzAhCpTP6wSEyHXJZDIWCoVOBzBOR7zV7Ra2ddo4/rCgjnCe+82CHjz9ap/OkO+ZpvkDnQGFKERSAAihQVVV1XYi+pqueI2rB+BTwKz6Il0hPTH3sR7cs1DvOj0i+s9kMtmoNagQBUgKACE06OjoaAqFQqcBGK8r5tJVaTADhx+Ue0UAM/DHR3tw5+N6z+ghordjsdiVAPJ/z6QQLpMCQAg9OBQKvQ3gQgCkK+jy5jQ2bB18HKC0RXWXZTN+eV83FvxN+w4927btr3V0dKzTHViIQiQFgBCaJJPJtqqqqilEdJjOuLG1A3i/JY1jZhahOJjdVUBHp42rbuvEc2/0uxH+rng8PteNwEIUIikAhNBo7NixS5j5OwBG6Yy7bpOFZ1/rw8F1AUyozs637fLmFL5703bE1urb67ebJIDTk8mkHPwjhCbZ+UkiRI7aunXrzqqqqi1E9BXdsXv6GAtf7UNnL+NQI4Aif3Z0A7p6bdz2cDd+dV8Pune682ieiL5rmuYbrgQXokBlxyeIEHnGMIwFAM52K/7YMQpXnVmGUz5TDPLoXWzbwN/f6MfvHuzC1u2uHlxwr2maF7h5ASEKkRQAQrhg5syZpX19fUsBNLh5nfAkH87/Uim+cHQxfBk61su2gcXv9mPu472ZOLp4VXd39+Fy5r8Q+kkBIIRL6uvrZ9i2/SaAErevNXmcD6efWIIvHB3EuCp3nuxtTFp4Zkk/nli8Ex9s1Heq354QUa9lWUckEgnZ8y+EC6QAEMJFhmGcA+A+ZOi9phTw6foinHBYEQ6fXgTjQP+IHxHYNhBfN4Clq1JY9HY/lsfSmTyimJn57Hg8/mDGrihEgZECQAiXRaPRq5n5115cu7JcYUadH7UT/Kid4MPk8T6Uj1IoKyGMKh58+/f2Mbp3Mjp7bHyw0cLajRZWtw/g/dYBbO/ybCjBf5mm+TuvLi5EIZACQIgMMAzjtwCu8jqPXMDMN8fj8Wu8zkOIfCfbAIXIgGQy+Xx1dfVkAFoPCco3zPxAPB7/f17nIUQhkHHAQmQGx2KxiwHc5XUiWez+ioqKCyDn/AuREdIBECJzOJlMLgyFQgAw2+NcsgoR3W6a5vc2bNjg/vYCIQQAKQCEyLhkMrmoqqpqGxGdAlmHw8x8tWmaP/E6ESEKjRQAQnigo6Pjzerq6iYApwAIep2PR3Yw81nxePxPXiciRCEq9LsPITxVX19fa9v2wwCO9DqXTCKitwcGBs5oaWlJeJ2LEIVKOgBCeGjr1q3bx4wZs0ApVYHCKQIW9Pb2nr527drNXiciRCGTDoAQWSIajZ4KYA4zT/Y6F5esYebL4/H4Qq8TEUJIB0CIrJFMJmPBYHBeUVHRAICjAPi9zkmTNBHdEQgEvt7c3Py+18kIIQZJB0CILBQOhw9SSs0BcJLXuTj0PIDvm6bZ7HUiQogPkwJAiCxmGMaxAK4B8CWvcxmmJQCuN03zRa8TEUJ8MikAhMgBkUjkUCL6bwBfR/a+bxnAM8x8Yzwef9PrZIQQe5etHyRCiE9QV1d3oN/vP9O27QuJKOJ1PgBARB8w80OWZd0t2/qEyB1SAAiRmygajR5t2/bZRPRFAAdm9OJEH9i2/QwzL0gkEq9n8tpCCD2kABAiD9TV1YV9Pt9JGFw0eCKAsZovsQnAywBesm37pUQi0aI5vhAiw6QAECIP1dXVjVVK1RNRlIgMAFFmHsvMpURUBmA0gIqhH+/E4LG83UTUw8yblFImM5vMHLNtu7mlpUUO7REiz/x/B7cfm2/FI9cAAAAASUVORK5CYII=;" vertex="1" parent="1">
          <mxGeometry x="994.5" y="464.5" width="81" height="81" as="geometry" />
        </mxCell>
        <mxCell id="2QCwJeMMzPczJVexIRF--85" value="Machine Learning" style="text;html=1;align=center;verticalAlign=middle;whiteSpace=wrap;rounded=0;" vertex="1" parent="1">
          <mxGeometry x="990" y="550" width="100" height="30" as="geometry" />
        </mxCell>
        <mxCell id="2QCwJeMMzPczJVexIRF--86" value="" style="shape=image;imageAspect=0;aspect=fixed;verticalLabelPosition=bottom;verticalAlign=top;image=data:image/png,iVBORw0KGgoAAAANSUhEUgAAAgAAAAIACAYAAAD0eNT6AAAABHNCSVQICAgIfAhkiAAAAAlwSFlzAAAOxAAADsQBlSsOGwAAABl0RVh0U29mdHdhcmUAd3d3Lmlua3NjYXBlLm9yZ5vuPBoAACAASURBVHic7N15YFTV2Qbw5zl3JgnIFggJq+wgRFBkTcgyQAg7shh3bV2pba12tf2qLa1dbGs3bbXWutQVCYKAskMCJOybQgANi4iKohRBhSwz9/3+mCUzk5mQhISwvL+W5M6de889d9rMee9ZAaWUUkoppZRSSimllFJKKaWUUkoppZRSSimllFJKKaWUUkoppZRSSimllFJKKaWUUkoppZRSSimllFJKKaWUUkoppZRSSimllFJKKaWUUkoppZRSSimllFJKKaWUUkoppZRSSimllFJKKaWUUkoppZRSSimllFJKKaWUUkoppZRSSimllFJKKaWUUkoppZRSSimllFJKKaWUUkoppZRSSimllFJKKaWUUkoppZRSSimllFJKKaWUUkoppZRSSimllFJKKaWUUkoppZRSSimllFJKKaWUUkoppZRSSimllFJKKaWUUkopdZ44dOhQo08//fSeL774Ir6h86KUqszR0BlQSl1YPv744wSPyB0WeZ9tS9vS0tKvALzY0PlSSoXSAEApVSfef//9LqR1v8fjuZM0jQUAKRDhFGgAoNQ5hw2dAaXU+a24uPgqy3LebwxuIOkgDWgIQ4I0MIanALRu06bN1w2dV6VUBa0BUErVmIiwuLh4JMn7SDNBYEPEAPA+9UMIIUAIRNjIGI4GMKdhc62UCqYBgFKq2oqKimJIXv/ee+/9BGAy6KtGFEAoIAiRiEHAFGgAoNQ5RZsAlFKnVVxc3KykpOQ2GvMjQ9OBpK+aP7S6P9q2MTx+9GhSYnIyyxr6XpRSXloDoJSKauvWrZ0sy7r/5KlTdxqaJsFP+oFtIfwd/oKf+sNqAJq3bv1ZFoCFDX1PSikvDQCUUpVs2LC9p8Ph+RnAm2yB0wAQCECCkYIAX9U/KIDNTWJkISm/gJD+IMC25WZoAKDUOUObAJRSARs3bkwW4QPG8AYaOgwNQqr7w7aNCVT37zJkLoBXunXr9h4AHDp0qJBkKiuOPWlZVpvWrVt/2cC3qZSC1gAopQCsX7++n23jR7YtN5KwBBVP+kC0p37ssm3mGmPP7Nm9154Iyc4UQSq8x0KEjW3bngLghbN7d0qpSLQGQKmLWH5+YYpx4EFDjjUkaYyv4x4RcdvwS8uYl0XkX5dffvnbVaV94MCBNg6H40PSWEEdApe2aZM0+mzdn1IqOg0AlLoIrVq1qq8IH6JhToRC3ttzP6i63xjugTHPG+Df/fr1O1bd6xw6dGg5yZFBowJsh8NxaUJCwkf1eX9KqdPTJgClLiIrV65MFsGvPbZMIf0d9+kbyy/ebQEAgZAlBsgl8a8rr7xybS0v+aoIRnovBAhoPB7PdQD+Ulf3pJSqHa0BUOoisHDhim6WQ2YY8kYaGuN74id9VfOh20cMzd8B+6khQ4YcPZPr7vnss6aXlJR8RJqmQc0AO9u0SepbV/emlKodDQCUuoAtXLiwg9D6sUVMpzGxwQV+hKr/9w2tv8XEOJ4eOHDgybrKwwcfHPqHMfxO6ORAHJaUlFTbWgWlVB3QJgClLkALFy5s5rbxf7bgPgOJ81bte8fxe4fre6v7AcBADgL4dXlZ+QvDhw9313VeROwnRKxvk96ZgbyTBmE6AA0AlGpAWgOg1AVk1qxZVmxso7tA/MrQJHo79EWdsvcwLfPbxISEp5OTk+t1it5Dhw6tJM3woDyciouLbd+iRYtqdyhUStUt09AZUErVjdmz3xjtcMS8bYv9JASJAoF3ej7fLH4iEO/2KYj9cHl5WY/hmZn/rO/C3+efvl6A8OWoUVlZ2S1n4bpKqSi0BkCp89zs2bOTRfgoDcf4n/SjPPULwZmWxZ+OGjXqg7OZRxGxPvzww3eMMX2CaiCKkpKSLj+b+VBKVdAAQKnz1HPPzW3RqFHZb2nM3aRxmLCCP2z7PcvwW2PGjMlrqPweOnRoKmle9+fTt0pgemJiYkFD5Umpi5k2ASh1HnrllVduiI0r3S3AtyFwAAIRfxV7SNV/GQQPN24Ud0VDFv4A0KFDh7mAbJKKZgCI4P6GzJNSFzOtAVDqPPLsyy93ddryTxozxvcEXdVTv3/7sGVYIMYUOsiC7OzsraR3up+z7YMPPs62LFkS1AzgAdArKSlpX0PkR6mLmQYASp0HnnrqKWdcXOMfg3iQNI2iTdlbRRAQvH3EMtwo5CaHMZvLy8s3jx49+sjZupePPvpoMcnRQasEPpaYmHjf2bq+UspLAwClznHPPPNMGo31L5LJp3/qNzDkcRo2P11AEDwk0DL8AOTbNKbIIneQ3HX8+PHd48aNK63r+zl48GBXh8O5g4aNfXn4KibG2TE+Pv6Lur6WUio6DQCUOkf95S+zGjVt+uUjNLyXNAx56q/6Sf9tiOMm45R0IxxtLDOSZNPTTP8bPkcAaIybNAcNsRfG2mdR9hpj9oo4PgLKD+/fv//Itdde66nNvX388cffA/h3/7UA64GkpIQ/1vFHqJSqggYASp2DnnzyP/2NZb9EWn181eQh1f1B22WkiakcEOCFaVOnfgMAnnpqs7Nt2yOplsXRJEbTmP4kGT0IiDpVsDf9im2b5BEafkqYj4zBEdL6iDSfGiNHHA7HlyJyCsAJkl+KxJ1yOt1fXXrppScA2IcPH55Lmqt9QcCHrVu37kqyvGE/eaUuHhoAKHUOmTVrlnX06LEfg/gVaWIqP/UHCuPFhviNMSYWNEtJY4Ufa2junzLl6r+HX2PJkiWJts1sY5nRhhhOY9pXXStQ9VLBrGLbn+cIsxCWkqbcGDbxDwm0LPPNhISE/zbE567UxUgDAKXOEX/965OdY2LkBdCkV/HU/xksfuu2W2+d4z/v1Vdf+yWIGRGaBDykdc2UKRPfqOq6eXl5nT0epFmWGUYijcb0IStWDDxdrUAdBQQgTXHr1gm96R0ZoJSqZxoAKHUO+NvfHrvVWNbjJJsFCslKQYDZTNhTb7/99kPB586YMcP06NVnqWUwMkIQcBIww6dMmbixunlZs2ZNvIik0pg0Q6bRmIGkiatcyFermSB6EBAhIDDG3JKQkPBS3X/CSqlwGgAo1YBmzHgurnnzE/+iMd/wFogROul5C/PCRnGx426++eYTkdJ55ZVXkmg5NhuyQ4Qg4KjDYVwTJkzYWZs8Lly4MDY+Pn6gMY5UEgNo2J803Y23Z2LVBX7kJ/2qagX2JCQkXK61AErVPw0AlGogf/7znzsC1us0HBTxqbhie1eM0xp22223VTlMbubMmYNAs9rQxEUYLfCJw2Eyx48f/15d5L2goKBpXFyTK4xBf2PxCkOTTPIyGraoRdU/gqcHJnFj69atX62LfCqlotMAQKkG8Oijj2bYMLMMmRT9qd+A5JeG0n/69OnVminvtddeuxk0L0YZ93/I4bCGjxs3rt5m3duzZ087j8fT2xjTm2QPkp2MsS4lzaU0aFXNgGBXQkKrviTt+sqnUkoDAKXOukce+eN3aMxfjTFO+trQ/UFApWYAmjvuuefuZ2uS/mu5uX8i+KMocwR87LDMqHHjxu2qr/uL5uOPP25cXl7eGUBLAPGWZcWLmHhjcJsxvCKsL8D1rVq1eu1s51Gpi4kGAEqdJY899ljsVydP/ZPgHabyk36k7fXfvmd6ak3n7Z8xY4bp3bvvy8bC9VGCgGOGGDt+/PgN9XWv1bF37yeJsXHuJww5LbwZwLLM/pYtW/YmWdaQeVTqQqarASp1FghAZ/G7NzU+/sVYAN6V++BdtC94O7BOngA25Ue1WbRnxowZNun5BkQWSeRVAuMFXLJo0aKRdXJztXDw4MGcmJiynRBMC1oZMLBKoG1L16NHj97dUPlT6mKgNQBKnUVLXcMGfhV3ycPHOnfud6xTl3bijI1c9W9M4b3f/XbamVxr4cKFsSdPnsqlMROjTBtcboh7xo4d+0xd3d/pFBcXd7Acjj8bmmsj9AWwSWMq+gLwM5LdW7VqFXHkg1LqzGgAoNRZNisnx2r+0YGfgvj5V4lt5ItLuzb+sl172DFxFQUi+LllWQVCbjIwKxMSmm+qzbz7Tz31lDMhIfEZGt4Sde0A8JENG9b9fMaMGfXW6a64uLgZyAcMeT9pGkcYEviuiH29w+H4L2n6BfUF+G3Lli0frK98KXUx0wBAqQayNPXKKw2sl0QkWUiUtGqNL9u2x9dt26O0VSJgTHBA8Jmx8JzT4Xjq9ttv31/Ta70+d97PDPEb7wx/EUcILLQsc2tWVtbRurzHzZs3O5s2bXo3yF8amtYRnvqFtP7TuHHcj1q1anXi8OHDg40xa0lavn4BJ0WkZ0JCwkd1mS+llAYASjWohWO7xzpPNP8NBT9AUJ8ccTpxqlUCShKSUNI6EaWt28DTqDGMoU2a1x0Wf3Lbbbe9X5Nrvf7GG1kWzPM0bB9l3v+DlmWuHTlyZLVnDYwmLy/PkZiYeB2N+YWh6RlpoiDC7DAG3+/UqdOK4HM/+eTI32hwn6noEPhsfHz8HWeaJ6VUKA0AlDoHLE/tnyIwL5DoHvpHycAfqbtxY5S2ao3SpLYoTWxbWp6Y+Gipbf9u+vTpJ8PTmzVrViMALW2HI94p0lLEtDQOxlPYwxjzAxrGhtUA+AOCMkP8X0FBwV9r0yRQVFTUxO227zCG36dhp4r0QyYHOkjiF126dHkp0lj/I0eONBHBFhr29AUBHssyg1u0aLG1pvlRSkWnAYBS54hlAwY0Z5w8Q3AaEFT0B/2VBv/BitOBsviEUnfz+EOlbdq5y9t2MO6WLZvQWC0NWTEbYNjUvNH6AoRNyFPocFi3ZWZmFlcn7+t37EiKddv3kriHhi2jTA/8maH1O8B+skePHqVVpXfkyJErAawjTZxveOCG+Pj4VJ0cSKm6owGAUueYlWmD7obI4yBi/Psq/aEyuG6ggsQ4Ud4qEe7WiShPbAtPYht4WiWAxopc4AeaASIFBOYkgIeaNWvy+MCBA8srXUuEmzZtyqBl3WHAHJJxURYFescy5vHGjRu/3LFjx1PV/RyOHDnyHZL/CCxvbMxdLVq0+E/1P0mlVFU0AFDqHLQybcAQgK8B6BTyR0ocJWgBaBGyO8JfMn0/JS4O5YlJ8LRuA7fvN1olAA4HIvUFCOsXAJJ7LMv8OD09/U0AKCgoaGeM4xvG4m2k6RFllUAPyXmA9Xjfvr3za/s5HPn881wDXOMLAj63LOuyZs2a1WlHRaUuVhoAKHWOWpyS0jLWKn8ZwBjvXypB4GMSORmrN61fm5qa4HaUd6ewj1B6ARgMYAiBWF8VQUD4H7pYFuyE1vAktoGd2BZ2YltImzZgo8ZRAwJjzDLSlJAYS2MckZcCtjaT8iqA16688soz7rl/9OjRZrbIRkP2Ig1g+O+WLVpMP9N0lVIaACh1TpuVk2MlfHLgTwb8ftDuMgi+7yrY9ET48WtTUhqVOz0pMBhBwTUEeoUcENKtILy7IWC3aAFpnQS7dRLQOgmS2AZIbAPGxFRVQ3DYGD5pWdbM/v37V6vPQE0cPXq0jwg2GMMmJG1jzNDmzZtvquvrKHWx0QBAqfNAftqg20A8CSDWX90vxH+afGV/e+CWLZXa5/1Wpw+9CvTcQMNbACRFLPijfAv4dwstIL4FkNQWSEwCEtsBSW1hktqATqdvBj/ON4bPiMiSSP0FztTRo0dzAL5mDElya/PmzYeQdNf1dZS6mGgAoNR5YnX6wGFCzgGQ6N9HcGlMKXOGbthQ5XS5hZmDU4QsRNDffPR+A76tKpoQAACGQKvWMEltgaS2YJt2sNq0PWYlJs6CM/alK6+8sqDaN1cNR48efZQ0PzSGAPDzFi1a/K4u01fqYqMBgFLnkTVpg7rahksIdAfg+wuWHR6accPzN3xY1bkFrqHPA/KNKgt+Vm4WiHRw5f1BoYNlga0TYeJbHbPf3/cUSk5us0X2tIpp+W6PRYuqHP5XFRFxHDt2bBlJF40ptYwZ0LRp06LapqfUxU4DAKXOM4WpqYlup/stAgOBwB/xQVs4KnP1hqht8AWjhrWj270XQCP/PgIg5AGbPAwiETbbkWwNIImQtvDWNiSCkSoMGLpVxbeJ7y0PnDGfOrr1aGHatCl3tO0oVtv24mzb4YQjvsWXpCk1hscBuC3LOg5jygzwtX+hJN9iSYkkJ/s6H25q1rRpqjYFKFU7GgAodR5akt3vksaljXIBGRvYSXwKYnR63sa3o51XOHzwnwH+IPSJn4+mrlz342jnFOUkx5w81riDG1ZXwnQl7K4CdoWNdjRoC6Br+DmR5i0Ifyf4GDa+BFbrRDjadYSzfUc4k5LgaH8pnO07wLKs4AmK4J8XwLeK4s+aNWv2SLS8K6Wi0wBAqfNUUXJyzP8SGv8X5PWBzn2C/xH2mGGrNkXsJV+YnZrIcvsgiDj/PgIfDc1YfylnoFaz7BVmpyY6RfrCZjJoXw5wAIi+AJzRCvyIIvQ5YEwsnO3aw9m2vTcwaN8Rse07IqZdR1ixMSBZSvKqpk2b7qpN3pW6mGkAoNR5bFZOjtXus4P/BXiTfx+JL2wgKz1vw5ZI56wdPvR5EN8IeQKnjBi6YkNeXeVrbUpKI0dT9KeNwaTJEIgLQHzFBUN+VUOlI8XRrPkXjpatjjKu0e6S3TvnENxpx5XsGrhgS6W1EZRSlWkAoNR5blZOjtX+8w+eg+CWoL/o/9FjslJXr9sWfnzhyNRBRuyKFf8IUPD00JXr766vPMoMmK1r0/oDMkIgEwGkArBCj4pSW1CzbykbwAEBdhrBLhjugGBXbLNju5Nzi8pqmX2lLkgaACh1AZAZMOtWDX1WIN8AAn/YR41BxtAVGypVj68bMXQDiMFBfQGONY0/0eZsFZJbx6a39njsSQQeJtAWQZmuiRqc4gZYDKKItr1TgCIbsvPLsti9w/PztROhuihpAKDUBUJmwKxdNeQlAjcEjdX7wLaslLRlhR8HH7shK+VWEflvaMM7Jw9dvnbe2cjrltEp3UHzTwiyox1T7S+n2nyLSWCrDMBuQHaR3CFAEeF5p//i9e/XIlWlzisaACh1ASnKSY45frTZAkCyAd8wP8p2xCBz6KKKyYLyXK64RlbpYQAtgobwvThk+bpb6zN/eS5XXLM4908h8gAQ0hERAMoFfJ6QuwL7iVkCfkLYcQI0BYwTkBYg4iFoJWArAzStaT6kilc+/wNkm4DbjHCb7XFv2xff8b1rc3M9Nb2WUucqDQCUusDkuVxN4kzJCngXB/JWBpBLHcfKJgRPG7xhZOpLoNwUdOrRg/EdkuqrkNsyJmU0xPwjMIlRMHKtZdvT/1cWs7d5XLlvyWCC4G39F695vqp0Nw8Y4ERC4wRj2e1hox3BDgK0NUAnAbqB6AZBUk3zK5W3vgbwjtiyDcRmC9x4RUrh7tqOnlCqoWkAoNQFaLNrQEK5ca4BcVlgTn/wv0NXrLuNvhJtfVbqNEJmA0Hz/lsmY8iSwjV1mZeN41xtnJ7yvwtwbWBnRaa+APCz/imF//YXpNvGpB0H0Mz3/m/7Lyl48EzzUORyNSmNdXcj0RMGyRAkA0gG0AMCR03SkqCfAE4AskmEG0hscJa7N/RdseHTM82vUmeDBgBKXaDWulK6G0s2AGwZ2Gnw8NBl634BAG9n97uk1L7kM/hnBiRB4I+Dlq19oK7ysHV06jSA/wKRULGXIAARvua2rPsHL8z/JPicbWPSiwHp7p3WgK9dtWjN9XWVn3BFOckx7hMtL7cNBpAygIIBAvQDEBMo4iO2EFSQ8IMEBwGsF2C9wKze36zN29p0oM5FGgAodQFblzU0i8JFBByBsfeU2wYvW/88AGzMSp0HyiR/oQxg96Bla/uc6XU3Zw1obqy4x0D4+hQw6KEfh0CZftWiwkWRzt0+Jq0QRKrv5ZYrFxUMPNP81ERRTnJM+ZfxgwG4aJApglQAjYGgYr6KoCAkIPD+OgFBAcjVFM8az9GyTVWt4KjU2aIBgFIXuI0jU78nlL/7XxMosY2dNnTphi0bRg27k5Cng78IjJEeA5as21vb620bk+YSyPMEO4W9JQSedbvjfjhw+fLj0c7fPjZtLoDJvpfHr1xU0KK2eakLRTnJMWVftRwEiItAJrxzGFwCnD4giBAMAMBJIdbDltUE8o6XxazVoYiqIWgAoNRFYENWyjMEbgfgmzGYB63ymIF0lLS2aQLzBPhW/PnewKVrH6/pNfJcrrjmjdy/oeD7AEzIm8RhCm+7cvGaJadLZ/vYjKdICUxK5BEkXrVozWc1zU992TxggNPRutEPQTwMhPYfkMCPyiS0mSB48wQgK0EudtjW0iuWrj5Q55lWKoIadX5RSp2frEZl99olMUMAJAOEATrZzrKX3m/RcXyXLz46BiI+6GlgBIAaBQBbRqd0N3TPhuCKwE7/VATEW7bwtv6Lq1mI0z4S/GzisEx3AOdEALBtQprL8vCXArjCinQAoasihgcD/kYQAQBW1AoQaAZwsggmu+nB5tHD3jPCxR6RJYwrydepjVV90RoApS4Sm7JTLxfBRgYtByyUH1vACAErVhUEv9jfvF1CdTuubRubPhkizwNo7j098MVSRuIn/RYWPMbTdqWrsGNc2vcEDGqykFv7Lix4sbrn14cdE9Jcts1fAciIeIC3tN8skIMAp0V+O9JplZoHwg8roWClB5hjWWb+uVQTos5/5vSHKKUuBIOWrt1pwB/4X5OAAX8L0tchjd7/EC26nPhwwOnSkxkw28ek/R4ic0A0J71p+gr/TyEYecXCgr/XpPAHAJs84p3ByPvPNqZbTc6vSzsnpF3xzvj0RWIzj0BGULYCBLIMgqwrFhUMAs0J/5M+wZ8L8SsIFhM4xvATEfjEQxINOyxOiHGG+I/tsQ9vHjUsb3N26r0bszM61ttNq4uGNgEodREZuKzwX5tGp46lYJJvV4wIJwRXXQMAxRoBYGPlFLzezs6+ZPv6ky+CmBKhGnGL5TFT+i5dfahWmbR5hEYCGaJEmDionm0b4+rssORhEftGAkbCb1IgBOaB8psr3ioIrLpogCFCb8FuyLlXvLVmt/dw8J0xw3rCcDCBdAEyRNDLf16geSC0acC/6T2GsAC4BHQZuP++OTt1EyBzScw+k06b6uKlAYBSFxnL5j02JRNAc3if+ENqAn3TB48E8Eik87dPSGnv8Zycb4Crwt8z5FtfXeLOSc0tOFXrDBpzBEGT60mkmQPrSfHYIc1KrLgHIfZ9AGICQUhQbgRYTNgP9V1YuDn43M1ZWc2B0sv8r8tt+dy/TUCwuPBdAO8CeBEAisa52pSjPENsZkAwAkTvaIGABCVE7wEU70yPg0Xw+03ZqetIvhDj4Gv93io4VpefibpwaR8ApS5CW7LT7gbkqcpV0oGNr+3PSuLDx6tvH5fWk4JlAlwaeh5ByqyyT0/dfKZj3N+ekppolTuCZ9M7evmbqxOinlAHZAbMzk0Z3yTxOyB02uCK9nvJN8Z6KHlBfkGkNN4Zn5YF4TLfS0/fwWtiajJN8NZxqZ2MzTEiHANipHftg9A+AiFtKVJ5EiIBSiBcYGi/cKIsdrEOL1RV0QBAqYuQANyanZoHMhMIKfh9vwhjMPSKhQUb/G9tH5vRH7AXA0isOJy+x1s8994lbe6qixnvZuXkWH1OfVqGoD5Kttgt6+vJdsf4jFRDPiaQaP0e9gjtH/ddUPBmlelMyJghIr/0vpJP+71V0Ka2eSrKSY5xf9UqzRbPGAHHANI3YhAAQMJ6GAa9/BQir3jEfn7oig3v1DYv6sKlAYBSF6lNY4b1MoIdBJwAAmPYKoIB+XH/RYWPAsC28RmptO2F8PX0D3RcA0Dh3D1NknLqcrrbogkZRwC09r8WcvDlC1Ztqqv0AeCd8WnxDsv6gwjuREgtf6AwPQrIjFOHTz5VnVqNHePT8wC6AICw11z+VkHkEQO18PZYVwcbZWNFOAaCLADNTlsbEBoprBXyMXO0ZI7OQqj8dBSAUhepQYsL3yXxL3+3cwYX/gAAkw4AW8cNG+gv/L1V/RWFvwBrv2pSflOdz3VPHkFgWAGBOu4HsHtixo0OY+2G4C6GPwiRbiH+VuYw3ZPfXPOP6hSYB1yuOJBDK/aY3XWZ3ysW5X/Yf9Hap69aXDitqWmWKMJJRvASAO8Sz4GbqLiVsFEHqRSZabeMfX9jduqDhdmpiVAXPe0EqNRFzHY6f23Kym8hGTLdrrfMlbSto9OusISLBdI8+KkfAAxQ7IiNmXRl7prad/iL7giAZP/lyLoJAHZPdnUWkadEkA0g8MAcdFvrxcN7Ll+4antN0j3V2B5MIC4oMNpV9Rm112PRolIACwAsyHO54lrElo0W8FohJhJoKlLRbZDwzr8cdJ/tRPCwE/LgpqyU12yax4csC+3MqC4eWgOg1EVs4IL8z2nw28COwAM3AKClMVgNoFXwU7/vwbJMKDf0nrviaH3ki+CRsH4JZxQACMA9k1zfgi3vUJAdGM9fMbD/mJD39B6waljywvwaFf4A4DEYEbLDsN4CgGDD8/NL+i9ZO++qJYU3lTazk0BOJTgT4Nf+YyoN8fT+jBXiVoq9aUNWytp1o4ZOkvCaEHXB0xoApS5yTdDs8a/w5f0k2oe/R7JZyOvAhvyiX9D497pGI0ck9Om81gHArnEjOu1x2P8BkBWpjCNkthuO7/adv+JTzK/dNQwxJrSTnuOsd7pLzV13CsBcAHPX5qQ0ch7neANcL8BEAjFhNQEQEKCAghQjnLcxK2XbBsGvB69YN6+mkzep85NGfEopbB+T/n1Q/uJ/HV7dH/JFQazuO2jN8JoMcaupPZNcDwrk4Yqry5He81clVXlSxHSG3w7afwVCAxmfz0F+57I38madSV7fnehKcEM+RaBGVfYmL1jd40zSrEubXa4EiSm/hWLfKWSfytMOS1AnQgAib5P49aDl6+dqIHBh0wBAKYW3s7MvEevk+wASohb+sp74SQAAIABJREFUFU0ANsB1AiywLPN68vz8Op+FbvfVrukQ/AuoaJKwyho177Fo0YnqnL8vJ6u5u9TzpFBuiPQ+BW8KnNMvm7/s4zPNa9Ek180UeREIlJbPJS9YdfuZplsftmSnDbBh3w3BjQCaAP5hg+FjCAARFJH448H4Di/XeSdPdU7QPgBKKVyxdOnXAB8/feFPADQAhhF4RGz7vZ0TMjbsHJ/xwK4JGXX21GsgRyoGAHiVO0qr1Qzw7tWZ6eVl5e+AckPw3P3ef3ICgpt7zc+fWBeFvzevGBPaP4Jr6yLd+jBgacGWQUvXTi9txHYgpsM/3TPDxxAAJJJF8N+ORz/cvnZkypizn1tV37QGQCkFACgandLSbTk+AhAXVuUfeYhZGG9nM+4AOceGZ07f+Wtq3Q6+Z9LwYaAEZtzz9mbndVVV10tOjvVe+dGHAHkQgBXhkI0GvLHHGyv31TZf4YpykmOs0oRPBWjhf3q2hL17LcjfU1fXqG9bRg7p5zGOuwGZDhEHUKkmwIuy0Db8YerSdefNvamqaQCglArYPj79JSO4CUBIr/+qCn+G/gg+ei8Ec8Qyc/rMy9tYk/bkXRMyeliWeS/k0sKf95qX97tIxxfnpLeWcutlgKMivC0A/nQi8cSDA/9dt5Pg7Jo0fDwhb1ZcBh9fNn9Vh/Oh7bzI5WrytaM8m5QJACYI0LpSfwAgfJKhcht8wlNq/Sq9QNccON/pKAClVICx8TSImyIW/pVmzAk89Ye+rnjRHcRPjNg/2TMp88PdNHMp9txesYmreZo25dhGMUfc5e6QFGkijwQonjIyRcrtWQA6RMjI5xTe1OONlUurul5tWZRrBP6nZIKChedy4b8xO6OjgXuCgJNOocxFIC7KyICQBYgggQ2ngdzHGPfN60cO+eUpT6OndL2B85fWACilAgTgjgnpuyHoFTIvYFjhX9E3IELhz7DX4QGE4DMA80nOMWVxK3wT21Ty3uThJQBig3K3pucb+SHT6743dcS9EHmUQEyEJLZY5LSuc1YejHy3Z6YoJyfGKvvsEwDx/n02ZGqfeavm1sf1amtTVlpXY9nXgMyBYGD4tMHBSwkEjQQIfY2gpgDvioj+N3cZ2PcOWblxZb3dgKo3WgOglAogIDuA/wIMVLVHrvKP+tRfueAPT4NoDeAOQO6wY08d3zM58y0DM6eJp8midgsWnAw68jMAHYIii0ANQFFOTkyM5/MnIHJHlFt5ztFcvt3l+byS6Hd7ZqzSz8eQiA8qJEuNuJfX1/VqYsvolO6kdQ0o18CWAQCD2vIR8oQfND1A2MM+dgE4CiA94nHeHX1smOXrRgz9D2PlR0MXbajWKA11btAaAKVUiLfHDOtlLGsPEFZwC58npRXIEQAuAU7/1B+9s2DYcd4Xp0BZTMEcB/BmObmCwFXBOTj5tbNp4+anGtPtfF18BVNYmmUU3Ndt7sp/1eima+HdycPfAORqf6loA8t7z8uP1AfhrNiRndHRY9k3CuQ6CPv790tQo37lJ/qQxYPKQK4mZIHY5s3SxvJZzEn7bQG6hJ4TSDUkQVtwiIZ3p65Yt7iu703VDw0AlFKV7BifsYtE7+B9BG9PfnPVc0U5yTE4lZhOY4+GYAyIvt73K34CVXUWjHQ0woOIMgBuAI1D9gpvoZGHAXSulGnimNBM7TF7eX41b7PWdk1Nb+uwHR9IoBZVQBv39JyfX++BR7DNWVnNHc6SaRTcLEQmfEO7g1cCDJ7sp+J1YNdnABYJZIHH8iwNfoLfNCrlSRF8K+icVQAGiaBxVc0HAnm+zC79/vD87V/U7d2quqZNAEqpSoyRuSIMBAAEAIM2AJCcW1QGFK0AsALAT4qnujqUl9ujQTOGQBaI0IWFQjZOW/D7xQCMAcKbD+SFyocCAPYZI+O75i5/t/p3WXtOj3WrEI6KanGWi8jss3HtzQMGOJ2JjcaQuFlQOgmgdxGioFKfrHgZVq0PADtJvEmxFxQ377Ah0iQ/m7KHjRKR6UFtBe+edMeOcTrLWzpFfiXAbYBYkZoPCH4zlrHZa0YM/Vb6yvUL6udTUHVBawCUUpUUjUsbIsasB4La/IV/T34z//6qzstzuRzt4jFUbIwBMIaQ/iB9E46xOgW/97gqvpkqvUUUumPsyb1ezf+8qrzVFZkxwxS/vXoPID2CHnvf6jkvb0J9XvftMcN6GYfjDoH9DQgSIz/RB1XpV7xZBjDfFnuBoefN/ovXv1/VddaPHdLMcls7AFzqmyVQYOgavHTtav8xG4cPS7aN/QdAxkfrROgLOl6KNe7vDly+5Xjt71zVF60BUEpVcuSkY0vrJvZXBJoESmN6awCq4hsSVuD79+DeKdmJbinLBjjWAKMAtPalVaOCP1Lg4OMWyDxnqbkEwFkJAPZuWz2eRnoAvo5wAEh5tT6utTYnpVHTkphrALkTNtIhwghP9L5MABT6g4CThCwS4RyPJ+6tgcuXV7sAttzmLwAuDdr1dHDhDwCD8wqLAExYP3LIcAgfA3B5aJYIQiCCm0s9jtS1I1JuSF25bmONPwBVr7QGQCkVUdGE9GWgyfK/JmRVnwWrXbVNT2bMMO+9s2YAYY8hMAaCIQCsaAV/eAfD4HcifXEJsNVQZrlt++Uec/I/rG0+T6d4yoh8AJlBS+t9XWZJm+Tc/K/q6hq7r87oKx5Mt4GbAG+TSminu9BOeL5fx4V4Ex57jttZsnjggi0nUUObR6eOF8EC74QAAICPHeUxyf3z86O2528eMMBZ3tz5AwC/ANC4Ui2AV7kI/m9Y/oY/n8vzJFxsNABQSkVUNDHzFwB+BQSe7PYkL1jVu+qzqu/g+LT4sjjnKNhmNCHXgGjmvxZCNrwvon5ZVe5saAskj4JnTppWryfn5pbVVZ73TR05SCAbgaBe9MQzPebk3Xmmaee5XI7EZjIFIt8BmAnfRSKPxQ+EACcofENsvGY1Pbrc2z+jdraOTW9tezw7ACT5ryPCaYOXF86pzvkbsgd3sd3mHwKMC85sWKfDt8TtvEVnETw3aACglIqoaGLGCIArggrko33mr0qo6+vsnTrimwCepr9JMmT+oehVA9X88vqEwNOwHU92nrPk8BllFMDeqcNnArzO/1oEMOTgbnNWbKptmkXjXG3okLsATIegPRA+FW+lIOAkgDdBzmzyFRd1yc+vk7kOtoweNk9EJvmvT+HcgcsKp9Y0nbUjUnIAeRxAUuQARvbZFqdmrNhQ67UiVN3QAEApFVHx2PTW5Q5zBID/m6K8z/xVkWbcq7V900b8VAS/Y1hZX6ngr1mhH3KcrwAqEeBZ2PLH2s4MWDxteLIRvg3ACirUtnafs3JAbdJ7d2LmIBu4H8Q18M1kWEWHujIAS0jMRJyZX5fNDQCwJTvtbkCeCiqujxthn6uWFdZqxcTV6emtHTHup2HbV0epwfhaRO5KX7WxXvpOqOrRAEApFdXuiZmfCpDo77QXd4KN6uKJU2bMMPveWf03AvcCCKn3J+ARQS6J6yN3FqzAqoYLRFYO4D+2Q37V9dUVn9bkxH3TRswFMNl7A4HC+u7uc1c+Xd00BGDxpOHjbMiP4R23X3lyHd+Bvl+bQL7gEMzstaB+RjlsG5XRwzaebQAuqWjW4D0DlxSe8ZwG61xD7xTKXwVoAl/SweMUbMrv0/M2/Vz7BTQMDQCUUlHtmpiZB8Ll/6JwWrFJ3ecuPXImaRaPHRtrGpe+CEEOgKCnewJAOcCbxcgNRnyFbYVyAM5aFPqRfAnBH6WJ+9Euz58+oDkwbfgQgVknAINK5/+VWHan6jyNF48dG+uJK7mJYv8Qwj7hpV3wrHwCHBIbL9kiL/Z9a/Xumt5YTeS5XI5mseUFAIYE8kEpGJCyNpMzYNfFNda6UroL7RcBDA1cA4A/4KEtr8d9bd86cEvNOy2qM2MaOgNKqXParopNQsTd9EwS25eT1ZxxJYshyAERmBzIV/iXkswxYq2xBCFj6gm6LUt6O8h+BO8HsBBAqT+JSv8Y9q/yMU1BPIyvHe+8n5M94rQZp/mdL9mK5gnKP05X+BePHdvs3cnDfyaxJQeM4BnA9IlSq1EC8GWKjOx91arOyW+u+r/6LvwBoEWsewZ9hT8AECiFyF11VfgDQGr+ur1l0ihdBI8i5Enf+ykIOe1UE2tVwbBh7erqmqp6tAZAKRXVrokZD5B8xPuKsAz693wjf3tt0tozaVQ7h8OziEC/sCp/ACgxlKmdZ69cdOCakT8DELQYEQHglc65y28KTq/4prHNYt1l40RwI8CxqOm8JsHT4BPPlzud9/d4eVGlxWz25wyfRDHzwua+P1ke4+kUbfKhopzRLWPcZfcB+J4ALSrPxe+tC7chu0g+7XHGvpCcu+R/Ncr/Gdo6Oi0LkCUATGA2P/KhqxYX/Ka+rrl2xOAc2+az8DUJhK1TcNBDz5jh+Vv21Nf1VSgNAJRSUe2e6PomKM/5vyosmMye81euPs1plRyY5rrMI2YxgU4RCv+vhebqbrOXrRCA708bWQyiW1BVv9i2XNn19RVRe40fyHG1cdB5qwDfQegkNhFI5QZn7479Arm5c+6Kdf7dH0+c2Lg09uQuAJ0Ch3mryR/vOnvl98KTKc5Jbw238wcEviOQQG1JWOe+U6CdC/DpXnPzC6rOa/3YMXJIUrnTuR2QNv4ymODG46WOYb7JnOrN6pFD+hgP5gDoFWE+g6M0Znx63voN9ZkH5aVNAEqpqAwk0FGOBDwGcTVNo3jKyBSPmAL6ClFfav7C/0uIjOs2e9kKAPjgmlEjwgp/AFhYVeEPAF1y8z/pOGvZHzseKe8G8gYQOyvV+4dc2/+fwC6A6Epw9fvXZv3Iv7s87tRDCMq3r8WiFDb+HJzi+1PT2+6bMvzPxuM8QOKnIJpGeL7aR8EPYiDtes1d9Y2GKvxlBozbGfMCUTGzI4GTHsqt9V34A0DGig27HI0wGIL5Ed5uJba9oiBz4Nj6zofSAEApVQU35ZPggszAY9Xk/OJpIyaSshxAKwDhw/m+oDC765yKGgUb9p3hnfwIPFLd6zE/333pa0tndrRbXAnhHRR8GN4vIDQgqBQIOCj40/vXZL1yMCd7gAA/qJQfwb/8Qwk/nDKy1f5pI//ooXMvyB/At0wyfNcDKBQsp81JPa7M7NljXt5fu7wRfVa9s2Hb+rSfAJIdslPkp4MWF56VhZQAYOiiDSeGDd8whZC/R3j7ElvMvPzMwTlnKz8XK20CUEpFtWdiRheh2Q94CzQxmNh7bv6b1Tl337Tht4vwKcC7al5Yb/+jtrFHd8/N2+I//sMpI1u5HfwIQKx/H4GCTrnL02ub/48nTmxsNyq9TygPAGge/n7E6XUr9rklqF+BeLuvn3Azprun9ERJbGzc98XGDwA0l6A6bG91Or4WyEtCPN7j9byi2ua/rm0bn5EKj70KvvsS70yGy/ovKhzdUEPxVmcO/j6BRxHUF8G3sJEbwDczV296uSHydTHQGgClVFQURxmAivWAPKzWd8Z7k0c8KML/oFLHPALAEQAjggt/ACg3vBWhhT+kBk//kbRbsOBkh1lLf++wHT0oqLRcb3BgguC6AO8vR/ATEkkI8A8nym6Ji4nbL4JfIRBUBI78lJD/c5SWdew+J+9b51Lh/874tHhj26+CQf+bCL+w4L69IcfhZ6za+FcA1wMIH47pAPDf/MxBt539XF0cNABQSkVlOR3lwa9Ju8omAMnJsYqnjnjCGDyM4PK1olw9bGy6IrXp0yAwn76v8H+nU+7yhWd6DwDQNnfRZx1mLcsBzU0kQnrb+5sHKl5Hn3bQgPeI4M8CJITd1wFQvhNjnerSbU7e7zu9dW7NdS8AbRvPSlgHSRr57hWLNtTbwknVlb5qYy7JUQDCm0csCv6Tlz74jNdaUJVpAKCUiupk2cmQAMCmifqdUTx2bOxe9+evQHBP5CPkkMBkdp67vNL49oPXjhoGoA9QUe4a8pG6fjLtOHPJK07afUgzv1L5zgib4WP2ifjQc2QnyG8cPOrp2W123hMdc9edqsv81pW3x6Z/F75ZDIPuZ27/RYXnTPV6Wv6GAhF7BICjYZ+7MZSn8tIH3dxgmbtAaQCglIoqxpKQXuG07YjfGQfHp8Uz7tQyANdGTkkOWMaZ2e31ZcWR37ZDn/AM9neUFrNqkeXTEof1FQVHwNAVB8KbA6KpGJwoj3TJXdmv6+zlL5yN3vO1tX1sRn8CfwrbfbisvOyuBslQFTJXb95mUbIAhM+vYAg8tzJ94LSGyNeFSgMApVRUtsM0CSkLxVRabrZ4qqtDaYxzjYDROusVi9uZ2Tl36YFIb+7LyWouYEjgQOGfmJvrqX3OIzt04+jBnnJsE4o34IgUBJxmu6JDBH988JoRv9589wBnXeezruyZNKwpKTMR1LcC3i52dw5ZsfFoQ+WrKsPyN20XsUbA21ckmMOAr6xMHzy+IfJ1IdIAQCkVFSWmaWjhJ6XBL4snDk8W4VoCyYFDQh+ed1soz+w+b+mhaNcwwI0AGgOBgvYTT+Py588w6yEkJ8f6+PrsBy2RAgA9wqr1Q4XXAkSvDLAEfLDl/1oU7Js2qkedZbYOlXjMkwB6huwk/t1/cWGd9K2oL5mr1+0wHkQKAmIMJHdFxqDUhsjXhUYDAKVUdGKHzP0vpqKn9rtTXGliYQ2AjlHOfgficHWes+ZwVZcgEFr9T/6tOgv0VNcnt2R3OWx9uQrEwwI4qyjQ99fyEoMJe+u+a7Km1vL8evHOuIzpFNwUtvs950nHjyKecI5JK9xURLHHAgifnrmRJbJgVcZVvRsiXxcSDQCUUlWQkADA4asBeHeyazKFS4GwTnF+xJZy4YjTrRx4MGf4AABXBe06XuZ0PHlmea5w+MbRt9oebgdlWFXZAHgzwDPpcNiEIrP3Tx35a5kxo8G/V3eMGzYQlSfZKRHa1yXnn371wnNFxpotW4VmMoCQmicBWoptFq9ISWnfQFm7IDT4/1GVUucwj7QNe13y3hTXtwDOBtAo8klcb3nsrN5zV5y2jdkW686Qfv7kE5EW5KmpgzeOj//ohtGvieC/EDQLGUxQsekG+ZcYT/nlEJkMSLczvCyF8tC+navnFt80ttkZplVrRaNTWgpMLkLb/SGCH/ZfuLZWCzk1JNeqDXkUuQlASJ8QAS61rPKFBcOGndEKlRczDQCUUtEZdgoun21YPxbBkwCs0FnbAla73SXZ1Znu9pNbsi8B5Mag+fdOeSw70tSwNXL4xtHDnVL+NiHXenMmvp8VBLKJsAd3eHXJD0uN4zYQ1wS9GdggZC6k0tj0KlEwyTpVmr9/0sikM72XmpIZMB6H4wUAnUMzxdz+iwueONv5qSsZaza/TsG3w/cL0K+Mpa/Oysmp0RTVyksDAKVUVCLoFPLwTLmhipH5q8ocMv6y+YVfViftkpP2dQAqnpRFnu366opPo59Rtc13D3B+dGP2DFtkuQAd/YV+yPS+gq9t8KftPS1S2s9cvu2D60cNBPin4EMC28SLl85aMfVU6alLQf4UwDFfPkMvHOHzEKC/OOx1e3Nc3Wt7P7Wxc1PazwCE95LfX14Wc84N+aupzIJN/xbiDxHeGt/q8PuR9qvT0ABAKRWVEYmytG5oqUfIIkdzGZOcW/32ZaHcEfTSDVp/jnrwaRzOGdunzfFWG2HjlxAYBJf+FVHAXNvj7tVx5pI/MDfXc2CyqwUFs+CrKg9dFwAb7UbuuwHgsvmFX3aatewPHqCLCP4gQGAoZGitQsWG95LsAo9ZtXeK6/La3ldNFI3NGAHwV2G7Sw3s6wYuX378bOShvrlWb/o/AJXWoiDkh3nDBt4R4RRVBQ0AlFJRCXnadnGCb5Q5Wk+uSc/94mnDkwWoGMolMjPaPAFV5g/gR9dlfddjeTaDuDJSuS/AB4Bc3X7m0qkdc1d+5D/PEet4DkCX4MR8d/QJxTM1/H665S4/3mX28p/aYi4X4K2IuamsncDkFU8bnhzpzbqyfcKI9raFVwUIVIX7gpD7+i4s3Fyf1z6bCNgny8xNFNkFhH7iNvDEyrQBQxooa+clDQCUUhG9nZ19CSBVVmELMOt44vFrk3NzK00QVBVDK3jon7g9Vo2rcA/kuNp8eN2ot2zwcRFp5K2aD6n09wD4a4ynLLn9zGUha89/dF3WfQAnw39GRUlSZhv3NH+gEEm315cVd529YoLQvhqCw/40ELIRIgE2lu+bMrJnxHfP0OYBA5yWuF+DIDF4vwDPXblw9VP1cc2GNG7DhhMeG5NAVHQy9X7uMSJ4ZeGQIQ3WAfN8owGAUiqimJjSfvA9UQY3ewdVlb/Y05lw48B/bymvfHZ0B77piqPILYHOg8Sb3ecu3VmTND7IGTXJMs53AIwNzpeI/59sNsLBHWYu/UFiWLPEoeuzhwj4h7B7ASCwie90nrlybXXy0DU3b36Mjb4imBlc8oc0C1RcoI0H9oo9EzO6oI7FJTV+BMCwwJW9v7Y0P2lV6jR3PisYNqzp6vQhfVZkDMg2lkknsCHCYV3jHO7ztrPj2RZ9Sgyl1EVt16TMewg84f+aCF0xD//p2d81nTNm2DVNd9+0ETcQfMWfkIEM6zy7eoXuJ7dkX1JeZv9FhHcHZ6Yia/IlwIc62C3+EWkq4UM5o1vC2FsFoZ0bAYENPNF51vLv1PR+AGD/NSNyxMbTAJpHCQD8wcZe8UhKrwX54XPd18rOienTxGYuAPpHO8DGUQc9A/osXHuwLq5xthSmpiZKjKerx7a7UdDVNuhKQXsA7UXQEUBTwHeXIbEOgkaieH/akJRRhVvXn907OP84Tn+IUuoi1d/7SxBSxAL/7DUv/17Oy6/txDl3BVIUrO78evUK/w+uGzmopNR+iUBP7xA9BjLk+/J/wzid93Z4eVHE5W0F4CHaz0PQKXivr9Fg1ectjt1fy/tB19krc/fmuLaJx8wmcAUQsfAHgO60OLd47NisHosWlUZOrXp2j0vr6RY+i8BHCQDwkOaGPgvXnJOFf55rQEKMMX1sMZdR0AOCrkLpBkFXG+6mIgB9kSbDR1vUAIWpADQAOA0NAJRSkQnSJOjpWgSAkb9c9saqH9V2md69Oa7usOHyFryERXnktNnIybEO8osHbFtmEPAuvFPxvAsCh0Dce+lry+dVlc6ha7N+CGBixZk+xMFY25lT06aMcN1z8/ceyklJKfE0+icFt0X7iARIQ8ypZwS4pbaf4+aJAxp7xOR6JznypQqANh/ou2jVstrdQd1Z5xraWSxeRkgf2LhMRC4Toje8/SGClluIdvs1/lj+B8qnFPkIMBvtUnmmtnm/mGgTgFKqkqJxrja05GMwuOafAsoaA7MCBvN6zc17u6bpFk8Z8XtD/NS39u72rq+vuKqqQvDA9a7O9DheBJAWvN+XJw+M/OPUqZKHTjf3wAfXj0wXmysR/NDjvepJsZHW+fXl22p6L1UpnjL8+wAeBWCC+xkE9xSg4MGe8/J/W5v0d07MeB6Cb1Q8JAsEfLbfW6vP6lC4tSkpjawmJtn2eK40QD+hXAFBPwFbVGQtNOAK7U8SuTo/LEj7VAT7QNlLG/ttykcU86kN+4hlzMdfX3LsyLhFe8+oNuVipQGAUqqSnRMzbzBAoJ2e/g1U9AUQyC4L5qnyGHm2OuP/N989wNni8+YfAGhDAGJ4Q/fZK2ZGO37/tJE3k/gHgOYMbegHgK2EubtT7tItp7vu/htGJllubgXQLni/t7+g3NAld8Vrp0ujNvZOdk22DV+C4JLQQk78//VAZNRl81fl1STdnRMy7wLk3yEFqcgq65L/ZSfnFtVoNEZNrB87pBlsxwDLYw8UylUivAJATxH/0ENBxGCnegHAJwLsEshegvtg2/soZq/b8fW+4flF583aBecbDQCUUpXsmpT5bwi8s8eFlL2VOwQa4JhNPhLbQh6rai6AvVNHTAEwx/+ym9Xqskgd9Q5MdrWwHdaTBrg+/D0CXwn4UGfGPx7p3HCSk2MdxLFlAIZXepP4TedZyx86XRpnYs8010Dj4VsAEsMKf79PPOXon7ww/5PqpLdrYvpVtrAQQFzQ0/8+R0zMkOqsvVBdmycOaCwlzv4CDiQ4EIJBQvSAiPHdBYJuByE/qw4A/ic2dsJIkUB2ClAUa7hzyIqNdZZ3VX3aB0ApVYkIRgEVvcsq+gKEdggEABuIp8gfyr7A3e9OcX2z19z8gihp3lUROPDRSAV48TVZLhF5geKdyjcs+Jjvdpjvdp+59FB17+MDHPsNIhX+kLmd+qT/Elhe3aRq5bLX8zfvmTQ8gwbLEHnZ5DbGIS/LjBmjTjei4p3xafEinI2Qwh/HAU4808J/+7i0nm63pBBIESAFpZLs7aLhfV+CuhmGPM2Hb1fsKAewQ4CtJIqMzZ3lnvKijDVbqlwaWp1dWgOglAqxa2L6VQKzBQjurBX8q3ItQGAvxRaYGb3eyPtNcNv+vpysS223Zz8AizCHpSSmS3Av+KKcnJg4+fxhCH8EwDDoq0mAjywj93bOXTm3JvdxcNqIiULOk8rfc++cpGdYTaYtPlO7J7s6G2AZBN0jV4fLD3vPX/WXaOcLwKIJGfMATAwqaMshHN93Yc06/W2eOKCx8cQOhNukguIt8IHW3qf5oF4K4XM/VK69gHg/3FIBdgD2FtjYCmBL04SvdtRnc4SqGxoAKKVCFI3P+A2In/tL+OoGAaHHmZc+/sK+bXh+vhsA3p06YoYR+SUACPCTnnPzAgvwvDclq7eh/TL9ww4r0vQQ/GdZecmD1V1gyO/gtKyuNrEZkPjQd+QzOOzBXWbmv1+T9OrCrqnpbY3HWgngMiD4iVkA4JTYckWfN1cXRzq3aGLGT0XweyBQMAsgt/Z9a81Lp7vu5qys5pZVmgYjGRRk2JABEO9oitPMWYCQY7wHlNjEOxRugW1v9RhuiTlWtnNZthT1AAAgAElEQVTgljMbQaEahgYASqkQOydk7ALQ21u48xSALwnfNLOn6Q8QHAQI+EovZ8KtAFBc/vl+EJcS+MLjKbv0svmFXwrAvVOH30PwUQCNgtMgsE3A6d3mrNhU0/wf+KYrDl9bhRBc5d/nK8TKAGR1nb1iTU3TrCt7Jo1qR5avEqB7hAK3oPeAVZmcgZCmgJ3jM4eTskwAy/9UTvKBy99c9cdI19g80ZVguT1pBsgU2JkC9oOvo17wk3zFa/+uiE//e21gHYn1tGXdV+7YHf6gTp3/NABQSgUUXZ3eRzwsAvxV+lzYZ8CqiTu3uq6yYF8N4T0gWlUVBFScC0DwCGhWE7LQd+Bve85d+eD+SSOT3MZ+lsQ4hI41/ErIX3541PNYbQua/dNG/Btg5eVvBXd2nbOiwceHF03MutTQvQqQzkCltvPv9FmwKjCV7Z5Jw9q5bWsrgKTAccRjfd9cfZ//mOKxQ5qdNLEuCEYC9ggRJCPou/20w+4Cx9hfE9wskLUiZr3lMOuuWrTms7q6b3Xu0QBAKRWwc0LG74H/Z++846sssv//+cxz00MggAhIETEIhE7oLQlNAoiKZHVd2ypiQf26NnR/62arZXft4OJaUdc1iCggRXqvIi0UQVBQaVIEQtp95vz+uCXPvUmAJDcJhHn7ekFm7jwz57lqzpkzZ87BOH+HYFybL5b4C/Vsv6ZXDVtcD5B4gvAloTmjESAAdwNoTuC0Ylgz0e5uouRNv1fB/wCnK0uNbT553t6yyr/n+tTbhXwnuF+Al5tPmV/mTH+h5puhva+wLWuJAJcBcCrlo8rlatFq6vwjC5OTXZfE6gUA+gD+8/bJJ6ILbos7Hd5dIP1F0F8gSfAFdJfuHP9bCFZCuEqLvcLs7i8+jAFgMBgAAAuTk111Y/ReEg18fRrs2W7G4pXBY7el9W4hLusTAm09PWfxBAAg+DZE8kGO8TT9Y34UwUMtPls4pTzy7x7Zv51AVgKIDvroy71H9NDzTbltG9G3rQiXQFALKNyRU2R86xlLxm4e3vefFDwC+BW5DWC5QLoAiDqrGz/gQ2gR2SSQxUqsRQr2ivZfrjhUcW9nuBAwBoDBYAAAbBnWb7iITAP8ijw7d392fEkBXuuGd46OYey7AEZ5es5gBAAA5QSg4hx9mpAJyIv6fcKsWSfKI/u3owbUhK3XAkgI+ugbV15+96ZfLDtWnvkriqyh/fpQYY74YiA8d+bdAP4E4M8ISokvQVo/0I3vbMEGsEELFlvEIiosa3eefgeGqsMYAAaDAQCwaWifzwiO8LWVwheJ05cMO9Mz6+7uHBZzIHaaAFcH3Rk4ozcA4AaAY676bMGa8sotAL8dmfoJBNcHfXRcWdL9iskLd5R3jYok65p+oyDIDM6YBwS68EvMtOcZ6BZiPSGLta0W56n8pd1nrS6XUWWo/phEQAaDAeuv6dUQNoZ6SvR4tLQt+OhszyW98VXBxkGDbgiLyFsgRFcWOrI9Z9YOI8CrvLIVkPHjL/JSyqKFIXHJf3t9/99By/VB2xlbKDeer8p/36geUSdzIwYL5HoIhpdB+RdAsI6UxQIsjgiT5aW9KmkwGAPAYDDAVWA9CIrLV2WPYLYVpc5YXc9HWGRBMgSNissYWHhtzTdafjlx6amXUz7/KiTKf+d1/XuI6Gf8S/ogH02YsnBOKNYIFeuGd46Okdj+Qow6kYtrAakBoEiufG+Xs+VT/rshnAel5xXkRX6ZNG/eL5UjuaG6YgwAg+EiZ+OgQTHCnNH+bK8eI+Czs2XK+/ra5Frhtjwnou8GAtMGe9qB3gBPDgE2jD0Qey2AyeWVe/c1/S91Q0/2lwj2IsB7LT5d8FJ55w8Fm4b2jne51HBqDhMgTYiYINf9mZT/zwQWasg8l+g5rWeu+L4yZDZcPBgDwGC42HHl3gWgtldHe4wA0R+e6ZHNQ/sMpa3/A0ED3/Y+4HkAQtgU3gXK7wC0hXhMApIPoJwGwMLkZFeBZX9E4WVBCnRZQVjdu8szd3nJSkuub7lwrYaMBJAMDZegyJm956/AR3MhWC7AXFEyt13npRuCkwIZDKHEBAEaDBcxC5OTXbWj3d8AbObrI/BN265LWxWnfNYNGFAzIjLvRYJ3OMYHR/iBgAjlrsRpS97OGtGntRK1Fv7reYTS7HDVjIUbyyr3jhHJz4Ac5/wFJsD3FsO6Xjn1y0q/3rY1LbUpLH0dKCMB9ASgnNq9pF0/ic0iMpfamptjnVySNP2r05UmtOGix3gADIaLmPhI+0YRNAME9O3kBS8Vp/w3D+87CHb+mxA2RtHgPm/OH7834P8Spy15GwASP1+6Neuafi8TeBLwjLOVjAFwX1lk3n5NyjWgPBF4652nQIyoTOW/7br+LaDt6yEyErA7izP8wUsxu/5jAs4BZJYqkLmt5yw11fEMVYYxAAyGi5TMUaMsnNr//3xtEQHJo7CjJjnHrRveOTpMYp4RLQ/QayUUDe7zHgGIAMLfJ36x+BXnHMpy/Uvc7rEAanhjBK4V4H4W8YKfma3XpzaFrd8WCfA5iBB3tpxado/CuZI1PCWRkGGkHg7b3QsITMRTzI8AZDcEMyhqukQfXtLGVMkznCeYIwCD4SJl/dW97iT5ZsAvAeKvHWYu+4OvuWFovxQl+m0AlxdXDdD3o68l4DNtZyx+qrj1tl7T93UI7/E/ZqmkVp8t/Opc5d2TnByZWxMr/FUDfQj+0HLaor+e6zylQQB+c21qFxF9vYiMBHClt98/IGg8AORDsIRKZtgFrhltZy34tiJkMxjKi/EAGAwXIVmjEsPzT/IPvrzw3p38Sbflehnw3gwIy3mWou/3O/YLg/sAR74Af255Ja+2nb6kWOUPALZWHyvKPYDXYHDbwwCcswGQVwOvQtBRvBN4V//4qmmL/nauc5wLMmqUtS3vSC+KPXIHcZ1ouzEQ7M4PegY4BOALgfrCxfwvW043d/IN5z/GADAYLkJyT8SPVkRTX1sEoMLLSdMX/bzh6t69NU+/S43mzgh/wBHl788X4O0VeafN9KUP4Qy0SVq0ZOtX/Q4BqCcARHE4PClvz8q24cm3C+Uuf4fHCtlwSmr8trTHCMWx7u7OYTH7Y1JAjtyed2gEgUuFJe/0vV1fC+UL0prRuuPCtSZi33ChYY4ADIaLjHUDOtdUVuQ3IOr5a/IIjouWRFh8RBH/B0D5xtPp40fQLw3Pw5nboxv8On3yZPtsa28Z1m8yITd4nqWEu/WlCWcpObv9mj7tNNQq+PLle5Y9DMWurT5b9N3Z37h49iQnR+bF6UEaHAlgOIB4/4fFKHy6XLbr0gY78n/c+4rbrb5oP2vRD2Vd22A4HzAeAIPhIoOuyD9CUM8btec9AlAraGEBgKuKpvD1+PhZjDdABDMKDub8Jv2rsyt/z8N6uZAeA0CEeQqdAJSYsW/7Nb1qaFGZcCh/AAUQpreaVnrlnzUqORa5Oo3kyBxIGoSxZxrPqGip0bUna/Toi9hOXS0VGXkpyYmlXddgOB8xBoDBcBGxblCPlhCMDUjaQ0Cg0+jY2xdm7oOjTwK8AULMj8u2RjUroVpgcSjheu30JvDMBoAW10QBrgrqfqT1jEWLznXNTUN7x7uohhMcKbkyCGBkCcF7AAArJlZqdOvNGj37IrZjFzIsINFgbRGJJJl7rusbDOcrxgAwGC4iBOpFX+rcwvrz3s/o0fqFafsDAgS9XV5vANQq12l1bbNFi0qlCJXL3mXblt+4ELJjSWOzhvcdIyI3eYT0eh+ISW2mLX71bOtsu65/HSkoGApylACDBAg/U6CAVSMOsUndEdcrGbGdupCusJKGEsClAExaXsMFjzEADIaLhLUDe11DyNUidF6iLxAgrNAb4D0SOKM3QL7WEWpI4qwz1woojqumLd+/ZWjfbIg3J75Ip+LGZaUldxDRhfn8PdnzVkW6Y0pM87t5RN/GSvM6ACO1290LpFV0VGE5PVeteNTo0RdxPfshum0H0CpmePE0gDEADNUAYwAYDBcBy67pVYO58pqn5a33J4CAT5NyswBtgGBvgMMQ8F31I7YK1OBOny06XhY5CMgmyC4C7T0mBa/YOaRbXIKjdv3OId3i8pTOBBDpeHB/GO2RCTNm5Tnny7om+Uqx9UgQ18NGF/GXIioeV+06HqXfqx9iEtuDSp1peEk0LMtDBsP5hjEADIaLgIgc/XeBJ4WvL5RPgFW7azb8x5UnforyGQBFC/oE+AO+FbcM7DR32Rmj9s8GBbuEaO8zKXLDwi8HsMn3ea6KmABBguORAi38VZsvlv8EAFnDeyWKtoYBGC5a9zrbXSZXnUtQo3tv1OiVjOhWiaCy/AGNZaRBeR42GM4XjAFgMFRz1gzq0RNCT959b7leAjmieHv65Mn2moE9p1rk047NPgBnkKBAgH1E2IBOcxf9VF55BPg2IG1ugb4MXgNg49De9wnk5qBsg/cqYc6WYX2fgeB6rdHCOVlxuC6phxq9klGjRx9EJbQESI/S99c7kHM1AvIBhAf1GQPAUC0wBoDBUI3ZOWRIxDH38f8IoAKC+0Se6vLlih0A0HXuig3rBvXYA1HNAhLse4dTcNAiBrafXfY7904E8mNg5UDVCAA2Du/TiTZeAAqzDQI4KcAfSLtpoLIvqrxVjTjE9uiD2N6p3p2+AklnzkLP+mdW/ocArAGwDMA8ABEAlgeNMQaAoVpgDACDoRpzrODY/wPY2rOL9+6rBQuTeq98BfMcA8mpEPmdJzCP/sh/AkeFalD72Ut3hE4q/hjU0WjdgAE1YedlChDhPIIAUINADX+X04oBwIhIxHTtidheyYhu1wl0hXlkL6xsCNJ/sFF4xFHIjwAWAVgCYAnJ7c4PRSQKgBuBvytNDIChWmAMAIOhmrImtUdP8ZXgLazZe9ii+k2RtLW2mgqlf+dpCLw3BU7a1EO6zF6+CaFE9I+FSYQJgI3CIvLehKC5V8oiOPU+XWGIat8J0b36ISapO1REpMO9H6zsg1S+yH6QywDMI7mcZNaZRCWZIyLb4Y2R8FKn1O9sMJyHGAPAYKiGLOvVq4ZQvw/AAgrz/Yjwjk7zlhc5x+/ce9mKdSt6HSCkvqdHTtsiw7t+uXJNqGVTtvWjbXnsD/H8kw6NWMARbhi0TRcA4Vdehdg+KYjp0ReqRhwIBuQoKLK992z/d8Pjwl/mdrvnRkVF7SmDyOsRaADUKsMcBsN5hzEADIZqiCtSXhHgCjjS+grwUrd5K74o9oEMCAbqrwUcAiJfUUZ2/XLl4oqQza3c9QHl1NX+dLziuKcPAK669RDdOxkxvVMR1qAh6Avm8wYn+nf7ha5+AZApIlNFZElMTMz+EIi8AcCtjrYxAAzVAmMAGAzVjBWpPa4D9O2eFr3KkV/Fxv8yrrjxq/p3u3Stst4gMASALZq3dJ63YnYoZdo4qG8zsXQ6BLcL0NKfV8CHI9EQw8IR2TEJ0b2SEdkhyXttr3BokXP9wDZFcAOJBiQb5+TkTCnjrt/JzqC2MQAM1QJTDdBgqEYsT+3ZVEGvB1HbEWd/XNvo0nPRyl3B49cM6J4OcAKAOiA1gNu6zl3xQShk2TiobzOt7BtF8CsQ7Qs/YdFfPFSISGyLqF4piOrSHSo83BupT++u31eMiELyOxLNCj9HoWeA3qiCwrYQWKqUeicsLOwTkqXOXigirQBsDeqOJZld2rkMhvMJYwAYDNWEmUOGRMTnHVsKoIu/k3ATktZ9/uq5zrFLh/aOD8+zxwO4yTMMIpT7us1d9e/yyLB+YK+GopAO4EYA3QrFCMLboeLrILpPKqJ7p8Cqd6n/XL9QmRdpf1u7dvyVx48f7yzkrQq8kUS9EpR/QJvkSQDvhIWF/ZPkvnN9JxGJBJANR4lkAI3IIrcZDIYLCmMAGAzVhBUpPV4D5X7A4U4Xub/7wtUTnONW9e82EFBvE2jkHyjyRLf5q54vy7qSAbVuZfdUwrobgmvhqy1Qwm8XpRTCWiYiqt9ARHTqCuWySlL2RdpKcXJ8fHy6f22RsJMnTw6BUndTMISE8hsAwd4B+H/OJ/mhZVl/PFdDQET2Amjs6GpzthsEBsP5jjEADIZqwLKU7ukK8jEAZ/m+13ouWPWAr7GiR48oK0b+KILHACjf//4Uyei2YNWfSrvm+oG9GmrILSDuAXB50RGOfH4ErEvrI7Jbb0T0ToGrdl2/a79Q2Qe3izUGxtWuXfu54uTJyclp6na771JK3QmwQaDyL9YYyCH5olLqOZInipvTh4isBNDd0dWbZHCCIIPhgsIEARoMFzhL+3dtQS3/KczcJxDh3HxEPuwbszKlezdQJmmNFs56AABfLo3ylwyodcu6p4LW3TbkOgCuwNzBAVUDwbAwhLXrjMi+qYho1QZQyhEBUFiUyJd3WARfE+wYeJ2vcFIRWV+SbFFRUd8D+IOI/Dk7O/smpazHASQWHzToeQTAU1rrW0VkNMkzBT4eC2qbQEDDBY/xABgMFzDrBnSumeN2rVREK0f39nzJ65GyaMPxrFGJ4b8cjc2A8HF6cwL4IGVit/mr72WJGfWd6/RuomnfBcFvQVzmncHxZyBW42aI6NMPkV16QcXEFLvTdwT5HVWKH9q2/XajRo02HDhw8DiJmsUEAWrLsurWqlUrWBkXi4jwdF7eUCUyjmSvs8QJCMk3ATxcXHCfiHwI4NeOrhtJfnwuchgM5yvGA2AwXKBkjhpl5R7e+xGBViJ+V/t+bemhKfM2HF/Rt0fbX37WkwB0gEPLexX2B936rL6P88+s/Nf079lFE4/YsEdCPL8v6H/Cs6g/q190NCKSeiCidzKsJpd7lGzJewytgZUKnETigwYNGpwu/Eh+BFizmJx+W89V+QMepQ5gBoAZubm5AwD8AyIdirlT6PtaRgPoJiIjSH4XNF3wusEFggyGCw5jABgMFygNDn3/vBBDfPtwERxVWg3eX7fJ98tT+LjA/jPACMBzLOAZRggwNU9H3lEkHbAXyYBatbj7MCo+oiF9i2TTdYylAFbjpghPGYDwTt2hIiIK9avTte919VNhr4h+17b1O82aNfuuhFf7SYDWhXl9PAl9FbCiLN8TAERGRs4Tkc4FBQW3APgLgMbBRYG87XYAVonItSRXOaY4HjRlRFllMRjOF4wBYDBcgCzr2/U2AX7nL+8rchrkCFJOXnb4+/kC9mNxSlvL3F+iat+UNmuWO3jOmUOGRNTKPf6rVUtlHBVaOX0GfvvB94flQli7jgjvlQxXq0S/a7/Yc30wXwFfkpjUuHHjqSSLrB3EyYBzf3jsAIGUK+iOnjwH74nI5Pz8/KeVUo/Clyo50Bi4FMA8EUkjuaSE6YwHwHDBYwwAg+ECY1lyt95a5A1HgZwcoYwA2doWPQtgLAA4Nv0+lkTUcF+bNn1WnnO+Vf27Xaqh7mfesXtB1PVn6fMH9RXu+VkzHmG9+iG8VzJUzVqeMcUoa297s5BvRYSFfdCoUaMjpXhF52z+v7TWZfYABExOngYwLj8//zOl1JsiSCymOnAMgOkiMojkahT9XWkMAMMFjzEADIYLiKW9u7bQWqaCCPeq5RyCY0TwMEXSxLvrdobniQAiWEO3a1jS9NX+s/alA7pcoTSf1FpuASUiKEbA7wAQAFbzBIT1TUVYu86gywWSnr290KGuBRSeoMJHSvHtK664okyFhLQGlfK6/v1H9PJDvXr1imQyLA/h4eGrRKSzbdsvAbynmCFxAKaJSBKAsODHQymLwVAVGAPAYLhAWNKn4yWaMgNAXXo0fR7IjwXyAoC6AAqVdqAhsDncJWndFi8/CQDLBnRuQtv1CGwZAzDCs2sPiBHw/OhywerQBWHJA2E1buKIlfM7+n2iiUCWUfBmbI3YTxo2bOgI6Cs9pCif38ERBLioPHOWvBbzANzrdrtXkXxdRKIY6A6oB+ATeAoCOTExAIYLHmMAGAwXAAuTE2NFu2YCSAD8VfNOUHC702EO+I/ePX3EjjALA7vNX3NkeWrPplrs38ON2wUICwiA8z0rAtapC1evZLi69YKKifVuwX3BBgGxffupMElEv92qZatvQvi68YVHCT5PgCwK4fxFcLlc74nIRhGZBaB+0MddAWctAwDGA2CoBhgDwGA4z8kcNcrige8+FCAJCDjTv0S8B/YEg0/OAWCfUq7BeQUF4Uv7dXtZa/fdBCKdRwPO+Xh5c4T1TYXVrqO3Ap9vF16o/AFogSyg4I3TOac/S0pKKgj1+wpQzxFH4DFORBaGep1gSG4QkX4A5gNoFPRx8I4/+EjAYLjgMAaAwXAeIwAXH9zzBsBr/H1Fg/u85+8A4Nuly09QuEXb9uOKvBOQCJ8ed8YIMDwCKqk7XL2ToS6t7wjzd0jgPOcXPbZtm7avV9wbAxDULXRjEAT21bv00t0VuqYXkt94jYAFAJqeYaj53Wm44DH/ERsM5zELeyU9R43f+lzhAapZgo0Az58UaIDboTFHIJ48AIGDgJo1YfVMhtWjNxgdU7jbLzmi33fu/3RWVtbHiYmJRyvifbOyssIBxDuS/wBSMef/JUFyt4gMAbAKnkDA4rArUSSDoUIwBoDBcJ6yoE+XpyHyGACfH9y7GXcmr/H8HWQIKEBSAz0C3nH1G8DqmQyV1A0Mc6FIrr2gNsl1AJIcdkB9rfFPAL8N/RsDcXFxTX0uB58BQlXx7v9gSG4TkVsBTEXx2Y7PlsvAYDjvUWcfYjAYKpv5PTs/AJE/AUGJ+sWTtEaCMvh6r/ohaKhnnAjY9ApYt46G66FxYLeegMsKuOYH/+X/gPbanJyc/gIccH4O4vasrKz+IXxdP5ZlXeGXwfuH1npRRax1Nkh+DuCdEj42HgDDBY8xAAyG84z5vTrfBeJl8WhwAD5l7sCTGe/MhoBlgR27QD34BNSYB8FWbSB0RtYBAmSXoPw1ibHdu3c/IZC/BC1OEUxct25ddMhe2ovW+opC5Q8A+L5+/fp7Qr3O2RCR1iIyBcAdJQwxHgDDBY85AjAYziPm9066CSL/hi+Uz5dWFwh05QOOq37i7fMq9/BwoHNXoHcKWLuOf+7C63sCEMsBNZ5gS4g8XbT8Lt/p0KHDGgCwCwr+o8Ii/g9AgiP5T/PIyOjXAdwW0i9AqSud9wxJVanufxG5XGudISK/IWmdYajxABgueIwHwGA4T5jfo/Mo0TJJxFm217HPF2evo+ltSGQE0KMP+PCTwLDrwfjafneAd+xp0fKm1qpj9+7de8fGRk8R0aOd03jHHwP0k75+z1U//ZQ4PAUAAMqtWVnb7g7V+3uWlzYOaSrN/S8il7rd7le01jvgMWrOpPwB4wEwVAOMB8BgOA/4skfnUUL8F97/J4sG9/mMAAbc1BMAiIkFu/YEevUFIqMgLFKEdxfB17XtfqdPnz7+srYnT578Faka+OYpDAKUJzt16nzYOUH79u0/2bhp0+cARhSOBwB5eevWretat269PgRfAyho76wAiApOACQitfLz8x9zu90PkYwJrhDoGwagAIHJf4wHwHDBYwwAg6GK+bJHx5sIeV/gcTkHX/UDSjAE4mtD+qQAnZIAV1iw0tcQzKLC+F69es7xVsILgOTDnhkDkv0s7NSp0xvFyemyrHtsW/cWoI5jfKQIJ2/atCmpXbt2x4p77lzZvfvgpYD7Ur9Mgt0NGzb8vjxzloSIRObl5T2Qn58/jmRtb19weWAhOR1ABoB/w5MR0IfxABgueIwBYDBUIXO7d0oXYBIAy++up7OUj4cAQ6BWPKRPCqRTV0+gH+lMCnCUwNuKeL1Pn94lJs9ZsWJNfxHp6E8g6LECTgMymqQU90xiYuKBjRu3jCXlI2dyIFCucLnCP9+3b9/gxo0b55T1u7Asdztn3AMVFpV1rpIQEZWbm/ub3Ny8v5BoUtgfeJUSwAySGSS/8j4XnPEwDwbDBY4xAAyGKmJO9043C/EeACswuK8EQ+CSerD7pgBtOoKKgM/V7wnaWy/C8RERYR/17NnzHJSw/qO/nI9f+/H3SUmdvz3TU+3bt/nf5s2bRwC40bO0LyhQ+pw8mf2RiIwkWSb3OGm3Fyh/8iEJcfrfU6dODcrJyXkeYHs6Mhx5Xt/fnmnbKiM8nGuDHs8Pap8IpWwGQ1VgDACDoQqY3b1TOoB3RWAVOdNHoCGg612qpWc/Je07glRgYUGePAg+Edjj+/cfsPJc116+fHUqKX3gW8NjaKxMSur0yrk8r7W+SymrpUA6MNATMGL79u2vAyhTYCDJdoUtgdahOf/Pzs7uKCLPkRxYUsIjEcwBkBEWFraqhGmCDYCToZDNYKhKjAFgMFQys7p6zvwBWIXBboFp+AWA1K2Xp5MHREirREWlvOfTAgH3KXAiIW8OGND/YGnXJ+WPQYrwtFL8bXFxAsXRvn377K1bt15ri6yF4BLA77gHwNHbtu042bJli0dLOkooCQHaOzbmOxs1avRDaZ4P5tixY00ty/qL1vpmksoTVxDk6xeZoyzrz2FhYStKOb3xABgueIwBYDBUInO6dbxBAM9VP3/CW8BpCKBmzZM6eUAN3bZjBBR9gWkiWhYK1PjISNe0lJSUMgWhLVu2LEUgfemo6yvEY0lJSdtLM0/r1q2/37Rp6w1UMleAcEccAUj87ptvvokVkXvP1ajIysoKh6Cl40xjUenerJDjx4/HA3iKVGMBRPo/cHr9RWaIWH+Njg5fc47TBv+uNAaA4YLHGAAGQyUxu1vHkRr4iL7/73zX6n2GQGTUcXfKgBjdqWsNUvnS+J8kMMl2q/HDhg3cVp71RYTLVqx81nnuL8DM7l26lKm6X7t2rZds3rz5JlJ9DKHLWTQIwrt37NgZu3DhwtvOxViJiYlJBBDu8yWI5pLSyrNnz57I+Pj4sQCeAhgfqPEBUjTAz0TkrzExMV+Xcvrg35XmCMBwwWMMAIOhEpjVpf31Io9+PvsAACAASURBVPIRSFfAOT8AcbkOu5MH0U7qWpeW5XWlyzYC490FBZNGjBgREmWzdMWKXymwq0P5H1KQ35bWVe+kbdu2n27ZsuVWkO8DsByZAkHi1w0vu+ySrKysG89ePVB1DLgBQH2uO3OIiDp27NivAfxVRJoCRFCQnyYlUwR/i42N3VLGVzUeAEO1o7gqVwaDIYTM6tL+eiH/ByDMH9dPAFRH3F26/Wz3G3AVwlwgCYIgOX3YsLQR5VHMwcycOTOiRlytbYQ0Iz3HCiSu6dGjx/RQzL9ly7bbqOQtkpb3HbxGAEFwF4kRCQkJW0t6fu/eva8BuN9zs4FHGzW6rO65vP+RI0cGAngeQAfPmr7vECDpBvkRgb/HxcWV6ogjGBHZAKC9oyuaZJmvPBoM5wMmFbDBUIFM79r+OoFH+QP+BLe5iI79R84jT8a6UwdfJa7grLP67VAqfwCIqVFjLCDN/CuAE0Ol/AGgTZtW7xG4AYLTgD9dke+FrwSwcteuXb8q6XkR6ViY7phrz/b+hw4d6nDo0KE5WsuXItLB/6jnjwIAb4lIy5pxcbeWV/l7iXf8XGCUv6E6YAwAg6GC+KJr+2FK+D8BwgoL92Cem2yX88DDH8JyRQRU8/NU+MvPycmZF0o5lixZcgnB3zvqAuzIjol6JJRrAEDr1q0/A6Q/gMO+heD9QYA4Efxv165dk3bu3BnnfE5ELAHa+8aTUqL7/8CBA80OHjz4vgBfARzkqF8I0cgD5HUACbVq1bqrVq1aZ8xpUEqcBkC5Mh4aDOcLxgAwGCqAmZ3apUIwGZBwABDgqBaMSVu9YdDw1Rt2ilg1i1H+AGRTenr6qdBKw+cgEu9dpoCQWwa3b58d2jU8tG7depXWdk8INvv6ggoZ3UKlNu3evfsaX8f333/fAoIY32g3sDp43kOHDtXfv//AqwC2C/AbSMDvrhwIXgF089q1a98XHx8f0vTBIhImIrGOrgOhnN9gqCqMAWAwhJgvOrfrphU/E0GkAALK+1pbVw1bu+ENX0VfEanpf8CpIcldoZRl8eLFPUXkdv8KxJ969eoVnOUupCQmJu7Kzj7VncS7wRUEva/aVASf7969Z9r333/fGkAn36cCIMKy/B6APXv21Prhh5/+5nbbuwAZCyDc4Vk4BeCftm03q1u3zkN169b9sYJeKR6B8VKlzr1gMJyPmFsABkMI+aJz27aanEmgBgQ7lZZ70tZvWhA8TpQOC7iLD6+G0QiZAZCZmWmJYDzpz667bP+PPz4bqvnPRFJS0mkAd2z/5pslELwMoEZhsiAPAhluaz2U4D5Hbp49DRo0OPzTTz9F27b9AJV6goD/Sp/3PU6J6FdtW7/QsGHDnyvhdeKD2sYDYKgWGA+AwRAipnfokKChvoQgSsA/qV+y2xan/L348+U7jwJEEDL3dd169e4H0MHbPCHavjU9Pb1Sy9i2bNHiHa3tdiLak9ffERfg/UsBaFpY5VDW7927917btneBfBZSqHwFyIbwea3tZvXr13+qkpQ/YAwAQzXFeAAMhhDwWZc2jUXruYBsJ3Dv8HWbzxZ5bnvy5Th2xQKIkpCUmZ0/f35TCv7q9y4QD/Tr229PKOYuLa1atfpORPrv2rXrHgB/B6SW776/L/NfYZvXARjpLQfs+/w0wH8r8rn69S89VNny27ZdWynlLBdsjgAM1QLjATAYysmn7drVU7b6gMTTw7/anDr8q7Mqf1iAu/ggQATfCSw1njL2aiKAGp4VmNmvT59J5Z23PJCUhISE1y1LtRRgkvOeYGCQoChHOweQl/LDwpo3bNjwkfr161e68vfSUEScbeMBMFQLjAfAYCgHmZ0711SSfzMZPnL4uq/O2SXtdvOosvw60L/dVcJyG+ULFiy6jcRg7wb6B0vhnvLOGSq01kLPNboCAOFBO32fJyBfgImAfrZx4yY/VaW8ACBko6CMacYAMFQLjAFgMJSDmgUF7sGbNr9Y2ucsSx+UYoIAReSS8sizcOHC+lrLC+LJhqe1jdv6JPep8nvrWVlZsVZ4+P1a5CmCcZ6SxoFBgQ7ClIKcOHGyss74zwhFGgdUEDQGgKGaYI4ADIZyMHjTpjLdp7dt2+/ODjgKgFxVHnlsW78h3qA1Cl/o379fSUGIlcK6deuit2/f/oTL5fqeIs9C4E0C5Pd+nPT94HD9U0QerBEXt3Tv3r3NK13oojTy/eA9CihXmWKD4XzBGAAGQxWQnp6eQ+Dn4DgAAC3KOufcuXNHAxjubW7Mycn+f+UQsVxs3769xrZt28bFxMTuAfisALUd5/wiwGyIpJF41qH8C7yf+9pdSa7/4YcfbqmKd/AhIo28fwPAEZK/VKU8BkOoMAaAwVBFaEFhZTpvEKAArRcuXFjqo7n58+c3B/iCV8fmEnJzWlpaXsiEPUc2bdoUn5WV9bRt6+9E8AyAeo5kQCdJvGbbdquEK68ccuWVV84SkU6+nb8IniIxToA8h10UJ8CkH3748ct9+/YlVPb7AADJRo4YwCq5SWEwVATGADAYqghCPAZAYNmbuGPHTvYqzTyZmZmWbev3BIj1zvdEampqVojEPCc2btxYb/PmrL9Rqe9E8CcAtT2iCCD4EZAnXC6rcUJCwgMtW7bcAXhuKwjQ038aIGpR06ZNn1NkEsCvHccEADBQKbVp//79f9y5c2dEZb2XiMQJEOevOSCyu7LWNhgqGmMAGAxnQEQoIhVSNlsEW4IuwwECWBbTSjNPzZrx4wTo5Z10Tv/+Ka+GVNAzsGnTppYbNmyaSKrvBfIUAH+hH4FsIXCH1vYVLVu2fL558+YBrvM9e/a0BdDA2zy+d++3GwCgSZMmWw4fPthNRP4sKDwWABCpRTJiYmK37t+//1YRKfeVybORn5/fGIFXAI0BYKg2GAPAYCiBSZMmxQCeO+wVMb+IvRQIDgIERPQ152p0zJkzp69AMrzNn23bfUdFyetkw4YNKV9v2DBda9lK4m4BIuF39XMRiaGtW7Vq16pVq3cTExPzi5vDrfXgwt2/np2SkuJPgpSUlFTQtGnTPxJIArAKCCiZcAWA9w4cPLhl//5D6SJSYb/HLMtqEtRljgAM1QZjABgMxTBhwltXARWn/AEgPT19q4gU3nMvjANoOW3atMFne37OnDn1tOAjeK/zEnLP1Vdfvb+i5N25c2fE+vXrb/nqq6/Xa5EFEAyD9xo/IDaEkwHp0qZN65TWrVvPPOt3pzHK84MAwPTihjRu3HhTo0aX9dLkWIgv+M4fJNiSlI8PHTq04cChQ3fu27cvKiQv6hRRa78BICLQWhsPgKHaYPIAGAwOMjMzraNHj6aS7uW33nrn6QpfkFwAT3nbgLTAIupxALNLeiwjI0Nprd8HVUPvA58MHDRoSkWIuHr16mZKWWN++eXEb0FeQgog9NXHOw3R75DqhXbt2pyzcty1a9eVIugCAALkEPiipLEkNYDxe/funepyuV4W4AZn8iCAbSl4MyIi4rnDhw+/5XK5JoSqJLCINCEJEYAEXC6XMQAM1QbjATAYvLzzzjuRh48evaF27doLxowZU/HKHwChpwdVzPU2dMrnn39eYjBg165dnxRwkHf8EctSY0Mpl4io1atXD1u9eu0XpNoF4AkAlxTKh8MAM9zugqYdOnQY265du1IpRtuWWzxTCUTj0+D4gOJo0qTJTw0bNhwlmqmAbPQH5hUOqQPgcbdtf/vzz0fmHzlyZPSJEyfqlEauYEg2caziBrCvPPMZDOcTFRLcZDBcaLz44ou1wsMj73C51GtjxowpqKx1MzMzo5Ry7QdRkyQIegrOECC5Iz8vt2N6enqO85mZM2f2E3A+ScvjMeAtQ4YM+iAU8qxevbqZbcstSvEOkJd7RPHJRJD4FqJeAOx3vSV/S83ChQtdl13W6DsQl5GEIgc0b958fmnmEBFr//79d1GpvxC8xCOeV0ZPFkRfu4BQ85TCpyIyLz4+/rvSrJOfn78YQF9vEaAdYWFhLUvzvMFwPmMMAMNFz6uvvtpQKddDtl3w9IMPPljpd+c/+WTKmyDv9BkAXuUPr3J85Zprhj/kGztnzpx6Bbb9NcGG9OTTnZGWdvXwM81/NlatWhVXoPUNCuo2QvrQszgClb9aqyj/2L1796flLSm8Y8eO60h+Cs/7fde8efPmXjd/qdmz51it6Oj8JwGMBRkdpPyDjQEQ3EVinlJqvsvlWhMVFbX3TPPn5eXtIXm599/HFJfLdUOZXtpgOA8xMQCGi5rXXnuthUD9C9A3VYXyBwCt+a6ycGdx5YE15IHPP5+xdsSIYR9kZGSoggL3ByAbegoH4BSg7y3LmuvWrQvLzc0dIMJbCtz2tSSjAA2QcByvayrMsIkXe3TpvChErwsAj/qKAAn4blmVPwA0axZ/HMAThw8ffklr+b0Ao0lnkSH/2/iKLl0J8EoRuaegwI2TJ0/+THK9UuprrblJKdkjIt/FxMTsFxErPz//Mt9aIrKlGBEMhgsW4wEwXLS88NpriS7hVEUZNnbs2G+qUpZPPpmyHGRP384/wBOgWKCAMYC6DMRfCo8KZFxaWtpz57rG9OnromPisq9WwutIDCUZD/96jl0yeQyCtyyLE7p16xbSa2/bt29PBTnf61nQtu1q3qpVs+9CNf/+/fsvtywrg1Q3k3T5d/8OT8A5tnNJ7CXZwve5Ukx3uVyTQyWrwVDVGA+A4aLkX6+91sLSMpeUe8aOfaBKlb8H61lATwNQWBrQh0aYEG+DoukvHSjfnDp16qxVCBcuXFhXaw5RSq4TnhpMYbTvs8Kdvvh2/psV+Fp4mOuDsp7vnw0Bfu/blJOYFkrlDwANGjT4DsDt+/cfywgLs38H8E4Bop1fp2f5wi+5hHYkwBbOz21bGw+AoVphPACGi44XX3zxcirXUpLTH3pw7H1VLQ/gyTg45dOpGwi2cwQBBgcF+s+0lWJaWlrarOB55s2bV0dr3RdQyVRMIdmG3u0tHbt9RztHEVO0Vm/27dtzcUW+47Zt23qCXO57J6XYMyEhYWVFrnnixIm6BQUFY0neT7JuCXEBQe1CT4A3+A8k88LCwmJJus+8osFw4WA8AIaLimcmTIiXfPcXBMK0XfBUVcvjg6R8+umnD4tgvsARBwDPVbmANjE9LS1t1vTp06OVimhN6o602IFAb9vWbUgq/3DfBXYEtgl8JZC3tNv9Ud+UlOOV8Y5C+nf/Ilhc0cofAOLi4n4GkCEizxw7dux6gneD0s//pRQbJ+CQufDr22GUv6G6YTwAhouGjIyM8LiateeQSIbCbx5+8MEPq1qmYD759NOPCaYXdyPA0f6GZA2CDTzH0wzwDpTcxs8APwKst1JT+2yszPfaunVrd4Ar6AEk0q666qoiHozK4MSJE1dprX9LqhtIXHGOcQH/DQ8Pv7kq5DUYKgqTCMhw0RAbV+tlQJIFsuL/Hnjgv1UtT3G4lHoUYG5QeYCARPgAWkDQIKCKgPfzom3ZD8EEiO7/88+H66emJj9Y2crfU1AJL8J/uUA2tmjRosQshxVNXFzcjlq1aj1Rs2Zcc6VUBwB/EmA9IP4dfnCKISHN+b+h2mGOAAwXBf944YU7CNwDAND4Z2UUzDlXMjMzrwSsVCr2d9s6hWCkJyjP6/r3uc3hzH7rOBgo0uZ3AvmMxJTly5avyMjIKPM1u1CwdevWXwPs7hFVQMHz58v3HxsbuxHARniOCWJyc3OTNDCOIlc7j07EttdXmZAGQwVhDABDteef//xna4ia4PGgy7eXNWo4rSrlef/9KQ2scHd/BaSCKhVgU/j1oe9o+ixxAHCe38kPArVSQRYocv6gQQN2VsZ7nAvr1q2LFsGzLDRgtrZs2fLjqpYrmGPHjtXKzs6+XSl1DwRXBcYBiERERKytOukMhorBGACGas3EiRPDTpzKft9zrQuwoV4ubya70vLhhx/Gi6hkWkilsD/obuWJO6MnGU5Q8p9StL8npHdaWtoPlfk+pSEiIuJxAI08LYFo9RTJSv3+z8Tx48eTlFL3krwRQLTW4t34+4oyASR2kTxalXIaDBWBMQAM1ZpfTmY/SaATKBChDV3wUUWvOXHixOiIiJjeSqE/yFQt6EiKBU1vEb1Cn35hUT2U0D6jMdBUCwcDeKui36ksbN68uTHAxwC/6395YmLLz6taLhEJO3HixEgRPEyia2E/QMeNAF9bBGuqSlaDoSIxBoCh2vL88883h8iT8JVzBdY8+uijP4d6nYkTJ4a5XFHdaCGVkP4kuxMS7lHVwcq+xPZRIVYC0ohg+yLJgIpPawsQz8+ZM2f64MGDD4X6vULAeADRHuVPgBhXlcIcO3aslojcffz48bEgGxc9Uik+ORBJ4/43VEuMAWCotgjUSwQiRcR7lQshuXaWkZGhGjVq1F6EqVTsT6g+oI71b99L3Nn7lb0IZQeAlSCXK8jKUaNu2LZo0SLryJGjux3DziUIsHZBgX4BwG9C8W6hYtOmTb8WwXAUfg/TEhMTl1WFLIcOHbpSKddDWuvbScYG1wkIsq02CfCTMwhQa208AIZqiTEADNWSvz//fC8Aw5yZXEgpswEwYcJbV1mWO5VUqUKmaGEd+jfjPrd8ifvI0xSsJblcNFe67fCVt912/ZHgNT7+5JNhCmzMgDkBABsFyCMc7moUGhgkbp45c+aXaWlpk8r6fqFk48aN9UT4MnxGjyibCpWedOngwYM9lVKPAbwG0CpQ2Qco/3yB/hTg+Bo1aizLzs4e75imICoqakNly24wVAbGADBUSxT45yA1ap84cWLTuT7/yiv/aWRZdiqI/opMBe1GAv9RQqEC8dsXAdv0fRBZLsRKiqxo3LjxhpSUlLNmkaPIfQCLVgQU/B6wtlhh9noIahcXFwDw9S+++OLroUOHbj73b6liEMEroNT1XkmEQP6dmNgmq3LWFh48eHAYycdB9nae6xdTIfAHAhMtS70ZGxt7wDFNu8L5uJlkTmXIbjBUNiYToKHa8cwz/+pIpdcDATnd9zz26O+uKOmZ1157rY7WTAGYqhRSQVzlPf/1HR8guO3JzMcCkl8rYqUIV2jtWjF69G9KHZX/v//9r4VSru3wJMpzZv5bNvL66/oAwOeffz5UwOn+bHpFM/99A+guaWlpJ8r41ZWbr7/++lpSTYX3+yF50LbdLTt27Fih6YazsrLCa9eufRPAx0gkFmbyc+T597QFkAVKqQm1atWaFpzeV0SYnZ19jGRNgFCKr0dFRZ0X9SIMhlBjPACGagfpvl+ksJALAIiWXc4x48ePj83P130ApFJJf7ct7Uko/331ksPzf4bISoArbSXLabvXjRkzJgSV81wP+GvyOYIERdHvOh8xYsQXn02b9v8A/K2EZEAtQE7OzMwcnp6enl9+mUrH+vXrLwE4wbnJJvFYRSr/w4cP18jLyxtNqodF0Chgtw/AcQzzC8FJInpC3bp1t5c03/Hjx5uGhYXV9D0lgqUVJbvBUNUYD4ChWvHCCy9E5eYVHCIZ66zmBvIti9YkQPcHmUqyG8mwYqrjOdua5DZCVgqt5RRr5X333bkj1DJ/9NFHDZVyfQsiMrACIGfeMPK6ocHjP/98+lskfwuHpyDQE6AyV69ecVNlZgAUEa5fv2E6FYeycPe/uF27tikVkfVv9+7dl7pc4Q8qhXtBxp+hwt9mISdQ5IN69eqdOtu8J0+eHAnyE8/XSZBsFB0d/WOo5TcYzgeMB8BQrcjNLRgMItbfUVj97k6BvrOIxSsC8Sl94BQgazS4XAlWFhTkrnz44YcrvFIeaT0pkMigzH82RT9Z3PgDBxrcU7/h/iYEBxSOd1rzOr1r955HAdxbcVIH8tVXGx6kwlCHt6RARN8fauW/b9++K7WWR0jeTkqkgMXdjswHZSqpJtSrV29JaeYXke6+oksisjMmJsYof0O1xRgAhuqFQpqzkE5QytzghLrfCblCASsVZfnRo0c2Z2RkVGrJ1w8+mNJIYN8VnPxHgW/ccMMNxQYtjhmTVDBnzpxr8woK5kDQq2hQIEDIPbPnzJFVK1eOrWhPwNq1azuC8pxnffquML7YsUOHkAX+ffvtt0mWZT1u2/p6kpb/36XjbqSAPypgostlvXnJJZfsL9tK7O77r4bk4lDJbzCcjxgDwFC9EPbx13Lz3v/3ki8a66GwUoHL3QXWyieeeOCnKpPTCy33OACRgcmBeCw/P/zpMz03ePDg7JkzZ6bZtswD0AVAMcmCeG/Pnj3rZGZm3lJRMQFZWVmxp3Ny/gcgAoXn/ttPnz6dEYr5d+/ePQjA4yD7O29cOJS/ALJQU01o1KDB58FBfaVBRMJOnjzZuTAToBgDwFCtMTEAhmrDs88+W1MLj8F3U89xrg/hgCeeeGR+FYsYwPvvZ15pufQWkhHeGwUgAUX14KhRI189lzlmzJgRL+Bsgl2DbgQ44gIwNzcneuSIEb1Phvod1q5d9x7IWx1n5m5tqd5J7duvLuucCxcudF12WZNRloXHAXZw3CjwnvEDBE+QnKS1PeHyyy/fFop3+eWXX7qSXO2LI7CUahIdHb0vFHMbDOcjqqoFMBhChZtMQDFGrYhAKR1XBSKdEVr2S/DtnAF4PRdbjx79+d/nOsewYcOOhYe5Ukn5MvCwXRwnIRwYFZWzbt68ea3LLbSDtWvXjhXgVjhWEsHzZVX+O3fujNixY8etjRo1yiLlvyLo4Jzbu8IOAuO0tps2adL4gVApfwAQkYGAd0WR3Ub5G6o7xgAwVBuUjSZFOsV3HKBqVrY8Z+K///3vcAL+CH+vuhZN3D9mzJiC0sw1ePDg7Ojo6BEEPvNOFqg2RSBACy1Y+eWCBdeEQHysWbOmnxa84FxMgM1xcbF/Lu1cO3bsqLtjx44/aq1/APmeCFr4ZvR8KygAkAlI8uWXX96yadOmzzVr1qwigjMHepc15/+GiwJjABiqE0WUvE8RCnWtSpalRN55551ILXgJQKCyFrx906hRi8oyZ0pKSm529qkbCLzq3PsHbaDjaOvP5s+f/0xmZmZ4WdYBgOXLlzcVwWQAYQ7lXyDavi0hISHvXOfZtm3b5du2bXtFa/lOBBkC1A0S/ScCGZalml5xRbNfNWvWrMKU8qFDh2JJ9hCvxQFgUUWtZTCcLxgDwFBtIBHlbIs4XdOMr3SBSsAVHv4EgCsKlb8AwEGl8Hh55k1PT7fT0oY8COFYAG7f9jnwhAHUgnG169RZtWDBgsTSrrFu3bpo5XJNFeASv3fFs8pTXbp0+fpc5tiyZUv7LVlZH2otO0XwAIAYCXRbLAIk/Zfjxy9v3rz5ny6//PIyRvSfOxEREf1EEO47ACA5t6LXNBiqGmMAGKoNGiwxIx9FJ1SmLCUxadKkNtB4Mkj5g5D/S09PPxqKNYYOvXq8aAwn5Xig8ncaA+wognXzFiz4XWZmpnUu84oICwrcb0PQEU7jCvi8S+fO/zrb81u2bEnZtGnLLAG+huDX8N5C8ir/kwBfV4ptWrRISElISJiclJRUqqOQ8qC1HuT7WUQ2xMTEVLjRYTBUNcYAMFQbFPhLcf0iAg2WercbajIzM8NBTgIQ4VT+EMy88cYb/xfKtYYOvXq21joJwEbfIsUECUYS/FfdS+qtWrBgQeezzbly5crnBfhVQNAfsCc/IvyOkhL+ZGZmWl9v2jRq06ZNa7SWBSCuRkCSZdkGkbEul9WoZcsW9yUkJFRK0aBgSA70G2Pk7KqQwWCobIwBYKg2aC3fF+317bBxVUZGRpXmvTidm/s0wI6BvTxOyj0VsV5aWtq3kRHh3Ql5KzgoEIHtJKXUmgWLlkyaN29eneLmWr58+X0CPuoZ7+/OE22P6tOu3bHg8du3b6/x1YYNdye0aLGVWjJF0MVv9Ag0wBkkBrZu1SqxdevW4xMSEqqsgNGRI0caiUgrR1eZy0YbDBcSJhGQodrgcslOW0PDYdgWJo9BRHhs7JUASiwEU5FMmjSpm4BPODL1wZv8Z+xNv76pwq6bpaSk5AK4a/aXX64C8CIEsYVVi+H/grRAkXKLyxU2eNGiJRki9n98JYyXL19+o4CvOsd7c+U91L1796+c661evbGZy6UfyD6dcyeJOO+lfS9yAKL+Y2v3xA4dOpxPKXYd7n/8EhdXY1VVCmMwVBYmEZChWvH3Z57bCEc9dwCOZEC4e9y4x/5T2TKNz8yMjcnJ/YpgC1+yH2/Rnsm/+c1N6ZUlx+zZs69UynofZPfiiwg5iukobqfIOACnqKyZJMODPn+hR7duj/jmXrt2bS9APUziWpIWHPORXEZivMvl+jQxMbHSqxSejWPHjn0CYKQn/S+m1KpV64aqlslgqAyMB8BQvRBZDLJd0W4BiGEAKtUAEBG+O2nS2xC2CNz5ywFlSaXWmb/66qt3LVy4sE9Bgf0UgD+A4gosJ+zwDGi0BPkZSBuA5XSlgJjcvWvXxzZu3BiTk5N/MxXuFUGHgFK8ItlU/FBra3znzm2LrWlwPnDgwIEYERniM1gAmPN/w0WD8QAYqhV/+9tzKVRYENzv3Ylm5+Zk183IyMitLHneevfdR5Twn4XlhuHNYs9ht95688zKkiOY+fPnd9WC90m2KKkksn+372yDy0h5kLTuIHEryJqO8r8AuYOQ1wG8m5SUVGxQ5vnEkSNHbgA52ecN0Vo3rlOnzg9VLZfBUBmYIEBDtSIhodkSQEo6X46JjI1NqSxZ3n777X4Eng2Imff8/VJVKn8A6N+//xptuzsJ+O+AhAkAnPf7g9viOdf/CpAHBKjpDeqzSXwGyKCkzp1aJSUlvXwhKH8A0MANviuSADYb5W+4mDAGgKFakZ6ebhOcWOIAW26tDDnee++9ywT8GNp3zOa/jbA2MjJiXGXIcDYGDx6cPbB/yr0k/lGcsi+uTZF28NYcBGBD5FnLUld06dLlui5duswt6Trg+ci+ffuiLGft9QAAIABJREFUKBjqeNvPqlIeg6GyMQaAodrhcqmJAE4F93s3utc///zz9Sty/UmTJsW43fZUCC4Nuu9/HJBfVVRp3tIwd+7cmnPnzh87b978LVq8GQgL0/p6fzizMQARC1CdAVRawp5QEhUVNRhArKNralXJYjBUBcYAMFQ7HnvssUMQvubsc3i5wwXq0YpaOzMz08rLd39UeO/dJwCgKaNvvfXWPRW19rkwe/bsTnPmzH1DhD8C8qoAiT75gtIG/+zvBorLHeD7YaDb1htWr179axG5oGKKRHCDIx/jd/Hx8eeUythgqC4YA8BQLcnPD3sOwIHiPhORe1944YXLKmLdY7+cfBkiwwPO/QUQ4Su/ve22TypizbMxY8aM+FmzZt03a9actaD6CsRoQGKKyQz4PcFnFdFORMYXN1eQD8DXrgfww7Vr1y1YvXp9+4p6j1Cyc+fOCECGAf7s/2b3b7joMNcADdWSjIyHjz/zzHOPCvBB4CcCgNEFBfoFAL8K5ZpvvPHmo4Dc779a571Up4GldkFOhXkdiiMzM9OKjq4xQCncDvBaASJ9t/iCrvQdhujJVOq/KSnJK3xn+IsWLX4jOFlQ0RxGCL5CmExlf7127dqpSqk/de7c+by9/lerVq2BAGp6riwCVGIMAMNFxwXlsjMYSsvfn3nuvwBuAnzX2ByJgRSue+LRR0MS+PX6G2/cqMAPASr/dT9Psp0ftXZ3Hj169MFQrHM2pk2blkhaN4O4hWSjosl+CBKnQPUZLP43XKm5vox/PpYuXRrvtvVhklbAdUCoMUqJAHwaZKMzXhckBcQCinpt9+6d09PT0+3KeP9z5eDBgx8qpX7tSf7Dg3Xq1L6MnpwHBsNFgzEADNWajIyM2PCI6LWAtAQKlb/XGDjistjxkUceKVcq3gkTJ16rwEyCYUH3/fNEmDx69B0Vmlp26tSpl5OuG0ncRKJdkLL3Ked8ArMBfuR2508bPnx4iZUTFyxYnE6Fj4OU+/fRUZEJSUlJBQsXLowMD4+6H5BxSrFusPIvNBj87f0ApwBqcseObZeR1BX5fZyNQ4cOxQI4ADCGJJTif+rUqXN3VcpkMFQFxgAwVHv+9rd/tKHSqwFEO5Q/SEKRG7V293niiSdOlmXuCRPeGEIlnxEMD1L+EKXuvvvOOyok8+CUKVMaKOUaqSE3KbIHQXoUL5zKPw/EPMKaYln4/Oqrrz6ncsMLFi6eTWBwoOdA7uvbt+/rznGrVq2KE5EHQeteQhoGKP/A5ECOttoPYIpS+OTIkSPLg70PlcHBgwdvBvmBz0CyLCutdu3apgCQ4aLDGACGi4Jnnnn+JoF8QFIBQZ4AwfzTp2OvycgYU+KuuDhee+3f/ZWFGQQjg5U/yVdGj77zoVC+Q2ZmZhNa1vUKHAmwJwhVmLnPr/xzQM5WUFMiI8NmDBw4sFQJeb5cvDjBpWWHZyrfTp4/ZmefbJ6WlpZX3DPr1q0LKyjQ1yslY0HVu2TlX6R9iuRyKC6G1ovz8vLWJiUlVfiVwoMHD84EOMR7TPNL3bp165Gs8quZBkNlYwwAw0XD/2fvzOPjqsr///mcO0laSumWZu69MwmhtGwBBAoIyL5TpOwFQdkUEFkU0J+7IuIXFAQUkF3cEKiAILRWQMsuCgURu9BSCO3MvXe6l7a0Teae5/fHJOkkTTJ3kpks5bxfr8CcO88955npzDzPOec5z3P99T+7CMRdaDFurQa7xRy9EIZNJ37rW9+KZDB/+atfHWRB/ZXEsJZ95Px9/+kjR24zuRT73lOnTt1RhCeBciqp9s7N8/Nm+rnx1oKcpiiPDRkyZPoxxxyzrqfj/f0f/7iZ4JXt9/V58SGHHHRPlPtff/31PQFcBPB0kGOKcAZAch2If0L4hmXxTcuy3hw/fvz7pUwuFARBDcA0yRgJQKnf1FRXn1+q/g2GwYRxAAyfKH5y/c+uVMTNHbcCWszqu6RMvvrqq+d318ftt991FKj/TDLP+Lc5E+80bRx64BVXfL5H9e0feOCBIVVVVYdCqUkEJxHcHu2di1bjv4qKT1Gsx1avHv63888/rNf1DWbOnLm11rKI5Ki8ff05IvpTxS7Vv/HGGxUi6khSn0mqk0Bu08HYt1QKLtherRTfAvgfIWYrYHYsFpu73XbbrerJa/R9/zJS3db6fopYx8TjY57pSV8Gw2DHOACGTxzX//TG7xK4DtgsKBAk10Lhyq9feeV9nd17222/OgnEwySqcsa43dJ/JhtTn77sS1/6sBh9HnzwwW1DkeMUrONBHE62xCogb5aca6eEnEaLTyCb/UepMwo+++zfr1GKP8wP6gOsEw477KCne9PvzJkzh2yzzeijSH0cyWNJbhfR+HfXThOcS3IOiTkA5mWzQ+ZMmOAs7U4X3w9eJbF/S2GjTE3NWBP9b/jEYhwAwyeS66//2UVUvCO3FNxhJYCEgM8hxq9+/Yor5rTec+ttt31eQT1AItaJ8f9YKRx+8cUX/6vQ2NfMnBkbt3jxZ7RWk6gwicSunRh7gAwJ/BsKT1vk9ClTpvynXO/HzJkz7TDUC0Bu3Tq+UvjHoYceekSpx3r77bd31MBxCjya5Gc6rg60D2Qs3G4LVsy1l5OYQ3IuyblKqTkA3nVd98NMJrO91noBW28S/tK2a0oap2EwDCaMA2D4xHLDDTcdA4WpCtgGecY/t5JPkGym4u8ltK63LH0kyDtIqrznW41/llQnX3LJRV3OlO+7777xtKzDCHUUiaMAjsyPG8iLI8gwF7k/AwhnnHXWWcv64r145pnn7qLixXlxBU1aqz2PPPLgOYXv7jlTp061GhoadtMaBymFAwF+BkQiorEvpr2W5EoSta3PA7KfbdsFHTaDYUvFOACGTzQ33HDzblR6GsnadkGB7ff1Q5KKLSftOj4vUBde9pWL220Z3HvvvUlAHQ7ycACHkazrMLtvNf4fE3wJCs+KUs+e87nPvVPKoLcoPPfcc7uI4G20rIa0rIf85IgjDvteX+rRyrvvvpvIZmVvEvtQYR+Ce5Mc3Qvj31l7YTxeM6Gv32uDYSBhHADDJ54bb7yxRqB+S/JYAB2Nf7dtgtdceuklP7rzzjtrSB4mVIcR6nASE1qXtTss7a8D+S8CL4nFF9euWvXKFVdc0enxur5g6tSp1ogRo16i4v6bZtpYOHTokN0OOOCA9f2lV0fmzp1br5TaA1B7KMU9Se4Boq6nzgAgP3Yc5wf9+6oMhv7FOAAGAwAR4c9+fstVCvg/kpWbxwUAnRj/+SBnkDycRANbLH3e8wC5TJGvCuVFaPWK1k2zLr744gFTPveZZ565SsCf5xl/AdTRRx552HP9rVshFi9ePLqpqWlP0toDCntQsBfJXToz/h22WSAiu7iuO7e/X4PB0J8YB8BgyOOmm26aCGU9BMGE/KDATvb9O2t/RPIdkLMomKWUzLrwwgvnDNRl5ueee25cNtT/JTmsxfiDVHcceeThl/W3bsWwYMGCbWKx2JkAv0Zy5+5n/wDJNx3HmdjfehsM/Y1xAAyGDvz0pz8dHotVXAeqS9lSEKeLIMG2tpC3XXrJxV8dqMa+IzNnzoxt2LhxJqkO3PSa8J5ovUdvEgn1JQsWLGhQSl0G8gtsyesfaSsAuMp13Vv6VXmDYQBgHACDoQtuvvnmfUF1N8A9osQFgOpZhfD8Sy65JN2/mhdm+owZNxD8Zt7SfyiWOviYI454tb916w4RsebPXzhZKVxG4vBuZvprlFIzBDi9w/NNikw6Tvf5AgyGTwKqvxUwGAYqV1111b8/Wr1qH5D/D8DHgEDaze/btwl9lED9984775nSx6oWxbRpM06E4P8BACT3HxFcN5CN/7x583ac++6718+fv+BDUh4HcHiL6i0IBAgh/Bsgn6+oqLC11n/q8DxE42lj/A2GHGYFwGCIwE23376tFeqfEPxc7khgl3EALW15KmZZl3+pyKyA5WbGjBnjQ43XSYxs3RMX8h9rVq86uhS1C0rJwoULRzQ1NZ0B8FwQBzBv5aVDZsD/CfG7yljswbq6Oq/1/sbGRQ8pxTPzgwAB9dlk0pnWf6/KYBg4GAfAYCiCX/ziFxOF1s8UWpafuw8KXEelfgSdvXUgRP4/+eSTw2OxipdB7t5q/EEGFTFrjyOPPDLT3/oBuWOJO++88xFQ6hwFnkJyaBeZAJco8iER+d2ECRPe7NjPBx98MEQptYRUw/O2BrxEwt2WZJ+XIDYYBiLGATAYesAvf/mr40H5KcmG9nEBmx85Izkbor510UUX9Cqnfm944403KvxgyVMkjtmUjAhZRRx97LHHzuwvvYBcQOKYMWMOBdTpJE4BUb3J2G9yqEhuVIpPkfzd6tWrZ3RXOnjRokWTRfBkflyAUvxpIpH4Vt+9MoNhYGMcAIOhh1xzzTVqzJixpwv5HUXuXjB5EPCCZfGbF1xwQZ+nn33qqafvB3lBnvGHorrquOOO6Zdo+JkzZ8ZGjhx5GJQ6nYKTSVZ3srQPECGELyqFR5qbm6fuvvvuK6P0/8EHH/5WKZyTFyQoSnHnRCLxbrlfm8EwWDAOgMHQS0SEd9xx92RSvgdy7w7JgjpuDYgQT8BSP7nwvPNm9YV+f/nLX34Aqh/lRfwDVL87ftKx5/bF+K28/PLLw6uqtjpaKR5P4oT8mX57469Cki9B4U8Sho/ttttuRW1PzJ49u3LYsGEByFFtKwmQV+rq6g4s00szGAYlxgEwGErIHXfcdSyV+iYph3YfJAgQ+BtgXX/BBee8UC59nnjiqUupcFuujEGr8ce/h2211SGHHXbYhnKN28qrr84aX1GhPytQxxNycFuWxZbcA5uMP0NFvCSi/hSL8fGGhoagp2M2NjYeL8DTHc7+f7Guru7XpXpdBsOWgHEADIYycNddd31KQ12uyLNJDOnWGQD+BfCONWtWTS1lXYAnnvjLxSDu3GT8CSgshtb7n3DCCWXJVfD2228PW7du3UG0rKMoOJ7kjh328fP39TWpXgL4p8pK67HeGP18GhsbfyfAF/Jm/2uGDh3q1tTUrC1F/wbDloJxAAyGMnL33XdXQ6mLIPgKqRJdBAm2tpcS+DUpd59zzjkf9Gbcxx9/8gIq3Js7sti2778KEjtw8uRjZ5fm1eWCCzds2LCfCI9QioeD3I9kRevsvhPjrxXxEoA/hWH42L777lsSo9/K4sWLhzZnswHBbdry/pN31tfVfaWU4xgMWwLGATAY+oC77767gox9FgpfJHgsSavV+G9aDWhrC8mXAP4+m9346Pnnn7+qmLEef/yJ80Hc18H4byTkmMmTJ/dqu2Hq7NmVNUuXTlRKHQjwcJAHERi2ydhvWtrPa68h+QyJ6WEYTttvv/3KduRw4cKFp5DqsfzMgJZSu9fW1r5TrjENhsGKcQAMhj7mzt/+NhEL5TxCzlfg9h2Mf0dnYAOpppH6sVgsNn3KlCmru+v78cefuFIgPyfbFv4BQivic5MnT55arK7PPvvsCKXUAYD6DC0eRME+ubP5XRr71vYCRTVNhNO22WarFxsaGpp6+n4Vw8KF708leXre8b+X6+u3PagvxjYYBhvGATAY+gkR4a9//btDqXAuyZMIjCjgDDRBcSYgf5aKihlnn3rqh/l9Pf74n68D+J2OiXNE4cqTJ0++tZA+11xzjdp33wN3isX0vqTaB+CBJHZF3kpCm2Hd3Pg3K+JFETVNKtS0gz796fnlfO86Y968ecMrKioDkltteg/w+fr6+gf7WheDYTBgHACDYQDwwAMPDFFKHQdYnwPls0TeLLtd0GA74/6ukM9S4RklPJ7kxZtlzQNuPvnkE6/ubMynnnqqTqmKfUjsS6X2JWQiyOHMM/CbdOiszQyJ6YCaXllpPbPffvt91Hfv2OYsXLjwEoC/ypv9L8lmm+smTJhQssBKg2FLwjgABsMA4/777x8ei1WdSMUpJI4iOaQzB6DN2HfRJvHI22//56wf/vCH8vTTT48XkT1B7klae0KwJxVqur4fmxl/kutBvkLw76T8/ZBDDplFUvfz29XGe+8tfKdlxaI1n8AN22237bf7Wy+DYaBiHACDYQAzderUrTduzB5D8iQqHM+W5DYFtgoA4mOCv6fiLgT3ADG8g3OQt5TfZTsk+AaZM/hKqVf7IndAT5g/f/7BSlkv5GUS1EpxfH19fa9OUxgMWzLGATAYBgkzZ86MBUFwiFCdSMjxpBoXxRmIaOxBsiln8OVFki9ls9mXJ02a1K/L+lFZsOC9R0BMad36IDFt3Lhxn+1vvQyGgYxxAAyGQcqDDz46oaJCHyO5Y4WHEhzWllI3Pw6g2zaWArxfLD7z8UfbvDZlygHr+/t1FcucOXOcWEXFh7n8A62xD3LC9ttv32/FlwyGwYBxAAyGLYDp06dXrVu37kDSOobE4SD3IGgVihNoaWep+D8K3iAxSyn1xqpVq/47ZcqUPjm611vmz59/Lcjv583+F44bN26HgRSfYDAMRIwDYDBsgUydOnVry6rcj8SRSvFAQO0LSkUEZ6C1nSUxH8QskLMoMqu5ufn1SZMmDaiI+g8++GBkU3PzBwRH5uX9/+r48eN/2c+qGQwDHuMAGAyfAJ5++ulRYRgeJOQBCmp/EHuT3KrIOIENBOcCeNeyOAfAPJLz1q1bN7+/HIN58+ZdR6rvtjouIFaH2WztTjvttKZVZvTo0dsMraw8puO9ITDbsqxKZLPJdCbTtl0wfvz4qvVr104OgeeDIFjaV6/FYOhrjANgMHwCmTlzZuzjjz/eQ4T7k9gPuRz+44oMGmw9HhiC+ABUcxVkLmC9S+o5zUOGvHfY3nsvK9drmDdvngvwXZJbt8U2QN0yYcL2V+XLxePxGou8Cjm1zwfkzyJcRUueFa0mE3JpKBgfBEEjALhufDKFTyjw0MW+/2K59DcY+hvjABgMBgDA9OnTtyG5O2lNhMJEBU4EsFOXmQC7zheQXwRoI8A0FXySHoQ+qTxYeN8CfBHx9t5778ae7NfPnTfvDwTPzgtsDCGyww477PB+V/cknPhblsapizKZ9wHAdZxfELK7CKZ5QXATACQd548C2V6B3zAOgGFLJtbfChgMhoFBy5G/l1v+AORqAQCyJ8hdIXo3gdqVQAOAERBB66Y7ALS2BS0zi9yDKhDjAIxDqzgFFEByyXow6823Nsx6880UwaUklwNcoRRWiHAFqZYrJWtIfqyUWk1yndZ6vVKqFoKz8geCyF+6M/5dIYJHSZ4F4CbXdbcS0SNBfAjp8VtpMAwKjANgMBi65KijjloN4PmWvzaeffbZuoqKigaAu4KYAJEdQO4ogJ2zyZ06A120ZQiE40GMFwCkQIRtzoK0yGstbSsQ+b6H5MQAomC9g05RsgzCdbU1NduHCPeB8CkQh/WoL4NhEGEcAEOvSCaTQ1U2O07IpAAUrVexomJ+KpVa0d+6GcrHUUcdtQjAIgB/zb/+2muvbdPc3DxBYO0AYAIV6gmpF+G2IGoJVHTlHOQQQNhlWyBgJ20B3txxxx16vFxP6qmhUqcQ2CcrclkMNA6AYYsnlnTsNzpeFIGXDoLJvek4YdsPkxjf/ipvSfn+ZpW5XCf+uALrciKYmfKCb/RmbEP5mQhUBI59g4TZL4fEVmhdL1WEhFk4jlPv+/6H+fc0NDRUzp49e1CcLTf0jJaCQLNa/toxdepUq76+3hWRegDbgoxDdBJkHGBCBHECSRDDgK6NfWdtUn7RK8VVxeNKss9AZHEmk1mScO1edWcwDAZiAkzc7CoxsTYe33VxJvO/nnRaF4+PC4kpsnmQYbwzeYINAuwAACKyqCdjGvoUBq79OARdpVpd4/t+279jMpkcCp395qqVy2sAfKVvVDQMNKZMmRICWNzy91JXcq+++urQYcOGjQkta4wVhmNIVmvIGEU1EsIRIhgO6K0U1TCAIwGRbDZ8OIoOhJqrK6xNRxZFllO4NuWlViQce44Q03NyWCIiA7LugcFQKrrcAtAWpwDokQMQKpwBc8JgiyVh26d2ZvwJfCTA1hD8Dy1LAol4/LMSZn+BXBDYA32tq2HwccABB6wHkGr5Kykp3z8rv+0FwbWtj9N+cE6bnBdcVuqxDYaBRtcxAILTAfygR70KzzTmf8tFyJPZLkRabq2oGvqjxsbGVQCscaNGbd32lMJdABLFjpG07X01eTKgd6TQErIRDJ/2vCXPASY+22AwGHpLRwdgDYDhLY93Ssbju6UymXeK6dC27V1A7N7SbBfe0xVCfT7ArQBAKVlSzHiGvoeQCXnNRWk/83UAYUs7fH/lytU97bu+vn5k88YN92sIQfmNiLqLlgqJ7I6irTNdx/6egOd0jC8wGAwGQ3G0dwAEz5M4RIBtAEAsng6gKAcgpnCGtM7PBK+B2L/QPZ635NVixjD0O61OIgSYi03Gv1eMHj16m+aNG/5G8GdQ2qO2dgMQl2zWr9D6jcalmQsT8fh+JP7iOM5k4wQYDAZDz1EdWhsEeLKtndsGKAoRnNn6mEoiBeYYBhlERdtDwcpSdTu0qvJ2grelfP8xaHWaUK7R0MdB8fvNMeuDhG2fm85kXhOlL7Egv4eJMzEYDIYes3kMgJapUPxCS2unZLJm91RqyX+jdOa67l4QvUOuxQUa+g2W9zfaSsbju0CpHUBdpYF1KsT7qUxmDno4K43H49tVKLWnpv6osln/r3Hp0qDQPbZtj7VEdhMLY6kZKnKJVmp2Op1e3hMdgNaTFNxZlGwDWOtFZLlSak5v+gQQS9r2XlqJDWCY0lwVko2+789DD/fVSZZkP762pmZ7AepTvv+HvMuzPD9zCgAkXftnAvwYwG89b8mrCdt+r9Zxjl7s+38rxfgGg8HwSWMzB2BkdfUzq1YsXwlgFABIyNMBRHIAFPSZbdaA0Wf/Cdt+DsR2Lc1n0n5wSXfyjuNsa1G+IYIzBKhuTRZCAKKAhGOvBOQ3Quv/PM/rtBhJwnFeAcTO6c3zF/v+y0nb/oUQlwjEohDNMUsnHPtxS8s3W3OHtzIRqAhs+2wQlwPYE2wxhQQ0BNBhmHDt1wXyC8/LPIIIBnbcqFEjNg6tuhqC80KgFkDunDN0zo3SoU469lta8OtRY8bcF/VMfTJZs7uE/AbAEwUYnuszl19FQZBwbR8ijzSHcsOSJUsynb9f9jygbeZf23pdICckHHtha5uC5zXwJonWgiybjn4SpyUc+5C2phUem0otXQAAYUwdpyB/6vpVyAqAza0tRT4SihwPwDgABoPB0ANUxwuzZ89uouDPm64w6jYARTCltaGFD0XWgqgFcvnCBdJproBWXNe+TEHmiuBSANVdiI0CeCVFz3Ec56DORaRu05jYyrXtW4W4DICVJ6QAnJa1rIr8O13X3TFw7NdAPABgL3S+FG1BsB+FDyUc5+Vtq6ud7l5XnW03bBxS9Q4E30eege2AEmAiiTtWrVj+juM423bXJ4BYwolfJ6F6E+Dnkbd33w6BA/BrFZZ6z3Xjn+uir+2Atpzu+e/H1m3XgXFC2CRH5V3LdzKH58uqrFXZ9sKAbSFqQYcxd3Zt+4aEE79LwCsguKL1iSat5xOoL/D6DQaDwdAFmzkAAEByal5zx2SyZvfO5PJx3Zr9AbQYJL7t+/7cUiiYT8KJf4eC2wAMbbtI+AJ5EJBbATwKIH8GO1ZB/pqMx3frrl8BDmbO+G8O8Zrnee+26ZBI7EDRLyNn+FvJAngekLsFci8grwDIq24mB2QrYv/qymCPGzVqRJhLQJJn+LkAwGMiuC3XL/4GYH3ebTso4NmGhoZKdA4TTvwBgN9Fe6emEZA/UHA7cu9XfsrerSl8MOE4X+ukvw8AvA/gfRDNedfXtl0H3qcgEJGVedeyebJr8mV1LGxbwdDCrGi92YqUAoYR/Bw0vpYOgmmt1ysqdEwo2Y7yBoPBYIhGp3kAFvv+3xOOvQwtM2wJOQWFtgG0ajv7T0r02X9EkrZ9aMsecCsbILgq7Qf3IG+/Px6PD4tZ/BEEV7dcGiaKvwGwN7pahqd8HQICWEHiNg15S4mKA/pUEdW2GjJ69OhtqMMZkr/yQDwtUJd6ntcug2EikdgBOrwHQOuSd62C/Gn8+PEHvffeexvzZTdUVX2VQF1LUxP8csr37+2oZjwer4kp9WdADshdkQmrV6w4D8A9HWVd2/4+gM/nXVoKwVfSQfBovlxDQ0Pl6pXLrxTgxy0zewJyUyIRfyedzvy9VS7tBzu1vTbXfg/A9rmXz6c6Jldp4Q4ASDjxFMBcHgDBo+kguKATWYAyHwq7AXg67+rcVBBcnnCc/5FybzKZfCWVSqUBAGFsdwDvdtaVwWAwGArT6QoAgCwgj21qFtwGsMC2EwOS1XikBLq1QxM3YpO+muDJ6SC4Ex2C/TKZzLq0F3wdkLvzLu9V6zhHd9m5oEKAQIV635QXXON5mSdTvn9Pys8ck/b9u1rFhlZWflXQFqsAgg+lveCkjsYfANLp9PyRo8ccjfbFUvbZsG7NlzvKkjxlkyp8uDPj3/LaloQiJwGbIu815OSOcttWVzskvpV3aaVQHdzR+AO5LZ+UF/xUoKZg06qFBa3uRPuVg7KSzerpAKagE6c07fv3CrEUOvvt1mtCOd8Sebyv9DMYDIYtja4cAEAjfxtgh0Si5lNdiSbi8UMItFTP4D+DIGgskX4AgFrb3oe5GXwLcm/K92d0e5OKXYe8ZXgNvZmhbIfgusVLlizs6un6+vohoFyVd2nxhubmi9HNaYPZs2c3hYJzkbfMLuDV2MzISdvSP6G7rWceBMFSEA8B8h8Aj0Hwz44yYWXsSuRvk4Bf9TxvXnf9ep73BIk783SakLDt7t+zEpILPlTTk679vU6e1hS5TQRf3La62mmJU/h4cRC83lf6GQwGw5ZGlw5AOpN5QYBNR+B016sAovLO/lOX/Oy/ppyY36bOLS/tnpjuAAAgAElEQVR3RzqdTgG4lYLbRXApdfd56CvD8LHunm9ev/6AXOGRVuTOZcuWrSmkRxAES0n8Ou9SbSIe37uD2NJND3lubW21212faS+4NO1n9kz7wWn5uczbNBMcl9dMpX3/j4X0BICsxk3Ic5qE7DMHAADSvv9D0dgz6do/Wr+x6UdNzWFbQGLKz9xOK5bIxmInUfPy9RuavtSXuhkMBsOWRtcrAECoiILbABOBCoKntt4Ta9bdHOXqIcL92h4CQdT0xGk/uDoVBJd7QfCrVCbzr25E3y943t/ioflNpfFUFB0AIBT+Jb8tFg9uJ0D8I69Vq7Oxd1zbvqHlBEPX9Ro6IR6P1wBoyBttOiLmRGhZuXl7k1r6kK6ly0I2HQSnAMDQqqoXKyzrKteNn+i68RNc275SdHYaiN2zIketWLHioz7WzWAwGLYounMAEArz9/J3SCQSe3SUCWz7aACjcy3OjJI4p2gId9NDFpWaOBKCDwqKiIzLa65fnMlEPuWQzWbfym9TZPv8tsrqnxPIN2ijSXxTQV5MOPaShGs/krDt8+rHji1YpLwiF6OQdyxRvdWlcCdQkCfPRH19/ZBi7i8BYcoLfgiljlDkQgXuSXAfKFlJFTst7QeXZDKZdX2sk8FgMGxxdDu79H3/lYQTT7dFcWt9OoD/tBMizmh9KNQlj/5voabtkUhvMuF1DqOks+WYTY9lBYrINLh06dK1CcdeB2DY5n0Bi5csWei6NadR1MNoc6baGAXBFBBTmmOWuI49i+BDKtb88OLFy7zN1WzfN4Giiitpckl+pb8wXDsawObjlJmWjIcP9vW4BoPB8Emh2xUA5PaD85f0220DJJPJoQRa9+c3xmJVf0bpUWhvFNd3JdgLCvZJwYi8Vk9moB/nPd6q45Oet+TZimzYAMgt6NpoMxcMKT/X2dj7Ccf5CTo4cVrJNu1uAIrSlSL5ekKEm+lqMBgMhsFPIQcAaHekTya02wYIw0mtlQMJzli0aFHJCsO00wDYkNce2pVgWSHX5rV6YhTzs/B93JlA49KlQdrPXGX7QVKojgFwswCzu+ivCpDvJBz7/nZqhsjXE9K26hAN5jL7bWpTOtXVYDAYDIObgg5AOhc819h2IbcNAAAQStvyvy5D9H8bxKq2h5SOS+R9AyXfuRmDIs7Ijxs1agSAvL106bQ+QSuzgGbP855J+8HVnh/sKlR1pFwI4DG0d4YA4Jxax2kLKhTLaueECTA2qp4AIER+nIG2rK1XdClsMBgMhkFL4RUAQMj8bQA5FQBc190KgkktF9eFYfSo+KIRtJ3PF+GuUW9LOs6xCce+07XtbyRs+7Tx48dX9UKL/KxzQ+tse6cuJTvQVFW1Z35byG7P+nfE87zFKS9zX9oPThOqWrBdtjxoStsxzDAMF6BdxkPdbuyCEPnyXmNjY0eHw2AwGAxbAFEcgI6nAXass+0Gaj0JLcvLBP9SzshsCl7d1ICbSCR2iHjraQC+TOJnULjvvffeay54Rxco4Sv5ba3w2aj3CnFCftsSvtb6uM62G1zb/nrSce5LOvaLyWSy2y0Oz/OWVa3f+Hnk59iXTUVxMpnMEgDzN93BSYi4WhGPx7eD5B8hRHdHJw0Gg8EwiInkAPi+PwuC91rbIXAK1KaAQF2+6H8AAMlp7S5IeFGhe5LJ5FDBpgRCFJmJdgV6iiMkX0J+Rj/BJfF4vOD+eiKRGAPg3LxLy7YZPbrNAcgq2Y3EjQL5ogAHSXPzEYX6fH/lytXISwdMcFX+8yTy8w7Uum58CiJgkVci/zMh7VcaegY31T1Q7eMLDAaDwdB/RHIAAAB5FQJJnAnB8S3NlaNGVZe1Jvti338RyD+fjiuStr1vd/dIGH4feUV7RHhfb3TwPO9jgHflXdo2ZvF2dF4KuJWY6Oy9yMUMtGpy9+zZs5s2ta3nkLevL4o/7KbCHwDAdeNHIm9vX1PaHc3UULflV+yj8Je1NTXtcg90pNZxjiFxad6ljCg1tcsbotMWRCiCbks9GwwGg6HviOwA0ArbtgEE2AUty/8CPtbeoJUHCq5E69l7QYUoPJOw7dM6yjU0NFS6tv0DQPKL4TyfDoLpvdWhoqrqRnBTPAIE5yUce2pnCXpc161zHfspol063febsvqGfDnP85YJ+IfWNoG9V61Y/sS21dVOZzok4/FPU5if2ncdabU7CeB53mLR+EnepWodUy8lbXsSNsdybftSDXkSeZ8HoXwt5/T0DrZbqcABCds+13XdujrbbnBd1xwxNBgMhn4icprZVGrJfxOOPQ9Au+A3qjJG/+ePHwQvJF37uyLIGVDBCBB/yukkL4hwFRXiq5YvP5p5mQMh8ELgfHRVCrgIGhsbV7muezoR/iOvLsBpzTHrswnXfg6C+YBQwJ0p+nAA+TP5ZUrLiUuXLl3bsV8q9S2E4aS8jIfHZStija5jzyTxPwJaBDaBXQSYmHerELwylUua0w4vCH6cdJw927ZBBI4Q05KOPUeAF0Wwmgo2RI4EkOig0f95XlCSf1cNvkXIQS3NGIjfUDRCAioXR/LX7u43GAwGQ3koKs88iUdE8MNNF+Cn05nnS61UV6S84KcJ2/4IxK3YZFx3ArgTiZyJb78gP1eTpwa+31gqHTzPe8t13f0p+gkAO7ZcHgJpDQpkZ3sCr9MKz1rsL31v86dyWe9c1z2comcAbQF9lQSOgeCYVs+lgweznpRvpryg09LBAHTK909NOM7PAbkCLe9My+rNLm3vV3tt1wH8en4J5N4iwF0ELkK7Y5Btz+0C4wAYDAZDv6CQW6Jt/es2kr/lNECbPIE/oJuUuEqrbL68iHR6pExyefBb++xWh3QQ3Glp2RnEb0Gs7lRI4AHyHaHa2/f9TnP2C9AaSLcSKC7Zjed580aOHrO7CC4D8L8uxATEvyA4N+0HB6RSnRv/vD7fzWrZtcXBauxGdBkED1hadk15mdsKqBqmff9rQrW3QP6MLhIQAVgCyK1CtXMk4y+b3jtd4N/L9/25FBwCyCvo6MOQtZ3fZTAYDIZy010A24BnIlARxOMTxbJshbAaopYrkfmLgmAOSrDkH5VEIpFUWjcIMFYAKmDJxjD8T67Gfc9wXbeOWu9GJSM0MIQhlohlpT3P+y+KqEOQT319/ZCmpo/3UmLFQT0GolZA6wWpTGZOT/sscvyRGzZscJVSYWVl5Ycmx4DBYDAYDAaDwWAwGAwGg8FgMBgMBoPBYDAYDAaDwWAwGAwGg8FgMBgMBoPBYDAYDAaDwWAwGAwGg8FgMBgMBoPBYDAYDAaDwWD4ZFDyVMATgYpMMlnDbNYFOVqLbJM3lijyo5A6ZIi1IflRGIaLOquQN4ixHMdJWlrb2sJwAEOpOQQASGY19RpS1mlteb7vLwag+1ddw0CmoaGhcuXKlXGGYYJKjRSR4Wj5LgGAKLUaCLXS/Egr9RGARaUo42wwGLZ8eusAqEQisTu0PhSUA0SwC4kdIKgorhtZBTBFcKEAr1PklWaR1zOZTLeFZvob13WrgXB/itoPwL6AjANRW8TrbwLwgUDmEOplJfLS4iB4C0C2fFoXTzKZHKqam51CcmMzmcWzgOa+0GkLJZa07b00cAiJ/QDsCmAciqzaCWA5wBQgC0XwGpT6Z2Vl5Rum9oLBYMinRw5AIh7fT8izCJyaV8O+1GQBzoTIPXYQPDlQDEsyOXa8hGoKoKYA8qmSD0CshsbjAH6fDoIXMABWCJK2fagQMwvJCdVOnue92xc6bUEwaduHaMpZBE8GUF2mcZogmAHgnnQQzEAfFH8yGAwDm2IcAOW68SkUXgVgn3Ip1CmEn/aCcjkaUYi5bvx0Cr8GYN8+HHcRITdrWvf257KucQDKQsx14+e2fKZ27duh+Xba9/fo2zENBsNAI9LSouvGj6TgRgj750dDEO+PYScCFb5rX0zB1RDU94MKdQLeStHfTtj2jXYQ/HKgrIQYeo7ruidR9A0Q7NgvClBq+mVcg8EwoOjWARg9evQ2Q6qqfk6RL6IMAYMDmaRtH5IhfkXBLv2tC4A4iJsCxz4voeXCdCbzWn8rZCge27bHWgp3QPTp/a2LwWAwqK6esG17l6FVVW8Q8iV8goz/2LFjt0649gNCzBQMCOOfz65QfCXh2jeh+MAwQz+SjMc/bVHegsAYf4PBMCDo1AFI2PZhFvEaIBP6WqH+xHXdnSpj1r8hOA8D1+lREFydcO1nbNse29/KGAqTdJxTRPEFgIn+1sVgMBha2cwBqHWcg0E8BWB4icYQAAP+nL/rxk+k6H8D2Lm/dYmE4DCLeN113Z36WxVD17hu/EShPAygqkRdagAD+niswWAYHLRbRnYcZ1sNeRzAsKJ7EnhCTofIW1Dqv5XNze+tA9bmJflRdXV1I7Bx46isZY2wRGo0sLMADQpygOQMb7/Mul03fgaFf0DvltU3AHhNBP+CkgWWqAVihatUM9dKZbiBTdaQMCbDGapRWsn2FLU9RPYFsT+ArXo45rYQPdNxnMN935/bC90NZSAZj+8mwj8CxebFAAA0gvgrhf+B1m83iTTGYrE1eadBYolEYoSVzY7IWtZIau0IsDMVdoXGZ0CML+FLMRgMWyD5Bk8pyiMQjCnifi3gw0rk3lQQvIjuz6zrRYsWrQSwMu/a31ofxOPxGsvCCRSeCuBoAFYRevSYpOOcLSK/7eF4GyF4guRvYlVVzxeRaOX51gcTgYogET8Yws9DcCqKXHkhYBMy07btw4MgmFPMvYbyUV9fP6R544ZHUZxzlxXIA9T4dTqT+Rdasv11JZtOp5cDWJ53bVrrg0QikZQwnEyF0yA4FAN3S8tgMPQTbT8KSce5SCB3F3Hv80J1led5b5VaKdd166D1V0hcCmBrADrtByV3CJK2fZzktjuK7ftjCm7XSt3oed6yUukzevTobYZWVV0OyFUARhd5+4ehYJ8gCJaWSp9WTB6A4knY9vdBXBv5BsFTotQ3yvH+JRKJHSQMLyNxIYAhAyCvhsFgGAAQAMaPH1/18bq1jQTsiHf9PO0F30SZs4m5rlsNrX9AhS+nvaCylH07jrOzovwTghFF3vpYrDl7+YfLlvml1Cef+vr6kU0bN95IFHf8ksBLI0aPOXL27NlNpdTHOADFUVdXNypsblqEnPNaCA3I99J+5gZ0P+PvNYlEIgkJr4PGUekgMAGJBsMnHAUA69etmxLZ+EO+m/aCr6MPUol6nrfMC4IrtHD/UvZbV1c3Son8pUjjv4aUs9N+cFo5jT8ANDY2rvJ8/0KhOhbtl3i7RYCDVq9cfnMZVTNEINvU9EVEM/4QykVpP3M9ymz8ASCdTqfSXnCeJieXeyyDwTDwaT0F8IUowoQ80zJT6VN8359Vyv7CbNMtRQZJLaalD0x5mT+WUo9CeJ73DK1wPwCRZ9Ui+Irrxo8so1qGAjDi9wmQP3he5v7yarM5pf4+GQyGwYmKx+PDADk4gqxoWldgABSn6Q1J2z4OgnOLuGV+rDn76VRqyX/LplQ3pFJL38tqORjAvIi3kMJ7q6urS3WM01AEiUQiCWK3CKJNYa6uhsFgMPQLqlKpiYh0RlleHez7u2PHjt1aiHuKuGWRUB1V7iX/QmQymSVQ1lEAPox4S31VhfWjcupk6IIw3B/R4jaeLkfApsFgMERF6ciJb9Rfy6tK+amMxb4GIBlRfG0oOM7zvEXl1Ckq6XQ6pcDTAGyMdge/4rpuXVmVMmyGRPw+kTLov08Gg2FwowBEMxIii8urSnmpq6sbBeiro8oL5UsD7Vz9Yt9/Q4ivRxSvUlr/sKwKGTZDkZG+TxQ1qL9PBoNh8KNEJNJesSIz5VamnITNzV8HODKKrEDu9bzMI+XWqSd4XnAHBP+MIivEOfF4fLty62TYhDDa90krNai/TwaDYfCjyGhpSrVIseflBwz19fVDAPlyRPFMrKLqm2VVqHeIKHUZoh3DjMWUurDcChk2ISKRvk8Mw0H7fTIYDFsGMQFXMcIRZFKcPtCnLGSb1p8CMFpmPcH/a0lZPGDxPO/NhG0/CuKMwtJyQUNDwzWlTg5k6BwKV0UJAdRq8H6fektDQ0PlmuXLJ2hyRwHqAD1UhCNIaSa5FsKVmuEHYcj3MpnMB/2tb28ZO3bs1kqpsUqp0SKyvqIiu8qytl5RROpwQyfU1NTEK5XaWSsZp8CxAgwTjUpSPgLUBogsVuQHTVrPzWQyg72AVqx+7NhqbVljmskhFVqvRFXVyt7aqhhElkfMNXcogF/0ZrD+QsAvRhR9Nx0ED5ZVmRKhyRsVJIIDgPiq5csnA3i03DoZACoslwgpfZjLz/9wufUZKNTWVrthc+wskkevWrH8MyC22pT7iCBz/8+9dwKKQkwBCcfOAHiF4OMbs9kn84qLlQXXdeuo9ae7kyGwNhUE3QZxuq67l4K+AILDBNgld1UAAjobg85uyCZs+3WI/F86k3l68/vjJ1KzYPbTrMj0vjZu8Xi8JkYeUkhOaf3m4iVLFpZwaCtp20cL5SSQR0CwvQCgbJrCtn6O2t5rCGKK2YRjvwXwOWr9UCqTeaeEOnVK0rYnSYGieqLUa57ndRkLNHbs2K0rLOtcEpMAHNTcUidGQRAqAs1NSNi2B8o/0n6my9wjyeTY8dBqkghqhHifjD3ZUkcEMQKRotwFPLK6unr4smXL1kSRHygkEokkdHhYNGn+BH2Q4bAU+L4/y3XsFwkUzuFAORHGAegjZFG0U4A8fiJQMQtoLrtK/UgiUbM/QvVtncUkElYPEh7GAZwikFMqY9Y613HuB3lTdz+cvUGJHCTEH7qTEXABgE4dANd1d6TWd0D0EQVeaQzE/iA+DWAzB4DCL4A4tZC+FVSfB9CnkxaLvATENQXERFdUlKRUeXV19fCqioorAPmyAEmAxX6MYgD2AWQfUfy269hvKPD6lO8/gXLltSFuB9Bt/BW1PgNAZ59jK+naXxfBNwGMKjCOC/BsdJF8LOE435MQYmn9UKypafmGoUPHQcJrXTf+jOdlnlSMxV6J9oqw9ZDKWNQI9AEDtZ6EaL/IS23fH1QzMgVG/OLzOPRRdcVPOhpW1O9TMrDtL5VVmX6kLh4fl3Dtp6DVqyBOQGk+f8MIuYKi5yds+/sNDQ0lrQ/SW1w3fgFFvwniiF53puU3UcSEcmavxyoSkmdHEHshnU7P7+VQynXty6oqYu8Dch2iH+HuFgJ7C+SxhGP/M5ms2b0UfZaKbaurnYRjPy+CG1DI+Bcg6cavoMgsoQ5CxYc2Dq2aAZGvDN1q66sUuFfStvdVqVQqDeD9KB2K4OqB9oYVRh8XTU4eHHSzMct6FECUvf0xruuWtJ6CoXM8z3ubwEeRhIkf2bZdX16N+hy6tn1pqPhfCD5bpjGGgLh21Ypl/xoo71/SiX+VwvtQXPnnLklnMjMECAoKCo7OHXHuG5K2vS8gEwrJkXJvb8api8fHJR37eQpuA1Ddm766YV/R6o2E43ytTP0XRW1ttZutiD0P4MDe9tXQ0FApwp1TQfBXao4U4vdpL9ifIsPXr117wohRY34ilC8qACDxWMR+h0monnJdt7a3CvYFDQ0NlQJGyosvtH5fbn1KTSqVWgEi0oyTIgX37AwlIRTgiYiyYxXxdCKRGFNWjfqI+vr6Ia7j/IG55c9u9z9LA/ewiNcT8fh+5R+raxKO8wUBb0ERlTsjkFUFtiJaqMxmN55cwnG7RUeb/S+PVQ59vKdjJBLxI0LF1wU4qKd9REZQAcgtSdu+H/24ShqPx4dJNvYsgB1K0d/KlSsbhPJ6a1tp1CZt+1CQtbCs/86ePbuJwiYFAM2h3InoeyF1EP1vx3HK/4/TSz5asWJ3RKnKRvie571Vfo1Kj2g8H0kOemKZVTG0QMEdkWWBBurw9USi5lPl1KncjBs1akTzhg3/IOSsPh66GhZn1DrO3n08LgAgmRw7AZBfobTGHwDAUH4bRU5JlNNAJSHGSIHH8vuennBI2PY50JwBINqprRIhxAUJ174Pmwrk9SkV5C83BYv2HkvrGEW1rWgLuadQbhHqX7ZuzWhAFABkMpkPBPJk1M4J2Iry94TjfG8iouUR6A8E2DOi6N/QB+VYy4FFPh9FjmC//EB+EkkFwb8BvhpVXoDtoNWrSTd+OfrpB6g3VFdXD99YVfVXED3dZtoAIAWgZxH+ghEaMi2RSJRkj7iooUPr14hY+rlYFmcy/wPweiE5AQ+3bXtsOXTIJ+k4RyIXlNktobBHy/9JxzkbxK+RC9rrCUtbtk16FsgtOC/h2tf0cOwek7Tt44S4oJR9NonMAdA26RPKX4TWZII/yeXFAUEZ0vZjE2pcDeDjyCPklk5+HNj2G7W2vU8plS8VQonmAEScRQ9E1jc3v4VozkttX/xIGHIIeTmAbBG3bCXCXyYc5yXbtks2E+gDYlWx2J+LNP4fAnILBYdWVA0ZlfaDoWk/qE37wXBasa2EameAV0Lwd0R3zGsg4Z/6ckLiuvETUYL92u4QQZRVgJhFFjwx0GtdoCMs/8srPUmhnrTt4wTyG0RdhieaAUwneFEo2M72g8q0H9R4fuCk/aAiFNRAywkA7ooUS9GmPr6btO1JxerfC5QAN5S609zRUL0mkaj5lAAbFGSD53mLIXi2ecOGMxOOc5ESPqHybvhAiOIryBG7a+KfruPcWz92rF3SV9FbNPaIIsaYHpTL/wDQciwz0lHOWIFjKYbS4XnemwB+WfydcoBFvJVw4jf3ZXBXT0na9i1FRL0vgeAraT8Yn/YzV6WC4IXGxsZV+QKpVGq953nz0r5/azoIjlSCTxN4KVLvgv182+6rgC5C+JOuVcFsED+GlhM0uDe17A6lD4BgCiA/Afh2lEFULPYQIhUAi5QTpMfkysbzpMJqFD/7d113R6H8ERFn/gL5M1XYkPaD41O+f28QBI0dArglCIKl6Uzm6bQfXAKq7UXwQwBR8iUoodzTV+XUk278TBBdBdZ/DMHDQvkSlD5AadlNg3sL5SghLif4ELpZNbP9zLXQvEQpWTliVPXvAKCiasi3AdSSuioVBNM77lvFXMd+msAxPXw9awHeQMu6OZVKre9hHyUj4dgBCi9ZbbT9YPigOwGQR8KxpwEo6LUSPC3l+1EDPttI2vahQswsJCdUOw32ktGlJJlMDpUw+wKAnq6QrSDk2rif+dVA/Hy6bvwMCqMdnSWmVa3fePb7K1eu7slYCde+FoLvRxBdB2XtlE6nUz0ZJ+k4ZwukQPAdF0DkYhD/2PwpLBTIlZ6XeRoFVi9aciQk00Hwp27lXHsqBKcXUF2rWLZ28eJlXgG5HpF042eJFDp2LKuEVsLzvMgryePHj6/6eN3aWQQaIoivEcrZnpd5Kmr/+SQSiR2gw2cAbBtB/Oa0H0QuHteRpGO/L4UmXIIzQH4VkAM6PKMp+FUWuLZQyfCxY8duXVVhfSPlBV0Wfks6zrECOQqgBcpHlsYji4JgNrD5fmN2yIaNZwD4d7eKd83WgFwnYfMC17a/0p/ndFvGjrLk/f5A/HEtCuLDKGIStfKjoSSkUqn1FdlwMoB5PexitIC3Bq49N2Hb52AA5XKwbXsshbdFkaXg9rQXnNhT4w8AaS/4ASRSJcxhovU3ejpOEVzU8QIhT2RD+VSLgSq4dZFOL/lnIeMPANT4TQR9lGStQk5CjxEpHP1P8sFijD8ArF+35vsRjX8KSh/UU+MPAOl0ej6UdSByiZwKcUlNTU3BeIfeQIWGzYw/sVqojksFweWFjD8ALF26dG13xh8AUr4/I+0HV6d9/2tpL/hBq/EHOgk4en/lytVVGzYe3bL/1kOYIHHHqhXL5yfd+Jf6I1Bw+fLlLiIFVDFddmXKjOhoe1yDuZ7DYKVx6dKgIhsehgjBXF0i2B7EbxOOPdt145/DAAgUtIibEMnBlntSQXA5SpBhMx0EPwcxtZAcIV9yXbdcZ8cBSALEKe2uAH9L+ZnTy5GWNxUEf4Og4MxehGXZBojH4zUAji44PnVRy/+5WBdGKby2UqiOTKeXRNo26Y50Op0S8syWGILuGFphWV/t7XjdIYLLO1xqUsLJnuc9U85x8+n0h+T9lStXp4PgGOa+5L2Jjt9WhPcGrj034ThfQB/OYJRS0SKCKYPeAVBkJAegUG5qQ3loXLo0qKgacjAFv+5lVztS+MeEY7+ddJyTUYajZ1FIxuO7Afh8BNHnbT9zWSnHFqhLARQqpbyVQljO44hbAWhb3SQwp2XltJigz2IIiQg5AYj9HMeJsrxdFJbFKSi8P//vYg20olwXod+sUJ9Ryq1Fz/PeJHB9QUHKeSivzWoX4yPElxf7/otlHG8zuptJhCkv+AYEZ6Knx3NaEWwPyO8Sjv1OwrZPRx/8cFHrqOVWl5VVkT5ARFZEEtQYWmZVDF3Q2Ni4IRUEXwT4ZUQK6uqWXQXyeNKxX+/jiOUcCtei0CoEsbo51GeWenvN87xlgBQMrtTCLoujlJhsVnB6b7Y3ohCSv4kgRopMKfXYBCIs/xeX+a/WcfZmlKBCyA2et+TZYvqOwsbm8MaCGTsFTm3u6GNf8DvPCx7oo7HaKLiUmA6CqRrcFcD0Eoy3M4ipCSf+ZiIeL1eaUAAAySGRBEX6PVixt4iSqAalJGlKDT0n7ft3a3BPAC/3ti8BJgoxLeHEX07a9qG9164wtm3XCzi5oKDw2iVLlhSaqfeI5lDuR4EU2AQm1tZWu+UYv904grt6cuytWHzfnwviXwX1IUpaGyCZHDsegm6rIwJYs7FZF1VHRUMuR+GJYCqrS39EDsjtnYMomP1VUwp/1nvPOlqx7/TBOJsRaS/R9/0P035wvFA+h8LLbxHgHlB8KuHY0+LxeLmOpkWc7aotoCa3RHoNQhlQxVM+qfi+PzftBwcTvBiQVYXvKAQ/I8TMhG0/tG11dVnjPCzyQhT63RC8N3L06FicoLsAABseSURBVNvLpcOSJUsyEMwoIEbJVhxeLh1yyCqxrGvKO0b+cJFWAfbKZScsDTprnYWChloeKqZMczKZHA0UPNUAgN8pZ6lj6gg5FqQEhZ0KDSH4WUtNnj6nqGAiz8s8bFVU7gziVxGCKKIwKab4v4QT/3bJTwxQR1oBEMrgPgEAQGkVpSAQKIwkZ+gTJOX798Saw10A/A6lKEtKnJmtjM11bftSlC1QsHCqXwHunj17dlk/a6IK18DQ0IVLZfcCkg+21lXvCyqqqh5GLmtit0gYK1kwIFl4+V9BFXf2XzefgsITtKUjR49+pKh+i2RxELyFwsnvdmwJgiwXWQ3cWcb+u6XoH4lFixatTHvBpVThLhA8jN6n0N0K4P+tXrH8rUQiESlxTyRERXpt1Kgq2Zj9hFY6mvOkCv94GPqWD5ct89N+cC617AFiWq87FIwgcXvCsV8r5UwQaAv+q+9WiGjOal32wlpKR1kO527l1EFDPVTO/jvS2Ni4ChKl0FRpkgK1ZHgtVJzmrcW+/0Yx/YrmCRGk/lBuJxK5oM03CwlZVpeJekrBs1GO+5WLHs8SUqml76WD4HNCtTchvT62IMAu0OGrrhsvSU5kAaLt7UeNFRjQRI536G3wmaFMpDKZd9Je8FkNHlxMHYFu2Ee09XrScU4pLBoRi4UDDgXPlmvvPx9VWfnfCLrsivIFHDd6nleKf6eiUNGCAXets+0oZ+u7JVLlP0FRs/+GhoZKEAUD64RWlEqIvYco+DmiqF3LqECfOpEd6fUyoed5b6b8zDEUHIbeBzYNpfD+hG3/OplM9ipinZHrGuhBHxlPHc0BoLAE+82GcuL7/ktp3/9MSx7z3qWoFowQyKMJ174JPS+w0oYWKRQMBhJ9coxp0aJFq1A4t8DWruuWpdQyBf9APxQQW+z7zyFXOKlbQtXrCoExQAoFFK6r2rjxj8V0umLFit1QIBiZwEee5/2nmH57CiOdAtMlP1rZioo19yLfTgnGL1VHqSB4Pu0HBwnVQQBe6FVnxPkSZp8ZO3Zsz6tsRYzuF6iyZnvqIyIlPZGI+QIM/U9LHvO9hHIUIixTdgMhuNp14lN7m5CLYMGUxqGUZPUiCgJgZSEhFYblCYpU0icGqhNCgFG2WHqVByFS5T/B1GKPP6pIabHlNZQiJiYCIiz4GQJZrtMkS8qVujkqvZ4VdMTzvJcBHJqw7eNBXAtgrx52dWBlhfWk67onFJtesoVI5/sJSfSg74GFghNlLkJgSfmVMZQSz8s8B2Af142fTuEPAezck34Inhw49kPwgzPRg4Q19fX1I5s3biiYXEsBE5OO0yMdi0UifOi1hTiAd0o9NkX1OitdTxHytxT5dvdC2N513b1ailIVP0aEYE9YxWX+AwCKNEihMwVQTDrOZqmWy4EgQsVYQVmCAIl+cyLbKLkD0Eo6CKYBmO667okUfQOAHYvuRHC4Qvhn5ArdFJVKNBaGi5pjEZI4EX1eQ7zUiNBhhB9DEelXb9PQY7TnZR4B8GjCcc4C5Dr0rK7Dqa7j/Nbz/QhlXduTzX5cF23BUG7p83Xx7ilL7ouQLPvZ/67wPO/dhOO82kkRmXYorc9AD1aPXNfdCqJPLiD2v3R6yT+L7TtaPRI5SoCjiu27jJQlg6oA/fYZaqXcOcXF87wnbD/YLXfmufisewIenbDtopMkNC5dmkGEIzMQ1LuuO6gT5BASKdo7ls32tCiNYWAQpn3/97RiO5H4FoA1xXZAyFk9mV1JMwdlIamo8TFFIp7nFV46LiNE4TPskksKVHQQpEJ4EoBut1+LzfyXd2PZ9tPLhpTnpFik7Ycy0ydFRWYBzSnfvyerpUEg96LY/R3iB8l4vGAAUgcEwKIIcpalda8jZvuZwvoTqz9ctszvA10MZSaVSq1PecFPhaqh5ShuUQjkZtd1i1uRI0cXO86AgCzHj/fHKEFxo95QuWHDIyh80qkuUfzvJgQstPy/Aaqih1H6Mvg+R0RZToqR7D4VcR/Qp1XFMpnMEs/P/P/27jxKrqrOA/j396q7k5BOIJjueksldKDJAA2ICmhAJIIcFkEckcXxREVxnaOODs44LkfHQXEcFT3jYUYRhNFxBHFw2BdlCTjIEc54kChLiJ10vaXSTRZ7SdKp937zRzUxge5693UtXZ3+fs6Bw+n+vXdvNfWq7nv33t/vA6I4FwYLePbSpjm5BllHswKjeToVSZ8HalETmd9MFgH+odF9oeYKgmCgshVX/wpAloxpCwXJ1ZkaE5mdT8k0bcZ5GiQlh3wTbNi6dbtC/zs1MONuANu2u5Ba+U9vLhaLZvVHXm7W77qqFxVtaP0IEzNSVrQYRXdZcXICNH0P5h6KY1w3nykvsyZmJVhVtcEpQxsnbm9fZRSokpo4hWanICj9l+SSkyB43vggxWlePv+6DM3wg/tFSabBVuMIrjeIuhAZPuct4CJo9d0imTP/7YvvownSAu+jGasrPrB58/M7xsdPEeAJ02NEJdNaAMu0BnslMcWM11ifDhU1y1Wtmpo6lWavYnHzk+VYTwJgXjZVpPpKcpqcSEuscwyC0v1IneYUr2Dbp5ieU6zUMs/PDIThw6bno9Y2o196W7Zs+VNud/k8mBcYOtF13SNMz78rjh+HWenVV7hud5a7odah6Vm1AAC5XOYVuzS7lEqlzZKLz4Pp4kDBuZ7nmSbKmfVVM/dDCaCpOQHUcBpgWXf3YamV/yqZ/2oZADEdeQtp2DZAUxuHhkLXzb9fVG41ibcQnwHAaDX74ODgiOvYDwhwVlqsqLUGQNNTe9bC87zjkMRpuboBxZO+76dmD6PZr1gcfK7g5j+pKiaPaS3E8ekAbkqNVN1psgKnnGhnIyu40b4kl1yvce4zqLY+SnEBgI8hJf9DYllplf/G40rhqhrozvSlXPIVPww/W1s7ZKIlHnsHQek2CB4wiVVIygKVfYnCaGAB4OKenp7ZVRcgidcYxVn4nwb3hFpIMShdBzFLfiNidj2ppUaLduelZY+juioWB9cDqZURu123+42pJ0ur/Ke4pfbCNelb30TVrq0NMtUSAwAAQGJYElFxVKbz5nK3wWzb4ZLdu3a9J9O5Z9BErYS0+ToAgMK6pcHdodaSKPA9k0BVNbqecokYJZEq5/jh3Wwqen1ajKW5qtMAyxzneKQka1NLv5+tZy8nSE9GpgK+h5qkZQYA7fPn3wezL+pMaRknHn3fbRIr0L+rNV96syTl8nth8rdQPBkEQW1FZWjWsaz4HrNAs+tJ29qMBgCW5vjh3WTj4/FNSNkGqtC39fX1TVk2PEFS/e5f8HwQlGouXKNiNJDke6hJWmYA0N/fvw1miXs6s2buU9F/N4oDVkS2fVmWc8+E3t7eeSL4lEmsWtnKddL+YeLRcPrCPcM858ViMQQwkn666dUqoOkbGhoaBpCWE2DJtqGhqaZ7cgqpXvlP9VrUo/qh6nMGUSsBGORxp1q1zABgglFyiY6OjilHspMJgtKdADYaBQu+nM/nG1L8oV52jI5+CoBJSs2Rjo75zamrTa1GATW5nkyvpQSCp1KjRGfnbprZLkmfBpgqKZDruqdLtbtuwe72cvKDafdtb4lR7pfOQqF7tmdnnRVabQBgVP63v78/9U7kJWKBfMUwdkm7ZX0r4/mbZll392GAGuVDEMXVE09WaC4SMbmezK8l1fTMmorVvb29DcmdTlPzS6UHAfRXixHIWybWDu37c63++F9Vb+8fHKxLKXHN5YyysyZl68x6tEfVtdQAoOoo9M+GMY1ypsUwvA7AsyaxCn1Hs8pRZtHb2zsvyVk/hlk2rdEy8PVG94laU6FQWADFgamBap6SWwUPGoR1jo0NZ9qpQ3WRiFTfoqfAYsTx2Xv/bGI6tWrlP8tsS6mRIAgGTDJWioW31atNmlrLDAB6urpsBRYbhJrMIU2mDMXnTYMV+u1pFCBqqB1jI98EcKJZtF5V+5Ydmq1Ux9PzQwBQwXrTcyaJ/BIGC3UF0nKD57nAivUGpMzTq+hLpgHitwBYVOWQjcUoMltQakpxn0HM6wqF7mPr2i69TMsMAHa3tb3VJE4h0y5p60fRTwV6r2H4fLXkjuW23RJzUZ7jfBaKjxiGb1TJXdnQDlFL09gyup4EalwkqjKglF+nN45zPK/7labnpfrYVCptALC2apDi7L2naARS9U5bFdcha/XWFKK4zSROy1bmMvCUjVVw7S/atp1tb31DJEZ72i3goRoa0URy7xcYV/N6RQzcO9ODAM/JfwbQK0zjVfTjQRCMNbJPNDnPtb/uOM5M1zxvE8E7TAJVMl9PJpngLMTWNzCNWvRUI00tELRo1+jo6on/boPqGVViY8nlrqtLv/ZSjKJ7FUhfUyC4yHXdk+vdPv2ZpQmOyAke82z7w5ihJwKebb8bEJP/0VpW4zv4SQVBsAmQy40PELixhV+5bt4s534d9fb2zivY9rWAfNn4IMUPgqDEzH8zRXG8BX2i4ObT0qo2jOvan0RKUpcJu3bu3G2UgfNFufb2mwCkDy4Fp7uVz5SmqrbXfS4Yj+ObkbKwU1XPBQDHcVYBctCUgYK7GpRCvGwJUmsYABDR5Lquri6jxeF1JLMlH0ytXvzC74TgatexH3Mcx7hyVD0st+0+CL5hGP5QFEX9tbZZDMNrILjB+ADFgaJyl+faX2rWG6OQzx+zY3TkYRW8N8NhT5dVP9qwTpGpV6jKf3qOfb/ruq9uZsOe171KFF80Clb8fMuWLZlq22/atGkroN81iRXBVQXbXp3l/LUoOM47t20Z+tdmtdeKBgcHRyC4uVqMCs4FgJxo1ZsahTYsh4jkyt+CWWGglR253I/RpLwAhyxd6riOfWep0NXTjPZm2j53/AIcb0HXFhx7bcG2z3np7+vN87pXxYK1AMwqkqlhumAD7R3zPwTBYxkOaYPi85FjP1aw7VPr1Y+XKhQKB7uOc6Xm5AkAJ2Q4dGusuICFWFrKatHkCc+x75z4ImzoE4GC45yFxLoPhjXXBdO7nqy2+Osw+/DuUMFtXj5/2nTaMeU4ziEFJ3+LQn8ElfSdD/s5SVKnAXoKhYIHlSrrNNSfyJ/SEAMDQwEEZtMLgvM8x/5Jg5/uWAXHeX+5ve13JsXj9heTfsErcIoK7vAcu99z8v+UpQSvie7u7rzn2lcjsdYCONjkGAUe96Pop/XqQ39//04rV34bUvbOTuJVKnjQdey7Xbf7DNRpkLSsu/sw13Gu1LjcL9BPQzM9adhlQd4aRdHv69EXqruzVfCA5zjPeI7z2Xw+v6KeJ3ddd7nn2P+h0DsALDQ87K5iFE1rPc3AwFCQYVqqEzm527Xty1HnGwrXdZe6jnOlBf29QowWPc4FxShaC2BD1aA4PkZVq61t+gGmsd06C4X1BQBDhuFv37blhUcqeVDqq2Db57iO/ZhCvwfTm9H9RFo54GWAfE40+Zxn2+shehsS3B+LPJZ1i5nrugdYqmcDuECh50HNkv5MKEuiH0U9UlHuZWBgKLBt+425yv7mTAu3BDgTap3pOfZGUdyYWMkvgLZfmS6+6+3tnTc2NnaCaHwKRM5PFK+V6b28XSp68UAQVV/92wyafMtzbbNa9HUiVtsnisWi38w2p08PB3BFmyVXuI69DorbLZEHrfb2xyqP1s0dumTJgeMLOt6sKhdAk3MAZKlkOapifSJT11/ioIMP/trWLS9cIkD6AllFuwj+xXPsd6gknw6Czb9ADdey53nHQeMPQJM1MEweNseoKm4QwT9OFZConiiCQ6f6daxybYP6tkcQBEOebf9thunYE5Kc9TvPyX8TVttVvu+/MN22u7q6Oue1W5eoyocVePVcXa0qnm3/BDJ5isgUGwA8LYoNsNSHWlsAjKlqmwILLQudAJZCtVdh9QF6KKY9j6Of8cNSw7a15fP5FW2WPAhgeU0nEuyG4o9QPAOBr4rtIjIsoh1IMD8ROVigLoBDJ/6p9ZHWCCx9q+/XXqSjmoJtr1bDcs3NlkCOCsPQeCtbo3mO/SCArFNECsh6qD4NkQ0qGlgq2yDJSAKZB2ChBSxU1TxEDp+oiNmDad5Rq+j7gqBU8+ru5bbdFwt+jexfwk8B8hMVuTMIgt8h5U6zUCgcjDg+EapvVMF5qFZvQHGjH0XV89pXa8tx3qnQlPTZ8pwfhkZ5FmaKbds9uUrCnaneI0MAlk72CwXuCcKoaY/BPSf/Q0CMdoHtZQzAzwTy80RkbRAEaU8ScoV8/ii1rJOgeg4EbwIwZU0ZycUri8XB6eacQcGxNyhQ/Umf4mI/im6abhv1kPYEoJpDARyqAqDyr8pPpTLRqXvG93v9bhoEcm0xjL5aQz9TlUqlPy5btnRVUm67BcaJdiZReWy/EoKVACBS+aEqJv4udX2AsUHFenvgs9LffkAAPRyCwwGFKKBQQGXPogHdE1ZzU1cGQVSXrV2bomidZ9uXQnAjsg1Gjgb0ClG9wnPsMSjWA9gI0e0AxiDSUXlCqA6AHo3LXqXr9ej13BBFUb/n2g9CMdX6i0m//AHAQv0y/5mQXPsHNC4fBSDLgtkDAKxR6BpRhefYmxToF0FJVbcJoFBZDAuLVNEjwAoFDqiMtRv0QmahWgYADVf58g8/iDo/+p/MwMBQ0NPTc+ruXTu/B2BNo9urieLW9vnz3808/5SFQr4ahGFdk6v4UXRzwc1/UFW+i+k9kTgAgmMBHLvnk3mfmweatgQ3QKYcAEyllA/DWxux928qxWJxh23bZ+Us/BKKY6Z5muUCLK98v0+8bybuPfkumlrLZALcR+VR+uXFMLwMQNysZvv7+3f6YfQuKN4Dw8qEzaRAJKLv9KPofH75UwY7VPDeIAz/oREnLwal70PxPgDjjTg/TU9Z9Weo1E4xporrnwB2N6hLU4qiaLAc65sy7syiGlliGa/CbBL9rcJ6rR9FprkB6s6Pohvay3EfUH0/bRONiOJr83fuOqIYlH48052hqlrqehLgYVi544Igqk851yn4UXQ9rGQ1FEEj20nxSAx8aQbbbymlUmlUFFl2TqnVFn+/YR1KUSqVNi84oPNUQeMXIFYxCsgni8XB6rso9hNWMYg+KpA1Cqyb4b5shOJSPywdHwQzP6/dPzgY+WF0IRJdpcDdM9SNEqBfVrFWFKPo7zds3bp9hvpBhvwwugSKj5hUPGuwp6G4sBhGp/q+b1QFs1a+v/nR9vnz+yYSBdU1f3xVivUCWeOH0Ru4FXZfscj1xsGCB4rFQePiUI2wfv36XcUwvAyKc5F9i3YtygK5VsU60g/Dq9DEJ88zyQKgxTD8URBGRyeQN4jiOwA2Nan9BIpfQnGhHUaH+1F0PVrsD++XSr8OwuhsUbxWFNdlqCMwXcMAfqai59thtMwPS58zWOFKraPsR9G/+UG0UsU6U6HXGOU9r1PbUNwGxbl+GPX5UXQzmrB+Zm/9/f3b/LD0IVi510BwExo3EFAIHlDRS/woOrIYhj9Ck1/rbBCG4SMTiyxTNTLzX1Z+FN2hYvUJ9G8ADDSwqc2q+OdyoiuLYXhZEASNbKvlTLk+wnGcI3OSnKyQ10NxLCpbb7LsNZ6cIoDgUYHcMx7Ht27evLlU8zmbqFAoLEiS3eeLytkAVqPWrYN/tgmJXnrQ0qWPrFu3rqXmUpfbdl9s4Qsz3Y/JzJI8AFYhn+9LRE6ByMkiegwUf4Hat4ECwCaB/EqBuySXu6NYLLbU2hXbtnvaLL1EVS4CcBxqW5O1FcCjqrgTlnVrIz6sXdd9vSD5WLUYVQmDMPx4vdtuFM9x1kD0vGoxolKev3DhpevXr9/VrH6Z6uvr69i6degsqHWxiL4ZilqyPSYQrFOVB8RKbvX90kNoQMKjgmt/R4HuqkGSXOX7mx+td9tZZLkYc4VC14okaT9aND5SgRUCWQLFEhEcpMCSibiyAMMKDEMRKTBoiT4PWM/EwB/CMNzYiBcyU/L5/Io2kdeIhcMS1cMAWS7AEkDmAboIlQRDhvkP5Eq/zqu0qWW1ua7bK0lyNIAjReQQhS6B4CAolgB7PuTGBRhVwXZViQQYVNXnYCXP5nLJukpWvtlh+fLlS+Lx8ZMg8ipRXaEWVohisUIWA1q5RgSjAEaRYFCAQRV9HirPqmU9FQTBM+Bd/lyXKxS6+zTOrQJ0pUJXCMSDYAH0xSyYEgv0Tyr4k6hECg0BeVZUnx4bH/+/rPUv9mfcIdFgnuOsAfQGGP+t5fN+GBqX/iUiIpqOplRYmsuGR0aeXLxo4Tggpxsectqizs6x4ZGR/21ox4iIaE7jAKAJhkdGH1m8qHMxgFUm8SI4Y1Fn54LhkZFfNLhrREQ0R3EA0CTDIyP3LV7ceQgqC6FSieD1ixd35oeHR+4C5z2JiKjOOABoopXDI3cOL+o8QYBew0NOOHDRwld2zF9w59jYWEvtDCAiotmNiwCbLJ/PL2yzcA8gJ5seI8Dv1cr9ZbMSuhAR0f6vNWsB7MdKpdLoeDk5S4CHTY9R4ChJ4t94jvMhcNBGRER1wC+TGdLV1dXZ0Za7Hdlrxz9kQS4fCMPHG9EvIiKaGzgAmEGV6QC5HZWMgpkocI8k+p0FixbdlzF7l3iedzinE4iI5jYOAGaY67oHSJLcCoFpnoB9CbYDuFeAJ0Tlt0gSP87ltre1tY1YO3bM293RsRhx7Kmlh1pqrQL0NAWG/DA6sb6vhIiIZhMOAFpAX19fx7YtL1wD4F1NavI3HAAQEc1tXATYAtatWzfuh9G7JypfNa+MKhERzVkcALSQYlj6NhQXA9gx030hIqL9GwcALcaPopstyBsAeW6m+0JERPsvDgBa0EAYPj5eLr8agqvBKQEiImoADgBa1ODg4IgfRH+dQE6E4HawHgAREdURBwAtLgzDJ/wgOs9K9FgAPwTXBxARUR1wADBLDJRKT/lh9K5yol1QXATFjQA2Zz6RIFTF/fXvIRERzSbMAzDLFQoFT8vl4wAcAdGDVOVAC1ioFnZBZZuIbofKVqgWY5F1YRhunOk+ExERERERERERERERERERERERERERERERERERERERERERERERERERERERERERERERERERERERERERERERERERERERERERERERERERERERERERERERERERERERERERERERERERERERERERERERERERERERERERERERERERERERERERERERERERERERERERERERERERERERERERERERERERERERERERERERERERERERERERERERERERERHtn/4fuDOZNXVuSWYAAAAASUVORK5CYII=;" vertex="1" parent="1">
          <mxGeometry x="310" y="58" width="82" height="82" as="geometry" />
        </mxCell>
      </root>
    </mxGraphModel>
  </diagram>
</mxfile>
